<?xml version="1.0" encoding="UTF-8" standalone="no"?>
<svg width="265px" height="52px" viewBox="0 0 265 52" version="1.1" xmlns="http://www.w3.org/2000/svg" xmlns:xlink="http://www.w3.org/1999/xlink" xmlns:sketch="http://www.bohemiancoding.com/sketch/ns">
    <!-- Generator: Sketch 3.2.2 (9983) - http://www.bohemiancoding.com/sketch -->
    <title>HEE-NW-London</title>
    <desc>Created with Sketch.</desc>
    <defs></defs>
    <g id="Page-1" stroke="none" stroke-width="1" fill="none" fill-rule="evenodd" sketch:type="MSPage">
        <g id="mobile" sketch:type="MSArtboardGroup" transform="translate(-35.000000, -159.000000)">
            <g id="HEE-NW-London" sketch:type="MSLayerGroup" transform="translate(31.000000, 159.000000)">
                <text id="Health-Education-Nor" sketch:type="MSTextLayer" font-family="Arial" font-size="15" font-style="italic" font-weight="bold" sketch:alignment="right" line-spacing="19" fill="#000000">
                    <tspan x="4.645" y="47.5448368">Health Education North West London </tspan>
                </text>
                <g id="Group" transform="translate(201.658228, 0.000000)" sketch:type="MSShapeGroup">
                    <path d="M0.215493671,0.614426966 L67.2347342,0.614426966 L67.2347342,27.7001798 L0.215493671,27.7001798 L0.215493671,0.614426966 Z" id="Fill-1" fill="#007AC2"></path>
                    <path d="M6.76891139,3.22857303 L14.056,3.22857303 L18.5296203,18.3464494 L18.592,18.3464494 L21.6571139,3.22857303 L27.1628354,3.22857303 L22.5339747,25.0315281 L15.2766582,25.0315281 L10.7101772,9.94408989 L10.6463797,9.94408989 L7.61316456,25.0315281 L2.1081519,25.0315281 L6.76891139,3.22857303" id="Fill-2" fill="#FFFFFF"></path>
                    <path d="M29.3170633,3.22857303 L35.1672911,3.22857303 L33.4461772,11.5686404 L40.3604051,11.5686404 L42.0801013,3.22857303 L47.9296203,3.22857303 L43.3936203,25.0315281 L37.5433924,25.0315281 L39.4835443,15.6919551 L32.5707342,15.6919551 L30.6312911,25.0315281 L24.782481,25.0315281 L29.3170633,3.22857303" id="Fill-3" fill="#FFFFFF"></path>
                    <path d="M63.3175696,8.16380899 C62.1911899,7.63291011 60.6586329,7.16430337 58.5008608,7.16430337 C56.1843038,7.16430337 54.3093671,7.50761798 54.3093671,9.25675281 C54.3093671,12.3487079 62.7866329,11.1934719 62.7866329,17.8148427 C62.7866329,23.8444382 57.1873418,25.4059888 52.1189873,25.4059888 C49.8676456,25.4059888 47.2703797,24.8750899 45.3621266,24.281191 L46.739443,19.8457079 C47.8963038,20.5953371 50.2121519,21.0950899 52.1189873,21.0950899 C53.9336709,21.0950899 56.7804557,20.7510674 56.7804557,18.5028876 C56.7804557,15.0039101 48.3031899,16.3162921 48.3031899,10.1628202 C48.3031899,4.54024719 53.2446582,2.85340449 58.0308861,2.85340449 C60.7210127,2.85340449 63.254481,3.13442697 64.7253671,3.82247191 L63.3175696,8.16380899" id="Fill-4" fill="#FFFFFF"></path>
                </g>
            </g>
        </g>
    </g>
</svg>