<?xml version="1.0" encoding="UTF-8" standalone="no"?>
<svg width="257px" height="58px" viewBox="0 0 257 58" version="1.1" xmlns="http://www.w3.org/2000/svg" xmlns:xlink="http://www.w3.org/1999/xlink" xmlns:sketch="http://www.bohemiancoding.com/sketch/ns">
    <!-- Generator: Sketch 3.2.2 (9983) - http://www.bohemiancoding.com/sketch -->
    <title>HEE</title>
    <desc>Created with Sketch.</desc>
    <defs></defs>
    <g id="Page-1" stroke="none" stroke-width="1" fill="none" fill-rule="evenodd" sketch:type="MSPage">
        <g id="HEE" sketch:type="MSLayerGroup">
            <path d="M0.102,52.5448368 L3.042,52.5448368 L4.386,46.1188368 L10.308,46.1188368 L8.964,52.5448368 L11.904,52.5448368 L14.97,37.8868368 L12.03,37.8868368 L10.791,43.8088368 L4.869,43.8088368 L6.108,37.8868368 L3.168,37.8868368 L0.102,52.5448368 Z M25.596,48.0088368 C25.764,47.2108368 25.869,46.4128368 25.869,45.5938368 C25.869,42.8428368 24.105,41.4778368 21.438,41.4778368 C17.889,41.4778368 15.285,44.7118368 15.285,48.0718368 C15.285,51.2848368 17.385,52.7968368 20.493,52.7968368 C21.648,52.7968368 22.845,52.5238368 23.937,52.1878368 L24.294,49.9618368 C23.244,50.4448368 22.131,50.7388368 20.976,50.7388368 C19.044,50.7388368 17.973,50.0038368 17.973,48.0088368 L25.596,48.0088368 Z M18.351,46.0768368 C18.897,44.5858368 19.653,43.5358368 21.396,43.5358368 C22.572,43.5358368 23.181,44.1868368 23.181,45.3418368 C23.181,45.5938368 23.16,45.8248368 23.118,46.0768368 L18.351,46.0768368 Z M33.303,52.5448368 L35.676,52.5448368 C35.928,50.5078368 36.999,46.2658368 36.999,44.8168368 C36.999,42.2758368 34.962,41.4778368 32.799,41.4778368 C31.539,41.4778368 30.321,41.7088368 29.124,42.1288368 L28.725,44.3758368 C29.838,43.8508368 31.035,43.5358368 32.274,43.5358368 C33.261,43.5358368 34.437,43.8508368 34.437,44.9428368 C34.437,45.2578368 34.437,45.5728368 34.353,45.8668368 L33.366,45.8668368 C30.72,45.8668368 26.73,46.1398368 26.73,49.7098368 C26.73,51.7048368 28.116,52.7968368 30.069,52.7968368 C31.623,52.7968368 32.589,52.1038368 33.555,50.8858368 L33.597,50.8858368 L33.303,52.5448368 Z M29.418,49.6048368 C29.418,47.7778368 31.686,47.5468368 33.051,47.5468368 L34.038,47.5468368 C33.597,49.2898368 32.946,50.7388368 30.846,50.7388368 C30.132,50.7388368 29.418,50.3608368 29.418,49.6048368 L29.418,49.6048368 Z M38.406,52.5448368 L41.22,52.5448368 L44.559,36.7948368 L41.745,36.7948368 L38.406,52.5448368 Z M44.916,43.7878368 L46.953,43.7878368 L46.155,47.4418368 C45.966,48.3028368 45.798,49.1218368 45.798,49.9618368 C45.798,52.0408368 47.142,52.7968368 49.053,52.7968368 C49.536,52.7968368 50.082,52.6498368 50.565,52.5448368 L51.048,50.3608368 C50.691,50.5078368 50.187,50.6128368 49.683,50.6128368 C49.053,50.6128368 48.612,50.2138368 48.612,49.5628368 C48.612,49.1428368 48.675,48.7648368 48.738,48.5128368 L49.767,43.7878368 L52.287,43.7878368 L52.728,41.7298368 L50.208,41.7298368 L50.901,38.5168368 L47.877,39.5038368 L47.394,41.7298368 L45.357,41.7298368 L44.916,43.7878368 Z M52.413,52.5448368 L55.227,52.5448368 L56.382,47.1058368 C56.739,45.4888368 57.453,43.6618368 59.406,43.6618368 C60.309,43.6618368 60.939,44.2708368 60.939,45.1738368 C60.939,45.9718368 60.771,46.7068368 60.624,47.4418368 L59.574,52.5448368 L62.388,52.5448368 L63.522,47.2948368 C63.669,46.6228368 63.879,45.7618368 63.879,44.9428368 C63.879,42.8008368 62.472,41.4778368 60.351,41.4778368 C59.133,41.4778368 58.062,42.0658368 57.285,42.7798368 L57.243,42.7798368 L58.587,36.7948368 L55.773,36.7948368 L52.413,52.5448368 Z M71.292,52.5448368 L80.028,52.5448368 L80.532,50.2348368 L74.736,50.2348368 L75.597,46.1188368 L80.742,46.1188368 L81.204,43.8088368 L76.08,43.8088368 L76.836,40.1968368 L82.569,40.1968368 L83.01,37.8868368 L74.379,37.8868368 L71.292,52.5448368 Z M93.321,36.7948368 L91.956,43.0108368 C91.074,42.0028368 90.003,41.4778368 88.617,41.4778368 C84.942,41.4778368 83.178,45.0688368 83.178,48.3028368 C83.178,50.6548368 84.333,52.7968368 86.895,52.7968368 C88.533,52.7968368 89.583,52.1248368 90.423,50.9488368 L90.465,50.9488368 L90.192,52.5448368 L92.817,52.5448368 C92.88,51.9988368 93.048,51.0748368 93.216,50.1508368 L96.135,36.7948368 L93.321,36.7948368 Z M89.079,43.6618368 C90.507,43.6618368 91.116,44.9638368 91.116,46.2238368 C91.116,48.2188368 89.898,50.6128368 87.84,50.6128368 C86.454,50.6128368 86.118,49.1428368 86.118,48.0508368 C86.118,46.4338368 87.063,43.6618368 89.079,43.6618368 L89.079,43.6618368 Z M107.748,41.7298368 L104.934,41.7298368 L103.779,47.1688368 C103.422,48.7858368 102.708,50.6128368 100.755,50.6128368 C99.852,50.6128368 99.222,50.0038368 99.222,49.1008368 C99.222,48.3028368 99.39,47.5678368 99.537,46.8328368 L100.587,41.7298368 L97.773,41.7298368 L96.639,46.9798368 C96.492,47.6518368 96.282,48.5128368 96.282,49.3318368 C96.282,51.4738368 97.689,52.7968368 99.81,52.7968368 C101.028,52.7968368 102.099,52.2088368 102.876,51.4948368 L102.918,51.4948368 L102.729,52.5448368 L105.48,52.5448368 C105.522,52.2088368 105.627,51.6418368 105.753,50.9908368 L107.748,41.7298368 Z M118.038,41.8978368 C117.282,41.6668368 116.274,41.4778368 115.224,41.4778368 C111.339,41.4778368 108.84,44.3548368 108.84,48.1348368 C108.84,50.9278368 110.646,52.7968368 113.439,52.7968368 C114.363,52.7968368 115.287,52.7128368 116.148,52.2928368 L116.463,50.0668368 C115.728,50.4238368 114.867,50.6128368 114.174,50.6128368 C112.242,50.6128368 111.78,49.2058368 111.78,47.7988368 C111.78,45.7618368 113.04,43.6618368 115.287,43.6618368 C116.064,43.6618368 116.799,43.8508368 117.345,44.2078368 L118.038,41.8978368 Z M124.317,52.5448368 L126.69,52.5448368 C126.942,50.5078368 128.013,46.2658368 128.013,44.8168368 C128.013,42.2758368 125.976,41.4778368 123.813,41.4778368 C122.553,41.4778368 121.335,41.7088368 120.138,42.1288368 L119.739,44.3758368 C120.852,43.8508368 122.049,43.5358368 123.288,43.5358368 C124.275,43.5358368 125.451,43.8508368 125.451,44.9428368 C125.451,45.2578368 125.451,45.5728368 125.367,45.8668368 L124.38,45.8668368 C121.734,45.8668368 117.744,46.1398368 117.744,49.7098368 C117.744,51.7048368 119.13,52.7968368 121.083,52.7968368 C122.637,52.7968368 123.603,52.1038368 124.569,50.8858368 L124.611,50.8858368 L124.317,52.5448368 Z M120.432,49.6048368 C120.432,47.7778368 122.7,47.5468368 124.065,47.5468368 L125.052,47.5468368 C124.611,49.2898368 123.96,50.7388368 121.86,50.7388368 C121.146,50.7388368 120.432,50.3608368 120.432,49.6048368 L120.432,49.6048368 Z M130.092,43.7878368 L132.129,43.7878368 L131.331,47.4418368 C131.142,48.3028368 130.974,49.1218368 130.974,49.9618368 C130.974,52.0408368 132.318,52.7968368 134.229,52.7968368 C134.712,52.7968368 135.258,52.6498368 135.741,52.5448368 L136.224,50.3608368 C135.867,50.5078368 135.363,50.6128368 134.859,50.6128368 C134.229,50.6128368 133.788,50.2138368 133.788,49.5628368 C133.788,49.1428368 133.851,48.7648368 133.914,48.5128368 L134.943,43.7878368 L137.463,43.7878368 L137.904,41.7298368 L135.384,41.7298368 L136.077,38.5168368 L133.053,39.5038368 L132.57,41.7298368 L130.533,41.7298368 L130.092,43.7878368 Z M137.589,52.5448368 L140.403,52.5448368 L142.713,41.7298368 L139.899,41.7298368 L137.589,52.5448368 Z M140.34,39.7558368 L143.154,39.7558368 L143.742,37.0678368 L140.928,37.0678368 L140.34,39.7558368 Z M148.992,50.6128368 C147.375,50.6128368 146.787,49.4998368 146.787,48.0718368 C146.787,46.1188368 147.9,43.6618368 150.126,43.6618368 C151.785,43.6618368 152.268,44.8378368 152.268,46.2448368 C152.268,48.0928368 151.176,50.6128368 148.992,50.6128368 L148.992,50.6128368 Z M150.252,41.4778368 C146.619,41.4778368 143.847,44.2498368 143.847,47.8618368 C143.847,50.9068368 145.695,52.7968368 148.761,52.7968368 C152.583,52.7968368 155.208,50.0248368 155.208,46.2238368 C155.208,43.2418368 153.171,41.4778368 150.252,41.4778368 L150.252,41.4778368 Z M156.258,52.5448368 L159.072,52.5448368 L160.227,47.1058368 C160.584,45.4888368 161.298,43.6618368 163.251,43.6618368 C164.154,43.6618368 164.784,44.2708368 164.784,45.1738368 C164.784,45.9718368 164.616,46.7068368 164.469,47.4418368 L163.419,52.5448368 L166.233,52.5448368 L167.367,47.2948368 C167.514,46.6228368 167.724,45.7618368 167.724,44.9428368 C167.724,42.8008368 166.317,41.4778368 164.196,41.4778368 C162.978,41.4778368 161.907,42.0658368 161.13,42.7798368 L161.088,42.7798368 L161.277,41.7298368 L158.526,41.7298368 C158.484,42.0658368 158.379,42.6328368 158.253,43.2838368 L156.258,52.5448368 Z M175.137,52.5448368 L183.873,52.5448368 L184.377,50.2348368 L178.581,50.2348368 L179.442,46.1188368 L184.587,46.1188368 L185.049,43.8088368 L179.925,43.8088368 L180.681,40.1968368 L186.414,40.1968368 L186.855,37.8868368 L178.224,37.8868368 L175.137,52.5448368 Z M186.603,52.5448368 L189.417,52.5448368 L190.572,47.1058368 C190.929,45.4888368 191.643,43.6618368 193.596,43.6618368 C194.499,43.6618368 195.129,44.2708368 195.129,45.1738368 C195.129,45.9718368 194.961,46.7068368 194.814,47.4418368 L193.764,52.5448368 L196.578,52.5448368 L197.712,47.2948368 C197.859,46.6228368 198.069,45.7618368 198.069,44.9428368 C198.069,42.8008368 196.662,41.4778368 194.541,41.4778368 C193.323,41.4778368 192.252,42.0658368 191.475,42.7798368 L191.433,42.7798368 L191.622,41.7298368 L188.871,41.7298368 C188.829,42.0658368 188.724,42.6328368 188.598,43.2838368 L186.603,52.5448368 Z M199.098,56.4718368 C200.484,56.9968368 201.954,57.2068368 203.424,57.2068368 C207.372,57.2068368 208.905,54.8968368 209.598,51.3688368 L211.32,43.2418368 C211.467,42.5488368 211.593,42.0238368 211.677,41.7298368 L208.968,41.7298368 L208.653,43.3048368 C207.981,42.1708368 206.784,41.4778368 205.356,41.4778368 C201.849,41.4778368 199.875,44.7328368 199.875,47.9668368 C199.875,50.3398368 201.009,52.5448368 203.634,52.5448368 C205.188,52.5448368 206.553,51.7888368 207.267,50.4868368 L207.309,50.4868368 C206.637,52.9438368 206.196,55.0228368 203.214,55.0228368 C201.996,55.0228368 200.925,54.6448368 199.812,54.1828368 L199.098,56.4718368 Z M207.771,45.9298368 C207.771,47.9878368 206.847,50.3608368 204.6,50.3608368 C203.34,50.3608368 202.815,49.2478368 202.815,47.9458368 C202.815,46.3288368 203.697,43.6618368 205.734,43.6618368 C207.036,43.6618368 207.771,44.6698368 207.771,45.9298368 L207.771,45.9298368 Z M212.265,52.5448368 L215.079,52.5448368 L218.418,36.7948368 L215.604,36.7948368 L212.265,52.5448368 Z M224.676,52.5448368 L227.049,52.5448368 C227.301,50.5078368 228.372,46.2658368 228.372,44.8168368 C228.372,42.2758368 226.335,41.4778368 224.172,41.4778368 C222.912,41.4778368 221.694,41.7088368 220.497,42.1288368 L220.098,44.3758368 C221.211,43.8508368 222.408,43.5358368 223.647,43.5358368 C224.634,43.5358368 225.81,43.8508368 225.81,44.9428368 C225.81,45.2578368 225.81,45.5728368 225.726,45.8668368 L224.739,45.8668368 C222.093,45.8668368 218.103,46.1398368 218.103,49.7098368 C218.103,51.7048368 219.489,52.7968368 221.442,52.7968368 C222.996,52.7968368 223.962,52.1038368 224.928,50.8858368 L224.97,50.8858368 L224.676,52.5448368 Z M220.791,49.6048368 C220.791,47.7778368 223.059,47.5468368 224.424,47.5468368 L225.411,47.5468368 C224.97,49.2898368 224.319,50.7388368 222.219,50.7388368 C221.505,50.7388368 220.791,50.3608368 220.791,49.6048368 L220.791,49.6048368 Z M229.779,52.5448368 L232.593,52.5448368 L233.748,47.1058368 C234.105,45.4888368 234.819,43.6618368 236.772,43.6618368 C237.675,43.6618368 238.305,44.2708368 238.305,45.1738368 C238.305,45.9718368 238.137,46.7068368 237.99,47.4418368 L236.94,52.5448368 L239.754,52.5448368 L240.888,47.2948368 C241.035,46.6228368 241.245,45.7618368 241.245,44.9428368 C241.245,42.8008368 239.838,41.4778368 237.717,41.4778368 C236.499,41.4778368 235.428,42.0658368 234.651,42.7798368 L234.609,42.7798368 L234.798,41.7298368 L232.047,41.7298368 C232.005,42.0658368 231.9,42.6328368 231.774,43.2838368 L229.779,52.5448368 Z M253.173,36.7948368 L251.808,43.0108368 C250.926,42.0028368 249.855,41.4778368 248.469,41.4778368 C244.794,41.4778368 243.03,45.0688368 243.03,48.3028368 C243.03,50.6548368 244.185,52.7968368 246.747,52.7968368 C248.385,52.7968368 249.435,52.1248368 250.275,50.9488368 L250.317,50.9488368 L250.044,52.5448368 L252.669,52.5448368 C252.732,51.9988368 252.9,51.0748368 253.068,50.1508368 L255.987,36.7948368 L253.173,36.7948368 Z M248.931,43.6618368 C250.359,43.6618368 250.968,44.9638368 250.968,46.2238368 C250.968,48.2188368 249.75,50.6128368 247.692,50.6128368 C246.306,50.6128368 245.97,49.1428368 245.97,48.0508368 C245.97,46.4338368 246.915,43.6618368 248.931,43.6618368 L248.931,43.6618368 Z" id="Health-Education-England" fill="#000000" sketch:type="MSShapeGroup"></path>
            <g id="NHS" transform="translate(188.829114, 0.000000)" sketch:type="MSShapeGroup">
                <path d="M0.215493671,0.614426966 L67.2347342,0.614426966 L67.2347342,27.7001798 L0.215493671,27.7001798 L0.215493671,0.614426966 L0.215493671,0.614426966 Z" id="Fill-1" fill="#007AC2"></path>
                <path d="M6.76891139,3.22857303 L14.056,3.22857303 L18.5296203,18.3464494 L18.592,18.3464494 L21.6571139,3.22857303 L27.1628354,3.22857303 L22.5339747,25.0315281 L15.2766582,25.0315281 L10.7101772,9.94408989 L10.6463797,9.94408989 L7.61316456,25.0315281 L2.1081519,25.0315281 L6.76891139,3.22857303" id="Fill-2" fill="#FFFFFF"></path>
                <path d="M29.3170633,3.22857303 L35.1672911,3.22857303 L33.4461772,11.5686404 L40.3604051,11.5686404 L42.0801013,3.22857303 L47.9296203,3.22857303 L43.3936203,25.0315281 L37.5433924,25.0315281 L39.4835443,15.6919551 L32.5707342,15.6919551 L30.6312911,25.0315281 L24.782481,25.0315281 L29.3170633,3.22857303" id="Fill-3" fill="#FFFFFF"></path>
                <path d="M63.3175696,8.16380899 C62.1911899,7.63291011 60.6586329,7.16430337 58.5008608,7.16430337 C56.1843038,7.16430337 54.3093671,7.50761798 54.3093671,9.25675281 C54.3093671,12.3487079 62.7866329,11.1934719 62.7866329,17.8148427 C62.7866329,23.8444382 57.1873418,25.4059888 52.1189873,25.4059888 C49.8676456,25.4059888 47.2703797,24.8750899 45.3621266,24.281191 L46.739443,19.8457079 C47.8963038,20.5953371 50.2121519,21.0950899 52.1189873,21.0950899 C53.9336709,21.0950899 56.7804557,20.7510674 56.7804557,18.5028876 C56.7804557,15.0039101 48.3031899,16.3162921 48.3031899,10.1628202 C48.3031899,4.54024719 53.2446582,2.85340449 58.0308861,2.85340449 C60.7210127,2.85340449 63.254481,3.13442697 64.7253671,3.82247191 L63.3175696,8.16380899" id="Fill-4" fill="#FFFFFF"></path>
            </g>
        </g>
    </g>
</svg>