<svg display="none" width="0" height="0" version="1.1" xmlns="http://www.w3.org/2000/svg" xmlns:xlink="http://www.w3.org/1999/xlink">
<defs>
<symbol id="_logo" viewBox="0 0 4537 1024">
	<title>HEE</title>
	<path class="path1" fill="#222" d="M1.801 927.688h51.906l23.729-113.452h104.554l-23.729 113.452h51.906l54.131-258.79h-51.906l-21.875 104.554h-104.554l21.875-104.554h-51.906l-54.131 258.79zM451.902 847.604c2.966-14.089 4.82-28.178 4.82-42.637 0-48.569-31.144-72.669-78.23-72.669-62.658 0-108.632 57.097-108.632 116.418 0 56.726 37.076 83.421 91.948 83.421 20.392 0 41.525-4.82 60.804-10.752l6.303-39.3c-18.538 8.527-38.188 13.718-58.58 13.718-34.11 0-53.018-12.977-53.018-48.199h134.585zM323.99 813.494c9.64-26.324 22.987-44.862 53.76-44.862 20.762 0 31.514 11.494 31.514 31.885 0 4.449-0.371 8.527-1.112 12.977h-84.162zM587.97 927.688h41.896c4.449-35.964 23.358-110.857 23.358-136.439 0-44.862-35.964-58.951-74.152-58.951-22.246 0-43.75 4.078-64.883 11.494l-7.044 39.671c19.65-9.269 40.783-14.83 62.658-14.83 17.426 0 38.188 5.561 38.188 24.841 0 5.561 0 11.123-1.483 16.313h-17.426c-46.716 0-117.16 4.82-117.16 67.849 0 35.222 24.47 54.502 58.951 54.502 27.436 0 44.491-12.235 61.546-33.739h0.742l-5.191 29.29zM519.38 875.782c0-32.256 40.042-36.334 64.141-36.334h17.426c-7.786 30.773-19.279 56.355-56.355 56.355-12.606 0-25.212-6.674-25.212-20.021v0zM678.065 927.688h49.682l58.951-278.069h-49.682l-58.951 278.069zM793 773.082h35.964l-14.089 64.512c-3.337 15.201-6.303 29.661-6.303 44.491 0 36.705 23.729 50.052 57.468 50.052 8.527 0 18.167-2.595 26.695-4.449l8.527-38.559c-6.303 2.595-15.201 4.449-24.099 4.449-11.123 0-18.909-7.044-18.909-18.538 0-7.415 1.112-14.089 2.225-18.538l18.167-83.421h44.491l7.786-36.334h-44.491l12.235-56.726-53.389 17.426-8.527 39.3h-35.964l-7.786 36.334zM925.361 927.688h49.682l20.392-96.026c6.303-28.548 18.909-60.804 53.389-60.804 15.943 0 27.065 10.752 27.065 26.695 0 14.089-2.966 27.065-5.561 40.042l-18.538 90.094h49.682l20.021-92.69c2.595-11.864 6.303-27.065 6.303-41.525 0-37.817-24.841-61.175-62.287-61.175-21.504 0-40.413 10.381-54.131 22.987h-0.742l23.729-105.666h-49.682l-59.321 278.069zM1258.673 927.688h154.236l8.898-40.783h-102.329l15.201-72.669h90.836l8.157-40.783h-90.465l13.347-63.77h101.217l7.786-40.783h-152.382l-54.502 258.79zM1647.598 649.619l-24.099 109.745c-15.572-17.796-34.481-27.065-58.951-27.065-64.883 0-96.026 63.4-96.026 120.497 0 41.525 20.392 79.342 65.624 79.342 28.919 0 47.457-11.864 62.287-32.627h0.742l-4.82 28.178h46.345c1.112-9.64 4.078-25.953 7.044-42.266l51.535-235.802h-49.682zM1572.705 770.857c25.212 0 35.964 22.987 35.964 45.233 0 35.222-21.504 77.489-57.838 77.489-24.47 0-30.402-25.953-30.402-45.233 0-28.548 16.684-77.489 52.277-77.489v0zM1902.31 736.747h-49.682l-20.392 96.026c-6.303 28.548-18.909 60.804-53.389 60.804-15.943 0-27.065-10.752-27.065-26.695 0-14.089 2.966-27.065 5.561-40.042l18.538-90.094h-49.682l-20.021 92.69c-2.595 11.864-6.303 27.065-6.303 41.525 0 37.817 24.841 61.175 62.287 61.175 21.504 0 40.413-10.381 54.131-22.987h0.742l-3.337 18.538h48.569c0.742-5.932 2.595-15.943 4.82-27.436l35.222-163.505zM2083.981 739.714c-13.347-4.078-31.144-7.415-49.682-7.415-68.59 0-112.711 50.794-112.711 117.53 0 49.311 31.885 82.308 81.196 82.308 16.313 0 32.627-1.483 47.828-8.898l5.561-39.3c-12.977 6.303-28.178 9.64-40.413 9.64-34.11 0-42.266-24.841-42.266-49.682 0-35.964 22.246-73.039 61.917-73.039 13.718 0 26.695 3.337 36.334 9.64l12.235-40.783zM2194.838 927.688h41.896c4.449-35.964 23.358-110.857 23.358-136.439 0-44.862-35.964-58.951-74.152-58.951-22.246 0-43.75 4.078-64.883 11.494l-7.044 39.671c19.65-9.269 40.783-14.83 62.658-14.83 17.426 0 38.188 5.561 38.188 24.841 0 5.561 0 11.123-1.483 16.313h-17.426c-46.716 0-117.16 4.82-117.16 67.849 0 35.222 24.47 54.502 58.951 54.502 27.436 0 44.491-12.235 61.546-33.739h0.742l-5.191 29.29zM2126.248 875.782c0-32.256 40.042-36.334 64.141-36.334h17.426c-7.786 30.773-19.279 56.355-56.355 56.355-12.606 0-25.212-6.674-25.212-20.021v0zM2296.797 773.082h35.964l-14.089 64.512c-3.337 15.201-6.303 29.661-6.303 44.491 0 36.705 23.729 50.052 57.468 50.052 8.527 0 18.167-2.595 26.695-4.449l8.527-38.559c-6.303 2.595-15.201 4.449-24.099 4.449-11.123 0-18.909-7.044-18.909-18.538 0-7.415 1.112-14.089 2.225-18.538l18.167-83.421h44.491l7.786-36.334h-44.491l12.235-56.726-53.389 17.426-8.527 39.3h-35.964l-7.786 36.334zM2429.158 927.688h49.682l40.783-190.941h-49.682l-40.783 190.941zM2477.727 701.896h49.682l10.381-47.457h-49.682l-10.381 47.457zM2630.479 893.578c-28.548 0-38.93-19.65-38.93-44.862 0-34.481 19.65-77.859 58.951-77.859 29.29 0 37.817 20.762 37.817 45.603 0 32.627-19.279 77.118-57.838 77.118v0zM2652.725 732.298c-64.141 0-113.081 48.94-113.081 112.711 0 53.76 32.627 87.128 86.758 87.128 67.478 0 113.823-48.94 113.823-116.047 0-52.648-35.964-83.791-87.499-83.791v0zM2758.762 927.688h49.682l20.392-96.026c6.303-28.548 18.909-60.804 53.389-60.804 15.943 0 27.065 10.752 27.065 26.695 0 14.089-2.966 27.065-5.561 40.042l-18.538 90.094h49.682l20.021-92.69c2.595-11.864 6.303-27.065 6.303-41.525 0-37.817-24.841-61.175-62.287-61.175-21.504 0-40.413 10.381-54.131 22.987h-0.742l3.337-18.538h-48.569c-0.742 5.932-2.595 15.943-4.82 27.436l-35.222 163.505zM3092.074 927.688h154.236l8.898-40.783h-102.329l15.201-72.669h90.836l8.157-40.783h-90.465l13.347-63.77h101.217l7.786-40.783h-152.382l-54.502 258.79zM3294.508 927.688h49.682l20.392-96.026c6.303-28.548 18.909-60.804 53.389-60.804 15.943 0 27.065 10.752 27.065 26.695 0 14.089-2.966 27.065-5.561 40.042l-18.538 90.094h49.682l20.021-92.69c2.595-11.864 6.303-27.065 6.303-41.525 0-37.817-24.841-61.175-62.287-61.175-21.504 0-40.413 10.381-54.131 22.987h-0.742l3.337-18.538h-48.569c-0.742 5.932-2.595 15.943-4.82 27.436l-35.222 163.505zM3515.11 997.020c24.47 9.269 50.423 12.977 76.376 12.977 69.703 0 96.768-40.783 109.003-103.071l30.402-143.484c2.595-12.235 4.82-21.504 6.303-26.695h-47.828l-5.561 27.807c-11.864-20.021-32.998-32.256-58.209-32.256-61.917 0-96.768 57.468-96.768 114.564 0 41.896 20.021 80.825 66.366 80.825 27.436 0 51.535-13.347 64.141-36.334h0.742c-11.864 43.379-19.65 80.084-72.298 80.084-21.504 0-40.413-6.674-60.063-14.83l-12.606 40.413zM3668.233 810.899c0 36.334-16.313 78.23-55.985 78.23-22.246 0-31.514-19.65-31.514-42.637 0-28.548 15.572-75.635 51.535-75.635 22.987 0 35.964 17.796 35.964 40.042v0zM3747.575 927.688h49.682l58.951-278.069h-49.682l-58.951 278.069zM3966.694 927.688h41.896c4.449-35.964 23.358-110.857 23.358-136.439 0-44.862-35.964-58.951-74.152-58.951-22.246 0-43.75 4.078-64.883 11.494l-7.044 39.671c19.65-9.269 40.783-14.83 62.658-14.83 17.426 0 38.188 5.561 38.188 24.841 0 5.561 0 11.123-1.483 16.313h-17.426c-46.716 0-117.16 4.82-117.16 67.849 0 35.222 24.47 54.502 58.951 54.502 27.436 0 44.491-12.235 61.546-33.739h0.742l-5.191 29.29zM3898.103 875.782c0-32.256 40.042-36.334 64.141-36.334h17.426c-7.786 30.773-19.279 56.355-56.355 56.355-12.606 0-25.212-6.674-25.212-20.021v0zM4056.788 927.688h49.682l20.392-96.026c6.303-28.548 18.909-60.804 53.389-60.804 15.943 0 27.065 10.752 27.065 26.695 0 14.089-2.966 27.065-5.561 40.042l-18.538 90.094h49.682l20.021-92.69c2.595-11.864 6.303-27.065 6.303-41.525 0-37.817-24.841-61.175-62.287-61.175-21.504 0-40.413 10.381-54.131 22.987h-0.742l3.337-18.538h-48.569c-0.742 5.932-2.595 15.943-4.82 27.436l-35.222 163.505zM4469.813 649.619l-24.099 109.745c-15.572-17.796-34.481-27.065-58.951-27.065-64.883 0-96.026 63.4-96.026 120.497 0 41.525 20.392 79.342 65.624 79.342 28.919 0 47.457-11.864 62.287-32.627h0.742l-4.82 28.178h46.345c1.112-9.64 4.078-25.953 7.044-42.266l51.535-235.802h-49.682zM4394.92 770.857c25.212 0 35.964 22.987 35.964 45.233 0 35.222-21.504 77.489-57.838 77.489-24.47 0-30.402-25.953-30.402-45.233 0-28.548 16.684-77.489 52.277-77.489v0z"></path>
	<path class="path2" fill="#007AC2" d="M3337.615 10.848h1183.236v478.204h-1183.236v-478.204z"></path>
	<path class="path3" fill="white" d="M3453.317 57.001h128.655l78.983 266.909h1.101l54.115-266.909h97.204l-81.723 384.935h-128.129l-80.622-266.371h-1.126l-53.552 266.371h-97.192l82.287-384.935z"></path>
	<path class="path4" fill="white" d="M3851.408 57.001h103.287l-30.387 147.245h122.072l30.362-147.245h103.274l-80.084 384.935h-103.287l34.254-164.892h-122.047l-34.241 164.892h-103.262l80.059-384.935z"></path>
	<path class="path5" fill="white" d="M4451.693 144.133c-19.886-9.373-46.944-17.646-85.040-17.646-40.899 0-74.002 6.061-74.002 36.943 0 54.589 149.668 34.193 149.668 151.095 0 106.454-98.856 134.023-188.339 134.023-39.748 0-85.603-9.373-119.294-19.858l24.317-78.309c20.425 13.235 61.311 22.058 94.977 22.058 32.039 0 82.299-6.074 82.299-45.766 0-61.775-149.668-38.605-149.668-147.245 0-99.267 87.242-129.049 171.744-129.049 47.495 0 92.223 4.962 118.192 17.109l-24.855 76.647z"></path>
</symbol>
<symbol id="_rightArrow" viewBox="0 0 1024 1024">
	<title>arrow-forward</title>
	<path class="path1" d="M512 170.667l-60.373 60.373 238.293 238.293h-519.253v85.333h519.253l-238.293 238.293 60.373 60.373 341.333-341.333z"></path>
</symbol>
<symbol id="_search" viewBox="0 0 1024 1024">
	<title>search</title>
	<path class="path1" d="M426.667 42.667q78 0 149.167 30.5t122.5 81.833 81.833 122.5 30.5 149.167q0 67-21.833 128.333t-62.167 111.333l242.333 242q12.333 12.333 12.333 30.333 0 18.333-12.167 30.5t-30.5 12.167q-18 0-30.333-12.333l-242-242.333q-50 40.333-111.333 62.167t-128.333 21.833q-78 0-149.167-30.5t-122.5-81.833-81.833-122.5-30.5-149.167 30.5-149.167 81.833-122.5 122.5-81.833 149.167-30.5zM426.667 128q-60.667 0-116 23.667t-95.333 63.667-63.667 95.333-23.667 116 23.667 116 63.667 95.333 95.333 63.667 116 23.667 116-23.667 95.333-63.667 63.667-95.333 23.667-116-23.667-116-63.667-95.333-95.333-63.667-116-23.667z"></path>
</symbol>
    
<symbol id="_bracketDetail" viewBox="0 0 2880 1024">
	<title>bracketDetail</title>
	<path class="path1" d="M0 0c802.025 0 1242.549 146.006 1434.661 1022.042 225.883-876.036 666.505-1022.042 1468.578-1022.042h-2903.239z"></path>
</symbol>
<symbol id="_file-download" viewBox="0 0 1024 1024">
	<title>file-download</title>
	<path class="path1" d="M810.667 384h-170.667v-256h-256v256h-170.667l298.667 298.667 298.667-298.667zM213.333 768v85.333h597.333v-85.333h-597.333z"></path>
</symbol>
<symbol id="_close" viewBox="0 0 1024 1024">
	<title>close</title>
	<path class="path1" d="M810.667 273.707l-60.373-60.373-238.293 238.293-238.293-238.293-60.373 60.373 238.293 238.293-238.293 238.293 60.373 60.373 238.293-238.293 238.293 238.293 60.373-60.373-238.293-238.293z"></path>
</symbol>
<symbol id="_event-note" viewBox="0 0 1024 1024">
	<title>event-note</title>
	<path class="path1" d="M725.333 426.667h-426.667v85.333h426.667v-85.333zM810.667 128h-42.667v-85.333h-85.333v85.333h-341.333v-85.333h-85.333v85.333h-42.667c-47.147 0-84.907 38.187-84.907 85.333l-0.427 597.333c0 47.147 38.187 85.333 85.333 85.333h597.333c47.147 0 85.333-38.187 85.333-85.333v-597.333c0-47.147-38.187-85.333-85.333-85.333zM810.667 810.667h-597.333v-469.333h597.333v469.333zM597.333 597.333h-298.667v85.333h298.667v-85.333z"></path>
</symbol>
<symbol id="_arrow-down" viewBox="0 0 1024 1024">
	<title>keyboard-arrow-down</title>
	<path class="path1" d="M316.373 350.293l195.627 195.627 195.627-195.627 60.373 60.373-256 256-256-256z"></path>
</symbol>
    
    
</defs>
</svg>
