<svg display="none" width="0" height="0" version="1.1" xmlns="http://www.w3.org/2000/svg" xmlns:xlink="http://www.w3.org/1999/xlink">
<defs>
<symbol id="_HEE" viewBox="0 0 4537 1024">
	<title>HEE</title>
	<path fill="#222" class="path1" d="M1.801 927.688h51.906l23.729-113.452h104.554l-23.729 113.452h51.906l54.131-258.79h-51.906l-21.875 104.554h-104.554l21.875-104.554h-51.906l-54.131 258.79zM451.902 847.604c2.966-14.089 4.82-28.178 4.82-42.637 0-48.569-31.144-72.669-78.23-72.669-62.658 0-108.632 57.097-108.632 116.418 0 56.726 37.076 83.421 91.948 83.421 20.392 0 41.525-4.82 60.804-10.752l6.303-39.3c-18.538 8.527-38.188 13.718-58.58 13.718-34.11 0-53.018-12.977-53.018-48.199h134.585zM323.99 813.494c9.64-26.324 22.987-44.862 53.76-44.862 20.762 0 31.514 11.494 31.514 31.885 0 4.449-0.371 8.527-1.112 12.977h-84.162zM587.97 927.688h41.896c4.449-35.964 23.358-110.857 23.358-136.439 0-44.862-35.964-58.951-74.152-58.951-22.246 0-43.75 4.078-64.883 11.494l-7.044 39.671c19.65-9.269 40.783-14.83 62.658-14.83 17.426 0 38.188 5.561 38.188 24.841 0 5.561 0 11.123-1.483 16.313h-17.426c-46.716 0-117.16 4.82-117.16 67.849 0 35.222 24.47 54.502 58.951 54.502 27.436 0 44.491-12.235 61.546-33.739h0.742l-5.191 29.29zM519.38 875.782c0-32.256 40.042-36.334 64.141-36.334h17.426c-7.786 30.773-19.279 56.355-56.355 56.355-12.606 0-25.212-6.674-25.212-20.021v0zM678.065 927.688h49.682l58.951-278.069h-49.682l-58.951 278.069zM793 773.082h35.964l-14.089 64.512c-3.337 15.201-6.303 29.661-6.303 44.491 0 36.705 23.729 50.052 57.468 50.052 8.527 0 18.167-2.595 26.695-4.449l8.527-38.559c-6.303 2.595-15.201 4.449-24.099 4.449-11.123 0-18.909-7.044-18.909-18.538 0-7.415 1.112-14.089 2.225-18.538l18.167-83.421h44.491l7.786-36.334h-44.491l12.235-56.726-53.389 17.426-8.527 39.3h-35.964l-7.786 36.334zM925.361 927.688h49.682l20.392-96.026c6.303-28.548 18.909-60.804 53.389-60.804 15.943 0 27.065 10.752 27.065 26.695 0 14.089-2.966 27.065-5.561 40.042l-18.538 90.094h49.682l20.021-92.69c2.595-11.864 6.303-27.065 6.303-41.525 0-37.817-24.841-61.175-62.287-61.175-21.504 0-40.413 10.381-54.131 22.987h-0.742l23.729-105.666h-49.682l-59.321 278.069zM1258.673 927.688h154.236l8.898-40.783h-102.329l15.201-72.669h90.836l8.157-40.783h-90.465l13.347-63.77h101.217l7.786-40.783h-152.382l-54.502 258.79zM1647.598 649.619l-24.099 109.745c-15.572-17.796-34.481-27.065-58.951-27.065-64.883 0-96.026 63.4-96.026 120.497 0 41.525 20.392 79.342 65.624 79.342 28.919 0 47.457-11.864 62.287-32.627h0.742l-4.82 28.178h46.345c1.112-9.64 4.078-25.953 7.044-42.266l51.535-235.802h-49.682zM1572.705 770.857c25.212 0 35.964 22.987 35.964 45.233 0 35.222-21.504 77.489-57.838 77.489-24.47 0-30.402-25.953-30.402-45.233 0-28.548 16.684-77.489 52.277-77.489v0zM1902.31 736.747h-49.682l-20.392 96.026c-6.303 28.548-18.909 60.804-53.389 60.804-15.943 0-27.065-10.752-27.065-26.695 0-14.089 2.966-27.065 5.561-40.042l18.538-90.094h-49.682l-20.021 92.69c-2.595 11.864-6.303 27.065-6.303 41.525 0 37.817 24.841 61.175 62.287 61.175 21.504 0 40.413-10.381 54.131-22.987h0.742l-3.337 18.538h48.569c0.742-5.932 2.595-15.943 4.82-27.436l35.222-163.505zM2083.981 739.714c-13.347-4.078-31.144-7.415-49.682-7.415-68.59 0-112.711 50.794-112.711 117.53 0 49.311 31.885 82.308 81.196 82.308 16.313 0 32.627-1.483 47.828-8.898l5.561-39.3c-12.977 6.303-28.178 9.64-40.413 9.64-34.11 0-42.266-24.841-42.266-49.682 0-35.964 22.246-73.039 61.917-73.039 13.718 0 26.695 3.337 36.334 9.64l12.235-40.783zM2194.838 927.688h41.896c4.449-35.964 23.358-110.857 23.358-136.439 0-44.862-35.964-58.951-74.152-58.951-22.246 0-43.75 4.078-64.883 11.494l-7.044 39.671c19.65-9.269 40.783-14.83 62.658-14.83 17.426 0 38.188 5.561 38.188 24.841 0 5.561 0 11.123-1.483 16.313h-17.426c-46.716 0-117.16 4.82-117.16 67.849 0 35.222 24.47 54.502 58.951 54.502 27.436 0 44.491-12.235 61.546-33.739h0.742l-5.191 29.29zM2126.248 875.782c0-32.256 40.042-36.334 64.141-36.334h17.426c-7.786 30.773-19.279 56.355-56.355 56.355-12.606 0-25.212-6.674-25.212-20.021v0zM2296.797 773.082h35.964l-14.089 64.512c-3.337 15.201-6.303 29.661-6.303 44.491 0 36.705 23.729 50.052 57.468 50.052 8.527 0 18.167-2.595 26.695-4.449l8.527-38.559c-6.303 2.595-15.201 4.449-24.099 4.449-11.123 0-18.909-7.044-18.909-18.538 0-7.415 1.112-14.089 2.225-18.538l18.167-83.421h44.491l7.786-36.334h-44.491l12.235-56.726-53.389 17.426-8.527 39.3h-35.964l-7.786 36.334zM2429.158 927.688h49.682l40.783-190.941h-49.682l-40.783 190.941zM2477.727 701.896h49.682l10.381-47.457h-49.682l-10.381 47.457zM2630.479 893.578c-28.548 0-38.93-19.65-38.93-44.862 0-34.481 19.65-77.859 58.951-77.859 29.29 0 37.817 20.762 37.817 45.603 0 32.627-19.279 77.118-57.838 77.118v0zM2652.725 732.298c-64.141 0-113.081 48.94-113.081 112.711 0 53.76 32.627 87.128 86.758 87.128 67.478 0 113.823-48.94 113.823-116.047 0-52.648-35.964-83.791-87.499-83.791v0zM2758.762 927.688h49.682l20.392-96.026c6.303-28.548 18.909-60.804 53.389-60.804 15.943 0 27.065 10.752 27.065 26.695 0 14.089-2.966 27.065-5.561 40.042l-18.538 90.094h49.682l20.021-92.69c2.595-11.864 6.303-27.065 6.303-41.525 0-37.817-24.841-61.175-62.287-61.175-21.504 0-40.413 10.381-54.131 22.987h-0.742l3.337-18.538h-48.569c-0.742 5.932-2.595 15.943-4.82 27.436l-35.222 163.505zM3092.074 927.688h154.236l8.898-40.783h-102.329l15.201-72.669h90.836l8.157-40.783h-90.465l13.347-63.77h101.217l7.786-40.783h-152.382l-54.502 258.79zM3294.508 927.688h49.682l20.392-96.026c6.303-28.548 18.909-60.804 53.389-60.804 15.943 0 27.065 10.752 27.065 26.695 0 14.089-2.966 27.065-5.561 40.042l-18.538 90.094h49.682l20.021-92.69c2.595-11.864 6.303-27.065 6.303-41.525 0-37.817-24.841-61.175-62.287-61.175-21.504 0-40.413 10.381-54.131 22.987h-0.742l3.337-18.538h-48.569c-0.742 5.932-2.595 15.943-4.82 27.436l-35.222 163.505zM3515.11 997.020c24.47 9.269 50.423 12.977 76.376 12.977 69.703 0 96.768-40.783 109.003-103.071l30.402-143.484c2.595-12.235 4.82-21.504 6.303-26.695h-47.828l-5.561 27.807c-11.864-20.021-32.998-32.256-58.209-32.256-61.917 0-96.768 57.468-96.768 114.564 0 41.896 20.021 80.825 66.366 80.825 27.436 0 51.535-13.347 64.141-36.334h0.742c-11.864 43.379-19.65 80.084-72.298 80.084-21.504 0-40.413-6.674-60.063-14.83l-12.606 40.413zM3668.233 810.899c0 36.334-16.313 78.23-55.985 78.23-22.246 0-31.514-19.65-31.514-42.637 0-28.548 15.572-75.635 51.535-75.635 22.987 0 35.964 17.796 35.964 40.042v0zM3747.575 927.688h49.682l58.951-278.069h-49.682l-58.951 278.069zM3966.694 927.688h41.896c4.449-35.964 23.358-110.857 23.358-136.439 0-44.862-35.964-58.951-74.152-58.951-22.246 0-43.75 4.078-64.883 11.494l-7.044 39.671c19.65-9.269 40.783-14.83 62.658-14.83 17.426 0 38.188 5.561 38.188 24.841 0 5.561 0 11.123-1.483 16.313h-17.426c-46.716 0-117.16 4.82-117.16 67.849 0 35.222 24.47 54.502 58.951 54.502 27.436 0 44.491-12.235 61.546-33.739h0.742l-5.191 29.29zM3898.103 875.782c0-32.256 40.042-36.334 64.141-36.334h17.426c-7.786 30.773-19.279 56.355-56.355 56.355-12.606 0-25.212-6.674-25.212-20.021v0zM4056.788 927.688h49.682l20.392-96.026c6.303-28.548 18.909-60.804 53.389-60.804 15.943 0 27.065 10.752 27.065 26.695 0 14.089-2.966 27.065-5.561 40.042l-18.538 90.094h49.682l20.021-92.69c2.595-11.864 6.303-27.065 6.303-41.525 0-37.817-24.841-61.175-62.287-61.175-21.504 0-40.413 10.381-54.131 22.987h-0.742l3.337-18.538h-48.569c-0.742 5.932-2.595 15.943-4.82 27.436l-35.222 163.505zM4469.813 649.619l-24.099 109.745c-15.572-17.796-34.481-27.065-58.951-27.065-64.883 0-96.026 63.4-96.026 120.497 0 41.525 20.392 79.342 65.624 79.342 28.919 0 47.457-11.864 62.287-32.627h0.742l-4.82 28.178h46.345c1.112-9.64 4.078-25.953 7.044-42.266l51.535-235.802h-49.682zM4394.92 770.857c25.212 0 35.964 22.987 35.964 45.233 0 35.222-21.504 77.489-57.838 77.489-24.47 0-30.402-25.953-30.402-45.233 0-28.548 16.684-77.489 52.277-77.489v0z"></path>
	<path fill="#007AC2" class="path2" d="M3337.615 10.848h1183.236v478.204h-1183.236v-478.204z"></path>
	<path fill="white" class="path3" d="M3453.317 57.001h128.655l78.983 266.909h1.101l54.115-266.909h97.204l-81.723 384.935h-128.129l-80.622-266.371h-1.126l-53.552 266.371h-97.192l82.287-384.935z"></path>
	<path fill="white" class="path4" d="M3851.408 57.001h103.287l-30.387 147.245h122.072l30.362-147.245h103.274l-80.084 384.935h-103.287l34.254-164.892h-122.047l-34.241 164.892h-103.262l80.059-384.935z"></path>
	<path fill="white" class="path5" d="M4451.693 144.133c-19.886-9.373-46.944-17.646-85.040-17.646-40.899 0-74.002 6.061-74.002 36.943 0 54.589 149.668 34.193 149.668 151.095 0 106.454-98.856 134.023-188.339 134.023-39.748 0-85.603-9.373-119.294-19.858l24.317-78.309c20.425 13.235 61.311 22.058 94.977 22.058 32.039 0 82.299-6.074 82.299-45.766 0-61.775-149.668-38.605-149.668-147.245 0-99.267 87.242-129.049 171.744-129.049 47.495 0 92.223 4.962 118.192 17.109l-24.855 76.647z"></path>
</symbol>
<symbol id="_englandShape" viewBox="0 0 568 1024" fill="#E28C05">
	<title>englandShape</title>
	<path class="path1" d="M476.832 861.607c1.072 0.072 2.488-2.119 3.526-1.933 1.042 0.187 3.599-1.189 3.45-0.629 1.080 0.591 2.523-0.484 1.557-1.597-0.962-1.117-3.114-0.82-3.488-1.155-0.37-0.332-1.446-0.74-1.927-0.553-1.782-0.335-3.939-0.896-4.194-0.598-1.523-0.072-1.82-0.408-2.080-0.297-0.26 0.114-4.416-0.404-4.53 0.149-1 2.638-5.53 4.308-5.305 3.904 0.225-0.412 2.076-1.449 2.336-1.895 0.263-0.45-0.592-3.458 1.263-3.9 1.859-0.446 4.641-0.111 5.122-0.408 2.378-0.896 1.706-0.263 3.343-0.747 1.633-0.48 3.378-0.591 3.229-1.075s-4.935-1.818-3.152-1.746c1.778 0.076 2.706 0.374 3.633 0.076 0.931-0.297 1-0.114 2.412-0.038s3.011 1.006 4.122 1.006c1.114 0 1.893-0.118 2.378 0.179 1.63 0.152 4.377-2.261 5.641-2.931 1.259-0.667 4.603-2.859 5.713-4.384 1.114-1.521 1.82-2.634 1.042-2.485s-2.374 0.557-2.935 0.557c-0.553 0-1.893-0.221-2.004 0.335-0.595-1.487 1.786-1.338 2.599-1.712 0.817-0.366 1.668-4.003 1.817-5.039 0.37-3.107 1.183-8.802-1.336-8.066-2.519 0.74-3.824 3.865-4.896 3.305-1.076-0.557-3.343-0.82-4.011-0.038-0.664 0.781-1.965 2.158-2.004 2.524-1.446-1.41-4.603-2.783-4.229-3.076 1.557-1.117 2.446-0.743 3.225-1.079s1.191-1.487 2.156-1.227c0.966 0.263 3.412 0.854 4.862 0.187 1.446-0.671 1.859-1.521 1.523-1.856 0.664-2.264 1.374-3.785 1.855-3.785 1.187-0.968 0.592-1.525 1.485-1.559 0.889-0.038 3.118-0.187 2.633-0.671 0.485-3.233-0.332-3.9-0.332-3.9s1.336 0.076 1.82 0.816c1 2.524 0.927 4.38 1.706 4.269s2.858-0.259 2.671 0.149c-0.298 2.604-1.187 2.897-0.405 3.309 0.775 0.408 5.9-0.705 6.492-1.041 0.595-0.335 2.416-1.708 3.118-1.818 0.706-0.114 5.232-4.273 5.644-5.425 0.405-1.151 1.149-2.897 0.817-2.748-1.595 0.892-2.897 1.079-2.526 0.633-1.927 0.149-4.122-1.525-3.377-1.784 0.74-0.259 2.931-0.221 2.931-0.522 0-0.294 0.149-2.039 1.34-3.225 1.183-1.189 2.599-2.306 1.744-2.23-0.855 0.072-1.45 0.595-1.672 0.149-2.191 0-5.602 0.187-5.904-0.187-1.263-0.259-2.004 0.671-3.969 0.111-1.969-0.553-3.118-0.85-3.156-0.629-1.187-0.446-2.523-1.189-3.042-1.151 0.149-0.374 1.965-0.263 2.446 0 1.675-0.076 1.824-0.301 2.191-0.152 0.374 0.152 1.633 0.709 2.561 0.301 0.927-0.412 2.969-1.563 3.007-1.262 0.038 0.297 1.301 1.113 2.007 1.037 1.557 0.187 2.484-1.372 3.156-0.854-0.744-2.451-1.34-3.042-1.561-2.97-1.557-0.557-1.82-0.93-2.191-1.003-0.37-0.076-1.927-0.892-2.191-1.708 0.706-1.003 1.446-0.484 2.118-0.187 1.485 0.854 2.263 0.518 2.816 1.338 0.561 0.816 1.527-0.111 2.118 0.74 0.595 0.858 1.076 3.976 1.557 4.052 2.339 2.413 1.931 3.747 2.305 3.046 0.366-0.709 1-1.86 2.004-2.565s2.599-2.375 2.45-3.008c-0.153-0.629-1.374-1.449-1.633-1.784 1.782 0.968 1.481 1.708 2.149 1.41 0.672-0.294 1.897-1.109 1.931-1.742 1.042-2.341 2.267-5.417 5.305-6.526s5.114-1.925 5.263-3.107c0.813-3.701 0.519-6.957 1.259-7.845s1.408-2.074 1.408-3.255c0-1.186-0.076-8.219 0.813-9.77s3.038-3.625 3.038-4.216c0-0.595 0.298-1.776 0.966-2.668 0.668-0.884 1.553-2.588 1.626-4.216 0.076-1.628-0.073-5.478 0.519-6.442 0.592-0.961 2.076-2.733 2.519-3.549 0.447-0.816-2-7.472-1.927-9.103 0.076-1.628 0.447-6.141-0.294-10.064s-2.149-8.070-2.744-9.324c-0.592-1.258-13.777-11.691-15.040-13.098-1.256-1.407-7.037-7.327-10.373-8.066-3.332-0.743-9.854-1.41-11.705-2.001s-7.629-2.661-8.22-2.444c-0.595 0.225 0.664 0.961-2.671 0.961s-3.366-0.987-3.66-0.503c-1.416-0.038-3.568-1.597-3.824-1.079-1.042 0.892-1.45-0.072-1.897 0.076s-1.298 1.151-1.668 0.964c-0.374-0.187-1.935-0.743-2.488-0.484-0.557 0.259-3.641 1.003-4.568 0.633-0.927-0.374-1.481 0.335-1.778 0.038-0.301-0.297-0.855-1.376-1.561-1.338-1.408 0.74-2.446 1.113-2.744 0.926-1.408-0.294-2.45 0.114-2.858-0.072-1.561-0.221-4.938 1.708-5.309 2.672-0.374 0.968-0.298 3.492-1.042 4.94-0.74 1.449-2.004 3.118-2.114 3.789-1.042 2.6-3.526 4.529-3.931 5.234-0.412 0.709-0.45 3.827-0.263 4.494-0.634-0.076-2.339-2.935-3.45-3.419-1.114-0.48-2.752-0.187-3.232 0.038-1.855 0.259-2.782-0.48-3.301-0.629-1.599-1.003-3.603-5.943-3.897-6.24-0.301-0.297-1.153-0.038-1.672-0.671-0.523-0.629-0.966-1.593-3.007-1.666-2.042-0.076-2.080-0.446-2.935-0.412-0.851 0.038-3.003 0.743-3.599 1.189 0.782-1.487 1.301-2.005 1.301-2.524 0.519-1.597 2.297-1.452 2.82-2.081 1.259-2.748 4.961-8.684 7.629-11.127s3.927-2.958 4.003-3.328c0.073-0.374 0-0.225 1.778-1.925 1.775-1.7 2.37-2.516 3.11-2.367 0.74 0.145 1.851 0.518 2.149-0.149s-0.519-3.332-0.076-4.067c0.519-3.183 0.149-12.511-1.332-15.176-1.481-2.661-2.74-4.067-2.74-5.325s-2.152-5.108-2.744-6.069c-0.592-0.964 0.073-2.299-0.74-3.111s-1.683-1.349-1.538-1.868c-0.889-1.784-1.962-1.933-1.893-2.451-1.149-3.416-2.038-4.494-2.633-4.494-0.855-0.446-1.004-1.3-1.523-1.224-1.076 0.072-1.595-0.412-1.817-0.149-0.927-0.45-1.859-0.892-1.71-1.414-0.481-0.999-3.007-1.037-3.229-1.521-0.481-1.933-4.862-6.538-4.935-6.126-1.744 0.259-2.378 0.149-2.526-0.114-0.145-0.259-3.488-3.934-4.561-4.639-1.080-0.705-1.599-1.262-1.786-1.151-1.374-1.856-3.305-3.381-3.675-4.197-0.37-0.82-1.446-1.895-1.557-2.634-0.114-0.743-1.485-2.825-1.897-2.752-0.405 0.076-6.194 0.82-6.938 1.193-0.74 0.37-1.038 0.442-1.855 0.37s-3.084-0.297-3.416 0c-0.336 0.294-1.855 1.856-2.748 1.78-0.889-0.072-3.969-1.224-5.305-2.562-1.34-1.334-1.080-1.224-1.935-0.999-0.851 0.217-4.377 1.67-4.492 1.891-0.107 0.221 1.080-2.859 2.752-3.488 1.672-0.633 2.931-0.896 4.007-0.038 1.076 0.85 1.557 2.15 2.897 1.853 1.332-0.294 3.824-1.559 4.713-1.186 0.889 0.37 2.114 0.854 2.748 0.557 0.63-0.297 0.74-0.743 1.63-0.781 0.893-0.038 1.153 0.187 2.046-0.187 0.889-0.366 3.45-2.001 4.080-2.112 1.301-0.522 1.523-0.747 2.118-0.301 0.592 0.45 0.817-0.663 1.965 0.56s1.446 2.001 1.969 2.97c0.519 0.964 1.557 1.262 4.042 4.346 2.492 3.080 3.862 4.231 4.603 4.529 0.744 0.297 1.263 0.076 2.080 0.629 0.817 0.56 0.893-0.366 3.156-1.147s3.935-1.487 5.049-0.964c1.114 0.515 5.122 3.374 5.824 4.231 0 2.264-2.297 4.978-1.485 4.38 0.817-0.591 2.599-2.745 2.599-3.305 0-0.553-0.702-4.605-5.938-11.92-5.232-7.315-5.415-7.052-6.011-7.574-0.595-0.518-9.575-14.406-9.575-15.153 0-0.74-4.305-13.475-2.935-16.224 1.374-2.748 2.118-5.013 3.675-5.646 1.561-0.629 4.862-0.374 5.083-1.075 0.221-0.709-0.37-1.342-1.672-2.081-1.294-0.74-5.747-3.194-6.602-3.233s-4.232-1.075-4.866-3.194c-0.626-2.112-0.702-3.008-0.37-3.301-1.996-1.464-3.221-2.802-3.668-2.802-1.988-0.412-2.248-0.591-2.168-1.003-0.801-1.67-2.248-2.916-2.046-3.362-0.946-2.745-0.58-3.305-0.805-3.416-0.557-1.822-0.519-2.829-0.74-3.046-1.187-2.417-1.561-2.154-1.817-2.897-0.931-3.381-1.969-5.348-2.492-5.386-0.519-0.038-1.446-0.187-2.374-1.338-0.447-2.409 0.187-2.558-0.111-3.191-0.298-0.629-2.080-1.227-2.45-2.154-1-1.784-2.633-3.267-3.523-3.156-0.897 0.111-1.378 0.374-1.786 0.038s-1.076-0.968-1.557-1.224c-1.298-2.081-3.305-3.827-3.641-3.492-2.374 0.332-2.374 0.183-2.297-0.225-0.485-1.075-1.153-1.521-1.34-1.784-1.038-0.591-2.561-0.404-2.969-0.926s-1.672-1.521-2.301-1.41c-0.63 0.111-2.374 0.149-2.931-0.149s-2.187-1.784-2.599-1.784c-0.408 0-1.557 0.82-1.931 0.56-0.37-0.263-3.637-1.231-4.339-2.047-0.706-0.812-2.378-2.188-2.748-2.188-0.374 0-1.225 0.145-1.706-0.038-0.485-0.183-2.336-1.113-2.504-1.521-0.798 0.82-1.412 2.081-1.431 2.417-0.985 1.891-2.526 4.338-3.198 4.414-0.664 0.076-2.633-0.297-1.962-0.404 0.668-0.118 1.408-0.785 2.114-1.418 0.706-0.629 2.488-2.672 1.893-3.042s-2.969 0-2.301-0.629c0.668-0.637 0.706-1.563 1.446-1.86 0.855-1.67-1.149-3.751-1.114-4.342 0.447-2.119 1.855-2.119 1.076-2.6-0.779-0.484-3.973-2.714-4.751-3.602-1.149-1.933-0.851-2.081-1.298-2.451-0.447-0.374-2.114-1.708-2.416-2.527-0.294-0.816-0.332-4.083-0.63-4.75-0.515-2.005-0.63-2.527-0.927-3.156-0.294-0.633-1.259-1.3-1.259-2.455-0.298-2.821-0.893-3.823-0.744-4.269-0.744-1.895-0.256-2.859-0.294-3.381 0.069-2.001 1.183-2.672 0.851-3.412-0.336-0.743-3.416-4.418-3.935-4.94-1.557-0.038-1.817 0.74-2.080 0.781-0.592-1.338 0.595-2.302 1.004-2.379-0.149-2.264 0.073-2.524-0.408-3.084-0.485-0.557-1.71-0.961-1.71-1.708-0.817-2.821-3.378-6.202-2.446-6.644 0.927-0.446 1.591 0.297 2.004 0.591-0.523-1.037-2.897-3.56-3.416-4.677-1.744-1.746-6.232-2.375-4.488-2.451 1.744-0.072 4.118 0.484 4.19 0.149 0.779-2.264 1.45-2.97 0.931-3.53-0.519-0.553-1.301-1.109-1.416-2.001-0.592-2.451-3.496-5.695-2.381-8.581 1.111-2.886 1.706-3.183 1.038-4.067-0.668-0.892-2.030-1.723-2.217-1.689-1-1.449-1.225-1.708-1.225-2.116s-2.114-3.488-1.263-3.675c0.855-0.187 1.561-0.854 1.633-1.262 1.004-2.192 1.042-3.789 0.74-4.048-0.592-2.745-0.443-2.714-0.443-3.827s0.298-3.267 0.038-3.267c-0.26 0-1.744-0.557-1.744-1.262-0.485-2.935-2.149-3.637-1.74-4.327 0.74-2.15-0.706-3.175-0.424-3.412-1.114-1.841-3-4.552-3.477-4.552-1.301-0.595-1.004-1.266-1.71-1.266-1.225 0.522-2.152 1.559-2.446 1.597-0.298 0.038-2.267-1.483-1.675-1.708 0.111-2.787 0.336-4.567 0.111-4.197-0.221 0.374-0.851 2.489-1.408 2.489-0.553 0-2.267-0.964-3.118-2.489-0.855-1.521-2.385-4.342-1.866-4.639 0.519-0.301 3.080 0.149 1.931-0.446-1.153-0.595-6.015-2.081-7.312-4.677-1.298-2.604-1.679-2.916-2.088-2.79-1.244-0.648-1.782-0.999-1.965-0.945 0.592-0.648 1.202 0.335 1.633-0.297-1.633-2.802-2.668-4.586-3.114-5.848-1.37-2.524-1.855-2.188-1.855-3.267s-0.076-2.931-0.519-3.381c-0.447-0.442-2.782 0.892-3.305-1.186-0.519-2.081 0.374-3.122-0.187-3.343-0.553-0.221-2.263 0.82-2.927-0.149-0.672-0.964-2.962-3.008-4.854-1.708s-1.668 0.854-2.523 0.446c-0.855-0.412-3.973-1.487-5.644-2.638-1.668-1.151-1.706-0.74-1.744-1.227-0.485-1.334-2.633-2.299-3.045-2.893-1.443-0.484-1.481-0.297-1.778-0.705-1.225-0.82-1.557-0.671-1.931-1.113-0.37-0.446-2.076-1.189-2.633-0.743-1.187 0.595-2.042-0.149-2.378 0.149-0.332 0.297-1.298 1.151-1.778 0.629 0.592-2.893 1.114-2.787 0.515-3.229-0.592-0.446-1.557-1.266-1.706-1.708-0.149-0.446-0.37-2.341-3.229-2.379s-2.893 0.335-3.229 0.225c-0.336-0.111-1.672-0.446-2.080-0.225-1.221-0.259-3.301-1.075-4.084-0.48-0.779 0.595-1.591 2.748-2.076 2.783-0.481 0.038-1.82 0.374-1.782 1.262-0.817 1.933-1.225 1.525-1.557 1.971 0.073 2.005-1.191 3.862-1.599 4.235-1.633 0.404-3.118 0.221-3.713 0.663-0.592 0.45-2.263 2.23-3.080 2.341s-1.744-0.111-2.225 0.038c-0.485 0.149-0.893 0.633-2.637 0.259-1.744-0.37-3.267-1.67-3.637-2.562s-2.152-1.895-2.748-1.746c-0.592 0.149-2.004 0.671-2.187 0.557-1.931-0.297-2.339 0.149-3.637 0.149-1.561 0.412-2.378 1.003-2.492 0.595-0.664-0.999-1.332-1.113-1.706-1.67-0.37-0.557-0.889-1.971-1.446-1.708-0.557 0.259-1.374 1.708-2.595 1.632-1.229-0.072-1.527-0.85-1.82-0.667-2.007 0.038-6.015-0.297-6.385-0.595-0.374-0.297-2.378-1.037-3.156-1.41s-2.191-0.93-3.114-0.705c-0.935 0.221-3.53 0.557-4.16 0.964s-2.301 2.451-1.969 1.708c0.336-0.743 1.744-2.341 1.633-2.748-1.965-0.816-1.82-0.111-2.599-1.037-1.076-2.23-1.408-3.602-1.893-4.273-0.481-0.667-2.336-2.337-2.82-2.893-1.706-1.189-3.786-0.522-3.637-1.3-0.931-2.451-1.893-2.825-1.111-2.825 0.779 0 1.408 0.446 2.523 0.781 1.111 0.335 1.557 0.149 1.965 0.778 0.408 0.633 1.965 2.748 2.599 3.046 1.298 0.816 2.671 4.159 4.343 4.048 1.668-0.111 2.782-1.3 3.412-0.964 1.229-0.37 1.153-0.743 1.637-0.484 1.485 0.114 1.37-0.149 1.927 0.187 0.557 0.332 1.633 2.116 2.378 2.116 0.74 0 1.817-0.187 2.191 0.149 0.37 0.335 2.816 2.264 4.229 2.23 1.412-0.038 1.485 0 2.046 0.442 1.168 0.949 1.618 1.022 1.668 0.557 1.076-1.986 1.839-1.651 2.454-2.097 0.611-0.446 1.019-0.835 1.649-1.022s2.656-1.952 3.771-2.043c1.114-0.091 2.427-0.259 3.133-0.667 1.969-0.13 3.305 0.019 3.713-0.835s0.519-3.065 0.576-3.77c0.057-0.705 0.588-1.67 1.37-2.039 0.779-0.374 0.889-0.374 1.817-1.117 0.927-0.74 1.225-1.521 1.786-1.597 1.37-1.78 2.671-2.931 3.263-3.229 1.893-1.525 4.156-5.386 6.495-5.123 2.339 0.255 2.561 0.107 4.603 1.555 2.046 1.452 1.897 1.784 3.488 1.376 1.595-0.408 2.786-2.005 5.419-3.046 2.637-1.041 3.194-1.597 4.087-2.154 0.889-0.557 3.488-3.713 4.229-3.934 1.374-0.93 2.561-2.302 2.004-2.341-0.553-0.038-2.523-0.816-3.336-1.746-0.817-0.926-0.855-2.264-1.301-2.264-1.561-0.743-2.007-1.338-2.488-1.338-0.485 0-4.339-0.111-5.602-1.113s-1.278-1.041-1.542-1.025c-1.259-1.967-1.332-0.648-1.855-0.797-0.519-0.145-2.469-1.502-2.767-1.224-0.294 0.278-1.706 1.3-1.912 1.3 1.229-2.527 3.271-2.173 4.458-3.248 1.191-1.079 1.874-5.554 1.687-6.778-1.672-1.227-3.156-0.297-3.675-0.633-0.519-0.332-0.893-1.3-1.523-1.3-0.634 0-3.194-0.111-3.637 0.408-1.599 1.708-2.82 1.784-2.931 2.158-1.114 0.999-3.488 1.224-3.9 1.708-0.408 0.48-3.007 2.821-3.824 2.821s-1.149-0.297-1.706 0.072c-0.557 0.374-3.824 2.081-4.492 2.935s-2.336 1.113-3.007 1.003c-1.931 0.259-3.748 0.111-4.267 0.37-1.191 0.446-1.114-0.145-1.633-0.294-0.523-0.152-0.782-1.338-1.668-1.673-0.897-0.332-1.862-1.003-2.229-0.854-0.114-0.408 0.889-1.041 2.004-0.37 1.111 0.667 3.339 3.046 4.045 2.562s1.263-1.079 2.191-1.041c0.927 0.038 1.263-0.149 1.82-0.332 0.553-0.187 4.564-3.865 4.751-4.346 0.927-1.3 0.779-1.414 1.259-1.933 0.485-0.518 0.821-1.334 1.485-1.521 1.446-0.892 1.595-1.895 2.152-1.895 1.782-0.446 2.378-1.41 2.858-0.93 2.599 0.964 2.931 1.003 4.16 0.633 1.221-0.37 1.519-1.597 3.71-1.708s2.969-0.187 3.565 0.259c1.744-0.518 4.786-2.302 5.419-1.67 1.557 0.816 1.37 0.442 2.225 0.926 0.851 0.484 1.263 1.487 1.782 0.854 0.782-2.71 0.634-3.564 1.893-4.346 1.263-0.778 4.751-2.97 5.347-3.9 0.592-0.926 0.706-2.039 1.633-2.337 1.485-0.743 1.931-0.892 3.042-1.3 1.114-0.408 1.965-1.856 2.267-3.046 0.298-1.186 1.557-2.005 1.927-2.672-0.408-2.116-0.927-2.302-1.038-2.714-0.111-0.404 0.038-3.709 0.855-4.155 0.813-0.446 2.339-0.781 3.080-2.413-0.374-1.597-4.416-1.266-4.713-1.75-0.298-0.48-1.893-1.78-1.374-1.853 1.595-0.595 1.927-0.93 2.412-0.892 0.481 0.038 1.633-0.038 1.969 0.964 1.485 0.854 1.927-1.262 2.336-2.043 0-2.859 0.927-3.118 1.557-3.9 1.931-1.483 2.343-1.41 2.973-1.78s1.301-1.708 1.965-1.895c1.71-0.964 3.156-3.938 3.526-3.972 1.378-2.154 2.191-2.23 2.229-2.417 0.038-0.183 2.561-3.229 2.71-4.456 0.889-2.264 1.187-4.159 1.187-5.752 0-1.597 0.221-2.489-0.145-3.084-0.153-1.929 0.702-2.451 1.038-3.046 1.187-2.154 1.298-1.929 1.37-2.451 1.225-3.080 1.080-2.893 1.298-3.267 0.225-0.374 2.305-2.821 2.343-3.53 1.114-1.853 1.778-4.083 2.706-5.604 0.931-1.525 1.561-2.565 1.485-2.973-1.149-0.778-1.668-0.332-2.225-0.111-0.553 0.225-3.156 0.854-2.152 0 1-0.854 2.595-1.521 2.633-2.226-0.63-1.597-0.294-3.267-0.519-3.416 0.263-1.712 2.725-9.454 4.061-11.745 1.332-2.295 1.851-4.22 1.927-5.108 1.259-1.258 2.37-3.332 4.37-4.738 2.004-1.407 4.446-4.289 4.667-5.325 1.114-2.668 2.668-3.999 2.668-4.59 1.038-1.776 3.557-5.108 3.187-5.55-1.183-1.628-0.523-2.295-0.966-2.592-1.259-2.588-1.328-2.813-1.328-3.404s0.294-3.774-0.301-4.735c-0.592-0.964-1.626-3.404-1.183-4.517-0.225-2.588-2.744-2.882-3.629-4.735-0.893-1.849-3.038-6.881-3.706-6.366-0.668 0.522-0.817 1.258-1.851 0.888-1.038-0.366-2.076 0-2.225-0.663-0.813-2.074-2.072-1.262-2.965-1.704-0.889-0.442-2-0.442-2.664-0.442-0.668 0-2.439-0.030-2.694 0.152-0.26 0.187-1.301 1.712-1.855 2.081-0.557 0.37-1.782 1.746-2.561 1.372-0.782-0.37-1.191-0.705-1.71-0.629-1.336-0.263-2.076-0.633-2.45-0.408-1.114 0.111-2.786-1.822-3.377-1.784-1.488 1.449-1.225 2.005-1.855 2.226-1.931 0.038-1.782-0.37-2.561-0.034-2.191 1.075-3.9 0.48-4.458 0.892-1.221 0.404-3.71-0.374-4.118-0.187-1.633 0.335-1.744 0.187-1.931 0.187s-1.038 0.072-2.042-0.522c-1.82-0.892-5.16-0.595-5.675-0.892-0.523-0.297-1.191-0.964-1.71-0.816s-1.523 0.446-2.267 0.149c-1.778-0.072-2.633 1.003-2.931 0.518-1.408-1.075-2.484-1.372-2.748-1.708-1 0-2.187 0.149-3.084 0.111-0.885-0.034-1.256-1.746-1.855-1.521-0.592 0.221-2.225 0.854-3.003 0.854-1.744 0.781-2.339 1.673-3.897 2.192-1.561 0.518-1.408 0.557-1.969 1.113-0.553 0.557-2.118 1.521-3.114 1.227-1.004-0.301-10.171-3.309-12.064-4.422-1.897-1.113-4.126-2.558-4.274-2.893-0.145-0.335-2.595-0.484-3.744-0.114-1.153 0.374-6.572 1.41-7.205 1.933-1.817 0.595-3.969 0.297-3.675 0.778 0.298 0.484 1.301 1.967-0.145 3.156-1.45 1.189-3.599 1.971-4.675 1.898-1.080-0.076-3.526-0.892-2.935-0.229 0.592 0.671 2.748 2.306 2.007 3.381-0.744 1.079-1.301 0.335-1.82 0.187-0.523-0.149-1.744 1.041-1.855 0.595 0.63-3.194 1.183-4.456-0.374-4.121-1.557 0.332-3.007 0.221-3.378 1.003-0.37 0.778-0.851 1.296-1.782 1.78-0.927 0.484-4.194 2.897-5.454 3.9-1.263 1.003-6.129 3.69-9.316 2.802-3.183-0.888-5.87-3.545-5.87-3.137s2.191 1.227 1.301 2.043c-0.889 0.816-4.011 0.484-4.232 1.376s0.927-0.484 1.82 1.003c0.889 1.483-0.485 3.339-2.191 4.159-1.706 0.816-1.893 1.521-2.080 2.226-1.557 0.968-2.336 0.297-2.336 0.968 0 0.667-0.374 2.337-0.744 2.859-0.37 0.518-1.336 1.704-1.965 1.41-0.634-0.297-1.782-1.822-2.080-1.673-0.817 0.93-0.927 0.37-1.969 0.518-1.038 0.152-4.305 2.154-4.79 1.414-2.038-0.671-3.523 0.111-4.229-0.374s-1.931-1.559-2.301-1.296c-1.298 0.37 0.595-1.822 1.82-2.268 1.221-0.446 1.519-0.484 2.187 0s0.744 1.079 1.931 0.743c1.191-0.335 3.973-0.522 4.641-0.072 1.744-0.187 5.156-3.419 4.194-3.751-0.966-0.335-3.671-0.484-3.671-0.892 2.668-0.56 3.561 0.038 4.152-0.633 1.561-2.375 2.637-3.862 3.862-3.602 1.225 0.263 2.969 0.93 2.671 0.484s-1.927-1.521-1.149-2.897c0.779-1.372 4.656-6.080 5.915-7.414s2.099-2.165 1.733-2.424c-0.374-0.263-3.232-0.854-4.458 0.111s-3.858 2.043-5.16 2.154c-1.301 0.111-1.893 0.038-1.893-0.484-0.706-1.372-4.049-1.559-4.79-0.964s-5.194 4.269-5.824 5.013c-0.634 0.743-4.011 4.529-4.828 5.386-0.817 0.854-2.633 2.078-2.71 1.742-0.076-0.332 1.855-1.67 1.855-2.447 0.374-2.154 3.416-5.425 4.305-6.538 2.042-1.338 2.675-1.376 2.935-1.895 1.519-2.859 1.706-2.116 2.599-2.562 0.889-0.446 1.336-1.3 2.114-1.483 0.779-0.187 2.523-0.412 3.084 0.034 1.595 0.335 6.828-5.2 7.236-5.2 2.076-0.183 3.897-1.075 4.343-0.259-1.004 2.23-0.74 3.9-0.889 4.159 1.37 0.781 2.336 1.521 2.969 1.003 0.63-0.522 3.114-3.789 3.565-5.161 0.443-1.372 0.553-2.154 0.962-2.524 0.408-0.374 2.599-2.268 4.679-5.051 2.076-2.787 4.045-5.718 4.118-6.721-0.889-1.822-1.595-1.304-2.080-0.518-0.481 0.778-1.034 2.409-1.298 2.634-0.26 0.225-1.374 0.778-2.042 1.334s-2.336 0.225-3.599 0.892c-1.263 0.671-2.267 0.968-2.007 0.335 0.263-0.629 1.561-0.892 1.561-1.487 0-0.591-0.931-2.748-2.225-2.748-1.301 0-5.049 4.125-5.683 4.014-0.63-0.114-3.786-2.897-4.229-2.859-0.447 0.034-2.32-0.972-2.118-0.583-0.088 1.765-1.614 1.376-1.817 0.854-1.298-1.445-1.71-1.315-1.725-1.559-1.187-1.449-3.584-1.727-3.977-1.391-1.706 0.911-2.038 0.743-2.225 0.835-1.057-0.187-1.446-0.633-2.023-0.984-0.572-0.355-3.133-1.856-3.19-2.283 1.038-1.227 1.801-0.427 2.027-0.168 0.218 0.259 1.24 0.13 1.721 0.686 0.485 0.56 1.561 1.654 1.71 1.281 0.836-0.705 2.599-0.351 2.878-0.686 1.053-0.518 2.599-0.351 3.545 0.13 1.5 0.873 2.206 0.149 2.504-0.221 1.298 1.597 1.706 2.524 2.061 2.058 0.351-0.461 2.137-2.039 3.248-2.039 1.114 0 1.668 0 2.408 0.446 1.153 0.442-0.611-2.020 0.912-3.248 1.519-1.224 1.187-1.147 1.298-1.78 0.114-0.633-0.481-2.748-0.779-2.71-0.298 0.034-1.336 0.743-1.633 0.297-2.114-1.041-3.061-1.864-3.229-2.737 0.279-1.43 1.691-0.743 1.912-0.389 1.133 0.168 2.152-0.743 2.378-0.038 1.465-1.578 1.298-1.872 2.038-2.375 0.744-0.503 2.805-1.853 4.103-1.963s1.782 0 2.187-0.446c0.412-0.446 0.519-1.487 1.633-1.967 1.114-0.484 1.71-0.484 1.71-0.93s-0.073-2.524 0.519-3.305c0.595-0.778 2.92-3.484 3.736-3.484 0.813 0 0.443 0.225 3.553-2.219 3.114-2.44 4.667-3.553 5.11-3.553 0.45 0 2.301-2.665 3.633-3.255 1.332-0.595 4-3.404 4.744-3.553 0.74-0.149 2.389-2.611 2.794-3.244 0.592-1.75 0.889-2.413 1.263-2.859 0.37-0.446 1.82-1.822 1.893-2.23 0.893-1.895 1.595-1.856 1.82-2.379 0.221-0.518 1.034-2.672 2.446-3.263 1.412-0.598 4.904-1.746 5.385-2.268 0.481-0.518 0.447-0.705 1.668-0.778 1.225-0.076 1.374-0.149 2.191-0.518 0.817-0.374 3.786-3.679 4.305-4.46 0.523-0.781 1.042-1.372 1.672-1.856 0.634-0.48 1.076-1.151 1.485-1.559s1.672-2.931 1.561-3.267c0.221-2.341 0.073-2.859 0.519-3.492 1.225-3.118 2.523-3.564 2.412-4.121 0.37-3.084 0.408-4.159-0.592-3.564-1.004 0.591-3.713 0.667-4.16-0.297-0.447-0.968-0.779-5.756-0.111-6.164s1.149-0.671 1.965-1.449c0.817-0.781 0.966-2.043 1.080-2.489 1.114-2.005 0.962-2.897 0.702-3.229 0.187-1.041 1.782-1.525 1.931-2.081s-0.668-3.713-0.111-4.048c0.221-1.708-4.156-1.818-5.122-1.262s-2.523 1.224-2.969 0.778c-1.080-2.226-1.633-3.118-2.046-2.783-0.405 0.335-1.294 0.408-1.817 0.816-1.485 0.114-1.595-0.335-2.412-0.221-0.817 0.111-1.855 1.113-2.301 1.186-1.748-0.111-3.377 0.076-3.526-0.332s-0.893-3.156-1.931-2.897c-1.038 0.259-3.042 1.856-2.336 3.377 0.702 1.525 2.408 1.525 2.446 2.043 0.038 0.522 1.782 0.858 1.706 1.635-0.073 0.778-1.557 2.638-1.893 2.451-0.332-0.187-0.74-0.522-1.813-0.633-1.084-0.111-1.412 0.038-1.675-0.48-2.11-0.93-3.824-1.151-4.454-0.484s-1 1.334-1.519 1.41c-0.523 0.072-2.748-0.854-2.416-1.3 0.26-1.818-2.038-1.224-2.858-0.964-0.817 0.259-2.225 0.633-2.855 0.187-0.634-0.446-1.412-1.041-1.744-0.557-0.744 1.559-0.927 0.926-1.782 1.521-0.859 0.595-2.786 1.521-3.084 2.005s-1.187 1.449-1.778 1.891c-1.080 0.747-1.023 1.517-1.465 1.651-2.191-0.858-4.679 0.183-5.309-0.038-0.634-0.225-2.301-0.686-2.488-0.316-0.592 0.945-2.225-0.964-2.729-0.537-1.576 0.111-3.725 0.61-4.118-0.111-0.393-0.724-0.244-4.106-0.889-3.438-0.653 0.671-1.897 3.4-2.286 3.511-1.172 1.064-1.133 2.771-1.542 2.44-0.408-0.335-1.927-1.266-2.191-1.227-1.187-0.221-1.63 0.149-1.817-0.111-1.301-0.038-1.378 1.597-1.744 1.67-1.893 0.37-3.232-0.926-3.419-0.518-0.069 2.672-1.259 1.597-1.408 1.967 0.927 2.787 0.595 3.454 0.263 3.343-1.118-1.784-1.714-2.005-1.859-1.708-0.889-1.967-1.782-2.302-2.595-2.264-0.817 0.038-1.859 0.667-2.229 0.442-0.37-0.221-1.897-0.034-2.080 0.263s-0.927 2.893-1.523 3.156c-0.592 0.259-2.671 1.856-2.71 2.413-0.817 2.264-1.298 2.375-1.298 2.748-0.817 1.559-2.191 3.862-2.378 3.194 0.893-3.122 0.706-3.233 1.080-3.9 0.664-2.005-0.298-2.005 0.702-2.787 1.004-0.778 2.82-2.893 2.561-2.97-1.263-1.151-1-1.635-1-2.562-0.927-1.449-1.859-0.335-1.859-0.82-0.668-1.334-1.744-1.967-2.336-2.489-2.080-0.816-1.71-0.255-2.007-0.518-1.706-0.667-2.412 0.297-2.82-0.149-2.225 0.114-3.267 2.23-2.671 3.084 0.37 2.039-0.447 3.938-0.447 4.159-1.225-0.595-2.191-0.778-2.633 0.076-0.447 0.85-1.114 2.447-0.855 3.046-0.183 0.999-2.45 1.925-2.561 2.188-0.817 1.075-1.744 1.147-1.82 1.708-0.592 1.746-2.782 2.379-2.523 1.822 0.26-0.56 2.71-5.2 3.748-6.686s2.191-3.156 2.191-3.564c0.817-1.487 0.336-2.417-0.481-3.008-0.817-0.595-1.374-0.522-1.893-0.968-0.782-1.037-1.893-0.48-2.042-0.854-0.37-2.707-1.485-3.118-1.633-3.675-0.114 2.192-2.118 2.043-2.118 2.638 0.634 2.562 1.595 2.821 1.153 3.785-0.447 0.964-1.893 4.086-2.114 3.305-0.298-2.043 0.74-2.931 0.592-3.599-0.149-0.671-1.374-1.487-1.374-2.417 0-0.926 0.298-2.341-0.332-3.156s-2.488-2.562-3.526-2.859c-1.038-0.297-1.561 0.111-2.191-0.408-1.595 0.221-1.633 1.003-2.301 0.667s-3.156-2.337-3.526-1.929c-0.37 0.408-0.447 4.567-1.301 6.275-0.851 1.708-2.301 4.308-2.931 4.567-1.744 0.968-3.71 1.895-3.748 2.6s-0.779 3.492-0.408 4.197c0.37 0.705 2.82 0.892 2.82 1.262 1.225 1.189 1.859 1.117 2.301 1.597 2.080 1.262 4.641 2.787 4.232 3.118-2.042 0.187-3.339-1.113-3.786-0.964-1.374 0.187-3.007 0.076-2.637 0.595 0.149 0.926-2.076 1.003-1.374 1.559 0.706 0.557 1.523 1.41 2.229 1.372 0.706-0.034 2.080 0.149 2.599 0.484-0.114 1.189-1.706 0.854-1.45 1.338 0.263 0.48 2.488 1.151 1.893 1.41-1.221 1.521-1.485 1.186-1.817 1.41-0.966-0.225-1.523-0.743-1.969-0.705-1.111-0.484-1.485-1.224-1.744-0.964-0.927-0.484-1.408-1.712-2.038-1.895-0.557 3.118-1.599 5.68-1.488 6.053-0.481 2.264 0.817 3.488 0.557 3.713 1.485 1.3 1.523 1.593 1.301 2.043 0.553 3 0.851 3.057 1 3.652 0.149 0.591 0.927 2.005 2.172 2.562s4.511 0.911 4.824 0.667c0.317-0.24 1.656 0.671 2.156 0.484s1.725 0.13 2.244-0.149c0.519-0.278 1.652-0.076 2.431 0.461-1.485 0.671-5.435 0.316-5.030 0.82 0.412 0.503 3.156 2.939 2.526 2.939-0.634 0-1.485 0.335-2.114-0.187-0.634-0.518-1.672-1.003-1.71-1.559-1.004-0.93-1.672-0.111-2.042-0.335-0.374-0.221-2.412 0.187-2.523-0.294-0.114-0.484-2.118-2.527-2.526-2.302-0.408 0.221-2.080 1.483-2.412 1.41-1.595 0.48-0.111 2.226-0.447 2.893-0.332 0.671-0.779-2.078-1.706-2.116-0.927-0.034-1.633 0.335-1.817 0.038-0.821-0.072-1.523-0.061-1.767 0.015-1.595 0.701-3.21 1.277-3.45 1.78-1.263 1.3-1.614 1.708-1.652 1.281-0.855-1.967-1.836-1.765-2.229-2.135-1.595-1.227-1.874-1.319-1.889-1.616-1.412 1.003-1.095 1.132-1.431 1.487-0.057 1.022 1.042 1.3 1.504 1.876 1.187 1.914 0.759 2.912 1.114 3.061 1.465 0.522 0.721 1.933 1.259 2.341 0.538 0.412 1.599 0.13 1.893 0.579 0.725 1.521 3.248 0.85 3.248 1.128-1.763 1.079-2.504 0.858-2.576 1.338 1.759 0.724 2.523 0.873 3.133 0.503-0.966 2.615-3.416 2.337-3.007 2.691 1.839 0.518 2.565 0.778 2.526 1.3-0.206 2.806-1.263 3.526-1.225 3.881-0.462 2.524-0.912 2.672-1.038 2.931-2.061 0.374-2.267 0.801-2.45 0.374-1.393 0.797-1.58 2.432-1.897 2.043-0.313-0.393-0.313-2.192-1.595-3.717-1.278-1.521-2.969-3.248-3.21-3.042-0.24 0.202-1.282 1.54-1.282 2.116 0.114 2.283 0.744 3.358 1.095 3.473 0.355 0.111 1.691 0.427 1.633 1.003 0.985 2.691 1.393 2.878 1.691 2.748 2.133 0.499 2.484 1.056 2.378 1.502 1.317 2.119 1.278 2.413 1.725 2.748 1.187 1.673 0.946 1.837 1.221 2.062 0.282 0.221 2.378 0.37 2.992 0.984 0.611 0.614 1.5 1.262 2.263 1.559 0.759 0.297 2.32 0.499 2.484 0.724 0.614 1.742-0.851 3.172-1.24 3.339-0.408 0.93 4.194 4.837 4.862 5.577 0.668 0.743 2.152 0.408 2.412 1.563 0.26 1.147 2.301 5.123 1.931 5.604-0.744 0.374-3.526-5.531-3.858-5.646-0.336-0.111-1.301 0.114-1.637-0.294-0.336-0.412-4.862-5.051-5.938-5.425-1.076-0.37-2.301 1.41-3.935 0.854s-3.637-1.41-3.786-2.039c-1.168 0.16-1.393-0.027-1.652-0.267s-2.023-0.484-1.836 0c0.183 0.484 1.282 1.414 1.336 1.727 0.053 0.316 1.725 0.705 2.114 0.633 0.389-0.076 1.431 0.499 1.744 0.907 0.317 0.412 0.817 2.79 1.225 3.088 0.412 0.297 4.049 0.705 4.343 1.376 0.706 1.929 2.191 3.046 1.561 3.046s-6.831-2.23-7.163-2.825c-0.336-0.595-0.893-2.078-1.488-2.672-0.592-0.595-1.851-0.633-2.297-1.155-0.447-0.518-1.859-1.632-2.378-1.483s-1.076 2.375-0.966 2.562c-0.779 2.451-0.298 4.494-0.962 4.494-0.672 0-4.045-1.559-4.679-1.597-1.706-1.151-2.374-4.269-2.374-4.937-1.71-1.266-2.858-2.787-3.752-2.638-0.889 0.149-2.374 3.785-2.263 4.159 0.038 2.634-0.038 4.346 0.37 4.346s2.523 0.667 3.381 1.67c0.851 1.003 0.63 3.9 0.37 4.197-0.37 2.748-1.336 1.708-1.782 1.933 0.405 2.337 1.336 2.893 0.855 3.377-0.485 0.48-3.53-2.565-4.198-3.679-0.37-3.599-2.855-5.531-2.561-6.423 0.485-2.562-1.633-1.525-2.336-1.933-0.706-0.404-0.969-0.854-1.82-0.442-0.855 0.408-0.592 0.85-1.595 0.778s-2.526-0.149-2.229 0.633c0.336 2.6 0.26 2.821 0.668 3.713s0.668 3.789 0.519 4.681c-0.149 3.229 0.485 3.637 0.038 3.747 0.038 1.818 1.485 1.818 1.82 2.341 1.931 1.151 4.454 0.408 5.045 1.376 0.927 1.944 2.004 2.962 1.874 3.614-1.908 0.61-5.4-0.964-5.938-0.797-1.519 1.593-2.32 1.67-2.152 2.024 0.408 1.319-1.13 3.736-1.351 5.333 1.298 0.926 1.481 0.629 2.114 1.075 0.63 0.446 3.152 4.010 3.301 4.532 0.893 2.821 2.969 3.042 3.084 3.785-0.725 1.334 1.408 2.817 1.706 2.707s1.687-0.945 2.004-0.926c1.614-0.019 2.374-0.263 2.748-0.057 0.37 0.206 0.63 0.595 1.706 0.595s3.454 0.614 3.045 1.731c-1.782 1.079-2.561 0.854-2.858 0.964-1.595 0.408-2.82-0.48-3.229 0-1.706 0.892-1.595 0-2.080 0-0.557 1.338 0.26 3.64-0.519 2.897s-2.301-2.375-2.671-2.451c-1.34-0.518-1.859-1.521-2.526-1.78-1.37-0.633-1.298-1.266-1.893-1.597-1.778-0.82-2.858-1.563-3.267-2.192-1.187-1.113-2.595-0.667-2.374 0.072-1.153 1.933-0.855 5.238-1.336 6.015-0.485 0.781-0.634 7.022-0.187 8.284s0.855 1.784 1.485 1.708c0.63-0.072 2.004-0.183 1.82 0.522-0.187 0.705-1.82 1.704-1.374 2.524 0.447 0.816 1.114 2.451 1.485 3.229 0.37 0.781-0.927 2.897 0.447 4.494 1.37 1.597 2.671 1.41 4.381 0.149 1.706-1.262 3.003-3.008 4.080-3.53 1.076-0.518 2.339-1.708 3.267-2.375 1.672 0.854 2.561 1.487 2.042 2.043s-3.786 0.892-3.45 1.372c0.332 0.484 3.374 1.151 3.969 1.635 0.595 0.48 1.965 0.518 2.671-0.225 0.706-0.74 4.084-4.86 4.828-5.68 0.74-0.816 2.152-2.043 2.412-1.262s-1.149 2.043-1.149 2.485c-0.966 2.047-4.496 5.684-5.419 5.832-0.927 0.149-1.893-0.259-2.488 0.297s-2.565 1.521-3.045 1.521c-0.481 0-1.187 0.82-2.114 0.595-0.927-0.221-1.893-0.816-1.817-0.37 0.592 1.151-0.744 1.487-1.412 2.337-1.187 2.451-1.71 5.123-0.668 4.83 1.038-0.297 1.187-1.041 2.038-0.82 1.931-0.294 2.454-0.74 2.862-0.48 1.446 1.67 2.484 0.187 2.893 0.743 2.374-0.263 2.897 0.107 3.565-0.114 1.633 0.82 4.118 4.235 5.755 5.161 1.63 0.93 4.339 1.006 4.007 1.079-0.336 0.072-2.225 3.008-2.599 2.451-0.37-0.557-3.748-3.64-4.454-4.754s-1.374-2.226-2.007-2.192c-0.63 0.038-3.042 1.487-4.561 1.708-1.523 0.225-2.973 0.816-3.305 1.266 0.038 2.596 1.111 2.783 1.149 3.301-0.668 2.192-3.935 4.384-4.007 5.017-0.038 1.78 0.519 3.637 1.668 3.823 1.153 0.187 4.271-0.111 5.011 0.595 1.82 1.67 2.45 1.521 2.603 1.929 1.63 2.268 3.042 3.008 3.599 2.825 0.557-0.187 4.603-1.895 5.641-1.563 1.038 0.335 2.897 1.376 1.82 1.155-1.076-0.225-2.675 0.221-4.641 0.518s-3.675 0.629-3.862 1.113c-0.813 1.003-2.82-0.149-3.523-0.964-0.71-0.816-1.931-2.379-2.488-2.451-0.557-0.076-1.374 0.332-2.042-0.076-1.782-0.442-1.931 0.301-2.671 0.225-0.744-0.076-3.007-0.111-3.229 0.225-0.855 2.447-4.645 5.234-4.828 6.050 0.63 2.787 0.557 4.422 0.706 4.010 1.336-1.967 1.557-2.524 1.595-2.039 1.004 2.413 1.244 2.531 1.29 2.649 0.679-0.621 1.244-1.372 2.015-1.159s2.801 1.029 2.431 1.513c-0.668 1.464 0 3.435 0.572 3.694 0.576 0.259 3.084 1.807 3.79 1.506 0.706-0.294 1.149-0.926 2.076-0.999 0.927-0.076 1.191-0.374 1.893-0.633 0.706-0.259 1.893-1.227 2.118-0.633 0.294 1.487-2.301 1.818-3.973 2.341-1.672 0.518-2.599 1.487-3.752 1.224-1.149-0.259-3.897-1.41-4.416-2.078s-0.668-2.562-2.076-3.084c-1.412-0.518-5.904-0.149-6.347 0.633-0.447 0.778-1.637 4.342-1.374 4.792 1.855 0.705 2.855 0.332 3.561 0.591 0.706 0.263 2.412-0.332 4.454 0.671s4.938 1.559 5.606 1.003c0.668-0.557 0.481-0.968 1.82-0.518 1.336 0.442 1.778 0.667 2.225 0.294 1.633-0.187 1.672 0.225 2.748-0.149 1.076-0.37 3.19-1.67 2.599-1.075-0.595 0.595-2.935 2.783-5.385 2.783s-3.671 0.038-3.897 0.263c-0.221 0.221-3.378 0.518-5.9 0.294-2.526-0.221-4.977-0.705-5.16-0.926-0.187-0.221-1.523-2.562-2.263-2.375-0.744 1.78-1.374 2.005-1.374 2.341-0.408 2.745-0.927 3.153-1.153 3.416-0.221 0.259 2.042 1.186 1.801 1.834-0.244 0.648-1.504 0.945-1.801 0.724-1.32-0.518-1.931 0.24-2.21 0.24-0.592 1.262 1.057 2.398 1.446 2.081 1.469-0.671 2.21-0.671 2.656-0.854 2.248-0.316 2.412-0.446 3.137-0.82 0.721-0.37 0.966-0.389 2.114-0.389 1.153 0 3.881 0.522 3.66 1.006-0.225 0.48-1.931 0.259-2.561 0.778-0.634 0.522-2.862 2.417-1.82 2.417 1.038 0 3.19 1.037 3.748 0.259s1.523-3.229 2.378-2.825c-0.893 3.046-0.408 4.35-1.893 4.757-1.488 0.404-2.782-0.671-3.603-0.152-0.817 0.522-0.851 0.892-1.782 0.968-1.485 1.372-1.595 1.856-2.633 1.037-1.042-0.816-1.71-0.892-1.859-0.294 1.225 2.821 5.457 4.975 6.389 5.123-1.637 0.408-3.454 0.297-3.53 1.003-1.111 1.521-2.152 0.111-1.927 1.41 0.221 1.3 1.298 3.194 0.557 3.377-0.744 0.187-2.118 0.522-2.118-0.183-1.336-1.597-2.114-0.111-2.374-0.816s-2.488-3.381-3.232-3.9c-0.74-0.522-1.072 1.483-2.225 1.483s-5.049 1.113-6.682 0.709c-1.633-0.412-3.786-0.187-4.305 0.149-1.374 0.926-2.671 0.854-2.671 1.262-0.149 1.372-2.339 3.194-2.042 4.491 0.298 1.3 3.156 4.269 5.011 3.53 1.855-0.743 1.782-1.414 2.523-1.155 1.71 0.042 3.156-0.518 3.713 0.042 0.553 0.557 1.038 1.742 1.744 1.704 0.706-0.034 3.229-0.442 3.267-0.183 1 0.259 2.561-1.41 3.118-0.781 1.931 1.414 3.637 1.487 4.194 1.003 1.336 0.111 1.37 0.557 2.152 0.412 0.779-0.149 4.084-3.271 4.118-3.789 1.042-0.781 2.748-1.189 3.568-0.633 0.813 0.557 2.408 2.302 3.152 2.562 1.412 0.671 1.187 0.709 2.229 0.595 1.038-0.111 1.481-0.629 2.633-0.557 1.149 0.076 1.672-0.743 2.378-0.259 0.702 0.484 2.969 0.964 2.561 1.189-0.408 0.221-4.679 0.221-4.79 0.442-0.111 0.225-1.038 0.595-2.897 0.595-1.855 0-1.706-0.408-2.71-0.518-1.965-1.224-2.858-2.485-3.671-2.451-0.821 0.038-5.385 4.159-6.053 4.346s-2.004 0.259-2.263 0.705c2.004 2.302 3.080 3.377 3.042 4.083-0.889 0.149-2.042-0.778-3.118-1.037-1.855-1.3-2.484-2.23-2.931-2.192-1.595 0.221-2.45 0.149-3.267 0.149-2.561 0.335-2.71 0.37-2.893 0.743-0.187 0.37-0.153 2.821 0.073 3.080 1.446 1.452 3.748 5.573 5.011 6.759 1.263 1.189 2.339 1.151 3.080 1.708 0.744 0.557 2.412 0 2.969 0.633 0.557 0.629 3.378 1.559 3.637 1.189 0.26-0.374 0.412-2.302 1.599-2.863-0.782 3.084-0.447 4.048-0.26 4.498 1.63-0.187 1.408 0.183 2.446 0.557 1.042 0.37 2.267-0.335 2.301 0.408 1.672 1.113 5.866-1.151 6.389-1.895 2.152-1.895 2.744-2.71 2.893-3.267 1.076-1.673 1.893-2.379 2.118-2.897 1.111-1.708 1.817-2.897 1.446-3.343-1.446-0.816-3.045-0.667-2.301-1.113 0.74-0.446 1.187-0.82 2.339-0.225 1.149 0.598 1.595 0.484 2.225 0.076 0.63-0.412 2.71-4.014 3.118-3.751 2.080-0.484 4.454-3.008 4.381-3.526 0.779-1.414 2.042-2.714 2.782-3.271 1.485-0.854 2.156-0.48 2.412-0.743 1.71-1.224 2.080-1.3 1.893-1.78 0.111-1.818 1.153-3.084 1.153-3.717 1.153-1.555 2.191-2.485 2.374-2.821 0.187-0.332 3.378-3.675 3.973-4.418 0.447-2.375-0.779-2.116-1.191-2.489-0.405-0.37-1.221-1.3-2.076-1.224-0.855 0.072-3.973 0.816-4.9 0.522-0.927-0.297-1.744-0.374-3.152-0.598-1.412-0.221-1.488-0.221-1.893-0.816-0.153-0.854 0.779-1.151 1.595-0.816s1.336 0.297 2.523 0.297c1.187 0 5.492-0.149 6.274 0.221 0.779 0.374 1.893 1.41 2.488 1.376 1.706 0.187 2.336 0.743 2.633 0.37 0.298-0.37 2.225-1.559 2.225-2.081 0.557 0.82-1.37 1.971-1.37 2.489-1.042 1.449-3.973 5.161-4.53 6.053s-5.419 7.167-5.568 8.059c0.37 2.638 2.969 2.413 3.599 2.672 0.634 0.259 1.82 1.376 2.858 1.003 1.042-0.37 1.225-1.334 2.675-1.449 1.446-0.111 3.71-0.034 4.564-0.629s0.706-0.743 1.969-0.816c1.259-0.076 1.149 0.332 2.187 0.332-1.817 0.522-2.297 0.335-2.931 0.93-0.63 0.595-2.114 1.189-2.82 1.224-1.561 0.038-3.156 0.259-3.118 0.633-1.038 1.224-1.817 1.891-3.118 1.449-1.301-0.446-2.412-1.079-2.82-1.079s-1.969-0.149-2.935 1.003c-1.523 1.189-1.744 0.964-2.71 1.525-0.966 0.557-3.412 1.3-2.595 1.818s1.668 1.483 1.408 1.818c-0.26 0.335-4.194 3.271-4.305 3.602-0.111 0.335-0.595 2.859-0.966 3.305 0.782 1.525 2.004 2.268 1.298 2.116-0.702-0.149-2.076 0.671-2.187 0.408-0.038 3.046 0.592 4.125 1.817 3.492 1.225-0.629 2.416-2.821 3.229-2.821 0.817 0 1.82 0.705 2.378 0.221 0.557-0.48 2.263-1.632 2.339-1.147 0.073 0.48-0.485 1.704-1.412 1.78-0.927 0.072-1.706 0.111-1.969 0.408-0.256 0.297-2.633 2.6-3.114 2.748-0.485 0.149-1.637 1.3-2.488 1.113-0.855-0.183-1.855-1.113-2.45-1.113s-2.931 2.787-2.858 3.305c0.076 0.518 2.412-2.154 2.378-1.521 1.298 2.226 0.519 5.161 1.519 5.348 1.004 0.183 1.446 0.408 1.969-0.301 2.301-1.483 2.82 0 4.084-0.221 1.263-0.225 2.042-0.557 3.156 0.111 1.111 0.667 2.11 2.005 2.855 1.673 0.744-0.335 3.637-4.346 3.862-5.535 1.595-1.41 1.893-1.708 2.412-2.226 0.523-0.522 2.45-4.384 2.858-5.051 0.408-0.671 0.149-1.003 1.485-1.41 0.26 0.854-0.889 1.746-1.225 2.562s-1.153 3.377-1.672 4.010c-1.481 1.933-1.557 2.375-1.931 2.596-0.702 0.968-0.74 2.119-1.111 2.196-1.114 0.778-2.748 3.564-3.194 3.675-1.744-0.076-2.969 0.854-3.526 0.332-0.553-0.518-1.149-1.818-1.446-1.593-0.966 0.446-1.408 0.038-2.191 0.072-0.779 0.038-1.672 1.113-2.042 0.671-0.37-0.45-1.187-1.079-1.523-1.006-0.332 0.076-0.966 0.557-1.927 0.408-0.966-0.145-1.561-0.107-2.599 0.335-1.893-0.072-2.82 0-2.82 0.297-0.485 1.151-1.412 1.933-1.34 2.489 0.523 2.043-1.778 2.748-2.225 3.862-0.447 1.117-1.149 4.456-0.74 4.715 0.408 0.263 2.523-1.151 2.595-0.778 1.672-0.335 2.45-1.189 2.897-0.522 0.447 0.671-1.374 1.563-1.672 1.856-1.744 0.335-2.599 1.563-2.855 1.41-0.263-0.149-1.744-1.151-2.301-0.629s-1.859 1.635-1.859 2.489c0 0.85-0.889 3.675-0.481 4.045 0.332 1.227-0.557 4.273-0.336 4.605 0.221 0.335 1.672-1.483 2.118-1.262 0.443 0.225 1.668 0.37 2.114-0.072 0.443-0.446 2.076-1.856 2.339-1.262 0.443 1.521 1.557 2.524 1.038 2.596-0.519 0.076-1.523-0.518-1.893-0.187-1.446 0.968-1.633 0.595-2.080 1.041-0.443 0.45-3.007 0.149-2.561 0.671 0.447 0.518 2.412 2.116 2.118 2.524-0.298 0.408-4.53 7.128-3.9 7.574 0.634 0.446 4.751-5.051 5.717-4.715 0.114 3.194-0.893 5.013-1.817 6.053-0.927 1.041-0.706 1.895-1.004 2.787 1.149 1.224 1.149 1.597 1.523 2.039 0 1.525 1.149 1.86 0.889 2.638-1.298 0.446-2.969-1.784-3.935-1.227-0.966 0.56-4.305 6.24-3.786 7.319s2.374 0.518 2.412 0.034c1.191-1.559 4.343-3.080 3.752-2.299-1.076 1.891-1.191 4.452-1.561 4.601-0.37 0.152-1.557 0.297-1.782 0.522-0.221 0.221-6.011 10.285-6.049 11.585 0.889 1.338 5.454-3.713 6.755-3.9-0.221 2.562-1.557 2.825-2.187 4.086-1.34 3.675-4.309 10.994-3.232 12.328 1.076 1.338 1.633 1.856 2.080 1.708 0.443-0.149 2.412-1.372 2.080-0.633 0 2.23-1.336 3.343-0.744 3.233 0.595-0.111 5.53-3.53 7.091-5.161 1.557-1.632 4.408-6.313 4.183-5.2-0.221 1.113-1.893 6.164-4.603 7.948-2.71 1.78-4.53 3.271-4.675 3.675-1.336 1.521-2.439 5.154-3.255 6.042-0.813 0.884-3.038 1.849-2.889 2.516 0.149 0.663 0.447 3.477-0.37 7.029-0.817 3.557-0.592 3.85-1.553 4.662-1.187 2.074 0.443 4.811 0.073 5.848-0.37 1.033-0.221 11.543-0.962 12.137-0.744 0.591-1.927 0.591-2.446 1.407-0.519 0.812-2.962 2.737-2.962 3.698 0 0.964 0.145 6.515-0.225 7.7 0.592 2.661 2.965 4.586 5.633 3.183 2.664-1.407 4.297-1.113 5.48-1.483 1.187-0.37 5.557-2.146 6.816-4.811s1.259-3.553 0.668-4.662c-0.592-1.109-1.733-2.455-1.66-3.011-0.225-0.743-1.374 0.149-1.855-0.038-0.485-0.187-2.897-1.487-1.893-1.559 1-0.076 2.301-0.446 3.080-1.41s0.073-2.6 0.702-3.343c0.634-0.743 1.561-0.964 1.931-1.891 0.336-2.158 0.966-4.83 1.191-5.127 0.889-1.856 0.149-5.943 0.851-6.202 1.71 1.3 1.931 1.559 1.931 0.557 0-0.999-1.153-2.192-1.298-3.416-0.149-1.227-0.343-2.524-0.416-3.084 0.443-2.112 0.702-2.524 0.962-3.118 0.26-0.591 0.37-2.485 0.557-2.935 0.557-1.925-0.111-2.634 0.744-3.45 0.851-0.82 2.004-2.489 2.671-3.305 0.668-0.82 0.519-2.043 1.298-1.822 0.779 0.225 1.004 0.076 1.633-0.335 1.855-0.926 2.526-0.591 2.786-1.113 0.256-0.518 0.481-5.158-0.744-6.499-1.225-1.334-2.553-2.966-3.034-3.599-1.004-1.227-2.523-1.449-2.301-1.673 0.557-1.593-0.408-2.71-0.447-3.713s-0.221-5.68-0.668-6.236c-0.447-0.557-1.744-2.154-1.259-3.046 0.332-2.897-0.042-3.934 0.26-4.567 1.37 0.37 3.301 1.818 3.969 1.338 1.004-1.563 1.004-2.714 1.523-2.863 0.519-0.145 1.446-0.145 1.595-0.557 0.149-0.408-0.328-4.872 0.931-4.944 1.851 0.072 2-2.44 3.187-2.962 1.187-0.515 1.527 0.183 1.599-0.671 0.076-0.854 0.74-2.524 1.744-3.377 1.004-0.858 2.637-3.53 3.416-3.084s1.557 0.629 3.042-1.003c1.488-1.632 2.007-2.935 1.744-3.416 0.447-1.86 0.634-2.672 1.042-3.008 1.263-1.262 2.004-3.233 2.71-2.973 1.817 0.705 2.782-0.034 3.305 0 1.523-0.74 5.976-4.308 5.789-3.713s-3.862 4.754-4.938 4.975c-1.076 0.225-2.931 0.892-4.786 3.458-1.859 2.562-1.263 3.004-1.374 3.488-2.526 3.008-4.049 4.086-4.641 4.269-0.595 0.187-3.603 0.781-3.897 1.673-0.298 2.859-2.904 5.306-3.568 6.271-0.672 0.961-0.893 2.070-1.633 2.886-0.74 0.812-0.149 1.853-1.702 3.698-1.557 1.853-2.149 2.592-2.149 3.259-0.080 2.417-0.042 2.455 0.29 3.008 0.336 2.047-0.889 6.465-0.702 6.801 0.74 2.893 3.19 3.751 3.080 4.304-0.038 2.119 1.153 1.746 1.336 1.895 1.004 0.892 1.187 0.13 1.82 0.503 1.111 1.41 1.557 1.151 2 1.464 0.985-1.224 0.282-2.729-0.015-3.564s-1.725-3.785-0.874-4.494c0.855-0.705 2.488-1.78 2.488-2.524 0-0.74-0.336-3.194-0.038-4.048 0.447-2.783 0.557-3.488 0.817-3.118 0.782 2.451-0.149 3.823 0.817 5.161s4.492 5.535 5.309 5.535c0.817 0 1.893 0.221 1.893-0.263 0-0.48-1.004-5.196-1.744-6.202-0.74-0.999-1.782-1.67-1.82-2.413-0.519-1.929-1.149-2.562-0.668-3.305 0.485-0.743 1.004-3.008 1.004-2.413s0.374 5.238 1.149 6.092c0.782 0.854 2.488 2.97 2.969 4.308 0.485 1.338 0.855 4.715 0.855 5.756 0.412 1.818 1.298 1.746 1.595 2.078 0.298 0.335 2.488 0.93 2.935 0.114 1.557-3.233 1.927-3.827 1.927-4.311 0.336-2.447 0.447-3.709 0.931-4.38 0.481-0.667 2.076-2.748 1.706-3.156s-0.927-1.113-1.672-1.372c-1.427-0.873-2.595-1.654-2.32-1.86 1.355-0.72 3.435 1.079 4.045 1.060 0.634-2.062-0.053-3.545 0.187-3.938-0.294-2.562-0.149-3.526-0.408-3.804 0.557-1.098 1.114-1.487 1.504-2.078 0.393-0.598 1.34-2.752 0.889-3.156-0.443-0.408-3.45-1.971-2.855-3.416 0.927-2.676 0.073-4.643 0.26-5.203 2.191 1.971 2.71 2.714 2.374 3.717 0.26 3.637 0.336 3.564 1.076 3.153 0.744-0.404 1.969-2.001 2.004-2.558 1.042-2.604 1.782-4.235 2.378-5.161 0.595-0.93 0.668-1.746 1.633-2.527s1.744-2.897 1.893-2.005c-0.706 2.565-3.973 7.243-4.267 8.020-0.298 0.781-1.153 3.343-1.637 3.862-2.076 3.305-3.339 6.389-3.080 7.128 1.114 2.714 0.595 4.792 0.966 4.868 1.076 1.372 0.034 2.672 1.557 3.229s4.122-0.076 4.53-0.557c-1.633-1.449-1.595-2.302-2.336-3.339-0.744-1.041-2.488-4.83-2.378-5.794 1.076-1.3 2.080-0.297 2.118 0.221 0.034 0.518 0.592 3.156 1.187 3.938 1.595 1.78 1.778 1.597 2.263 2.302 0.481 0.705 1.782 0.149 2.523 0.926 0.744 0.778 2.114 2.119 2.229 2.71 0.893 2.192 1.114 1.784 2.71 2.672 1.595 0.892 3.565 1.86 4.305 1.933 2.191 0.446 3.862 0.93 5.236 1.3 1.37 0.374 2.225 0.038 2.782 0.518 0.557 0.484 2.893 2.047 3.599 2.676-0.26 0.37-0.779 1.003-1.82 0.149-1.038-0.854-2.038-2.23-2.782-2.264-0.74-0.038-5.751-0.038-6.495-0.297-0.744-0.263-1.744-0.484-2.82-0.743s-1.485 0.225-2.671-0.038c-1.191-0.259-4.194-2.116-4.751-2.039-0.557 0.072-1.114 0.183-1.893-0.633-0.782-0.816-0.893-0.964-1.561-0.964-1.519 0.335-2.114 0.034-2.45 0.034-0.332 0-1.744 1.376-2.671 1.822-1.374 1.372-0.37 1.895-0.927 2.748-1.298 3.080-2.004 4.083-1.969 4.38 0.855 2.413 0.634 8.318 0.855 8.691 1.187 1.963 2.301 3.080 2.301 4.045s-0.527 4.868-1.347 5.421c-0.813 0.56-2.152 0.968-2.152 1.746 0.931 3.084 2.118 3.458 2.897 4.605 0.779 1.151 3.488 3.492 2.931 3.865 1.374 1.666 1.114 2.299 2.046 1.929 0.927-0.374 1.408-0.484 2.076-0.038 1.374 0.968 4.122 2.821 5.236 4.38 1.111 1.563 1.752 5.276 0.897 5.425 0.634 1.003 0.855 2.005 1.153 2.413 1.672 1.784 1.446 6.015 1.114 6.724-0.634 0.888-0.557 2.783-1.523 3.194-0.966 0.404-5.976 1.666-6.755 3.45-0.782 1.784-0.557 5.459-1.004 6.015-0.447 0.56-2.858 1.449-2.858 1.856-1.744 2.268-2.561 2.451-2.229 2.859 0.336 0.412 0.832 4.601 0.462 5.417-0.374 0.812-1.336 2.444-1.336 3.404-0.74 3.034-4.446 5.924-4.74 7.033-1.259 2.733-4.293 4.906-4.293 5.425 0 0.522 0.034 4.308-1.263 6.317-1.301 2.001-2.637 3.675-2.637 4.231s-0.966 2.97-0.145 3.896c0.817 0.934 4.080 8.024 4.156 9.694 0.073 1.673-0.519 3.122-2.042 2.638s-2.671-2.119-2.633-3.492c0.405-2.787 0.664-2.562 0.481-3.191-0.782-2.604-0.889-2.638-1.225-3.343-0.336-0.709-0.408-2.455-1.595-2.455s-1.633 1.231-2.488 1.262c-0.855 0.038-1.744-0.111-2.004 0.522s-1.336 8.505-0.889 10.102c0.443 1.597 2.484 4.231 2.446 5.089 0.447 1.895 4.603 6.275 5.049 6.534s1.336 0.629 1.561 1.3c0.813 1.635 1.965 2.226 2.633 2.859 0.614 2.676 1.744 3.252 1.504 3.66-0.092 1.673 2.801 2.173 2.21 2.451-0.649 1.334 0.908 2.527 0.443 2.897-0.462 0.37-2.076 1.578-1.908 2.078 1 1.952 3.412 4.456 4.099 4.475s1.172 0.057 1.614 0.297c0.447 0.244 0.855 0.983 1.58 0.778-0.668-0.797-1.542-2.241-1.595-3.099-0.057-0.854 2.393-2.188 1.611-2.524-0.779-0.335-3.023-2.024-2.95-2.36-0.668-3.271-0.706-3.568-0.962-4.235-0.26-0.667-1.969-2.638-1.71-3.229 0.038-2.268-1.298-3.9-1.038-4.346s3.103-3.602 4.583-4.712c1.481-1.113 2.801-0.598 2.652-1.231 0.668-1.109 1.153-0.93 1.633-1.037 1.672 1.189 2.118 2.672 3.118 3.564 1.004 0.892 3.786-0.076 4.828 1.113 1.038 1.189 2.263 3.084 4.229 4.273 1.969 1.186 3.194 1.262 3.641 2.112 0.443 0.854 0.927 3.419 1.523 3.755 0.592 0.332 2.225-0.038 2.225 0.48 0.706 1.521 3.416 3.675 4.679 4.197 1.259 0.518 1.63 0.446 2.671 1.151 1.038 0.705 2.519 1.075 3.267 0.404 0.74-0.663 2.412-3.042 2.042-3.45-0.374-0.408-1.782-1.856-1.45-3.046 0.706-2.97-0.374-3.156-0.111-3.751 0.634-2.935 1-3.118 1.038-2.71-0.817-2.71-3.713-3.377-3.82-4.045-0.114-0.671-0.114-2.897-0.519-3.343 0-3.008 1.259-3.53 1.259-4.086-0.817-3.305-1.412-3.862-0.966-3.713s1.114 0.335 1.485 1.372c0.374 1.041 0.595 4.308 0.855 4.532 1.668 1.521 5.568 4.086 6.16 4.048 1.931 0.404 2.416-0.892 2.935-1.262 0.966-1.227 0.817-1.563 1.855-1.67 0.443 3.522 0.336 4.121 0.225 4.491 0.034 1.891 0.702 2.116 1.408 2.188 2.152 2.375 2.191 2.417 2.561 2.859 0.37 0.45 1.263 0.785 1.633 0.484 1.111-0.221 1.82 1.86 2.526 1.525 0.702-0.335-0.038-4.94 0.111-5.569 0.149-0.633 1.782-2.341 2.042-2.71 1.37 2.451 1.408 3.191 1.038 3.713-0.37 0.518-2.152 2.745-0.855 3.454 1.301 0.701 1.263 0.187 1.82-0.149 1.855 0.038 2.671 0.74 3.118 0.926s2.152-1.372 2.595-1.784c0.45-0.404 2.526-0.778 2.973-1.224 0.443-0.446 1.633-0.446 1.855-0.892 1.557-1.483 2.671-1.334 2.671-1.818s-2.301-2.268-1.931-2.897c0.595-1.67 0.744-2.596 1.153-2.634 0.557-0.747 1.042-4.052 1.191-3.492 0.145 0.557 0.256 1.746 0.851 2.562s1.561 2.745 2.225 2.638c0.668-0.111 2.339-1.563 2.748-2.23 1.893-1.3 2.484-1.856 2.782-1.372 2.343 0.663 3.977 0.446 4.606 0.701 0.63 0.263 1.817 1.079 1.855 0.446 1.076-1.708 2.191-3.080 2.191-3.675-1.263-2.005-2.042-3.416-1.82-3.9 0.557-2.859 0.038-3.637 0.519-4.494 0.485-3.008-0.336-4.006-0.034-3.896 0.298 0.111 1.336 1.037 1.374 2.001 0.034 0.968 0.256 2.009 1.183 2.642 0.931 0.629 4.53 1.372 5.644 0.259 1.004-2.119 0.74-2.604 1.004-2.752 0.26-0.149 2.378 2.047 2.969 2.158s3.897 0.259 4.381-0.076c0.477-0.335 1.557-0.335 2.152 0.076 0.592 0.408 1.485 1.3 2.149 0.926 1.82-0.332 2.080-0.332 2.824-0.591 0.74-0.263 0.073-0.747 2.152-0.412 2.076 0.335 2.82 1.338 3.378 1.487s1.893-1.822 2.71-1.856c1.595-0.149 3.488-1.449 3.935-1.151-1.038 1.746-1.336 2.859-1.782 3.194 2.007 0.964 2.786 1.78 3.267 1.78-2.339 0.221-4.343 2.005-5.644 2.154-1.298 0.149-4.641-2.897-5.599-2.897-0.966 0-5.053 0.93-5.831 1.525s-2.378 2.562-1.82 3.080c0.557 0.522 1.672 1.003 2.156 0.858 0.481-0.149 2.599-1.635 3.19-0.968-1.408 1.006-0.889 1.597-1.298 1.856-1.931 0.892-2.45 0.595-2.416 0.964-0.443 1.51-1.408 0.114-2-0.050-1.931-0.316-2.023-0.522-2.504-0.412-0.485 0.111-3.026 2.954-3.179 3.431-0.447 2.714-2.706 6.911-2.706 7.392 0 0.484 0.851 3.827 0.481 4.643-0.374 0.816-5.232 4.975-5.347 5.2-0.889 3.233-2.969 5.085-3.045 5.607-0.664 1.78-1.259 1.818-1.187 2.302 0.073 0.48 0.588 7.43-0.229 9.134-0.813 1.7-1.553 1.189-1.553 1.746-0.966 3.305-2.633 3.194-2.523 3.862s1.263 2.935 1.744 3.233c0.485 0.294 0.557-0.484 2.416 2.634 1.855 3.122 5.118 5.31 5.232 6.24 0.111 0.926 0.26 1.3 1.336 2.821 1.076 1.525 0.332 1.933 1.82 3.564 1.485 1.635 1.965 1.334 2 1.155 0.706 3.008 0.786 4.38 0.523 5.085-0.111 2.97 5.824 12.805 6.492 13.174s1.485 0.446 2.004-0.145c2.084 0.118 3.568-0.85 3.53-1.483-0.034-0.629-1.855-2.638-0.927-3.263 0.927-0.637 1.374-0.598 1.595-1.155-1.855-2.6-3.194-2.859-2.004-2.672 1.187 0.183 1.82-0.446 2.897 0.743 1.076 1.186 0.405 1.597 1.225 2.116-0.111 2.116-0.821 3.789-0.855 5.089-0.038 1.296 0.519 2.409-0.855 2.672-1.374 0.259-2.263-0.114-1.889 0.335 0.366 0.446 1.519 1.296 1.298 2.074-0.225 0.785-0.668 4.681-0.263 5.093 0.412 0.408 3.194-1.113 3.419-0.48 0.218 0.629-0.336 3.038 0.553 2.817 0.893-0.221 2.267-1.224 2.858-1.78s0.336-1.3 1.633-2.565c1.301-1.262 2.561-3.972 2.931-4.563 0.076-2.752 0.408-3.751 0.817-3.976 0.668-2.375 0.298-3.602 0.855-3.526 0.553 0.072 0.927 1.338 1.34 1.742-0.336 3.156 2.038 4.086 1.813 4.681 0.672 2.341 3.973 1.708 4.309 1.147 0.332-0.553 1.706-3.374 2.748-3.82 1.038-0.45 2.336-1.003 3.156-1.635 0.817-0.633 0.889-1.559 1.595-1.933 0.668-2.451 2.225-0.816 2-0.294-0.218 0.515-2.374 3.046-3.374 3.599-1.004 0.56-1.82 0.56-1.744 1.006 0.073 0.442 2.782 3.675 2.782 4.529 0.927 1.708 1.633 1.227 1.82 1.593-0.447 2.527-1.672 3.458-1.485 3.755-0.374 1.372-1.633 2.97-2.229 3.008-0.592 0.034-1.969-0.149-1.855 0.259 0.111 0.408-1.301 3.301-1.931 3.747 0.408 3.233-0.26 6.168 0.63 5.646 0.893-0.518 2.004-3.526 2.152-3.118 1.34 0.446 1.859-1.151 1.599-1.818 0.779-1.487 1.485 2.672 0.813 3.564-0.668 0.892-1.557 1.746-1.595 1.338-0.405 2.337 3.007 3.191 1.706 3.191-1.294 0-1.851-0.591-2.374 0.038-0.519 0.633-2.744 2.748-2.931 2.23-1.672-1.262-5.938 0.74-5.938 1.3 0.855 2.116 1.446 2.116 1.187 2.337-0.076 1.597 1.485 3.789 1.187 4.014-1.595-0.598-3.114-1.266-3.229-1.933-0.332-2.337 0.076-3.751-0.332-3.934-0.408-0.187-2.229 0.255-2.267 0.778-0.034 0.518-1.481 15.908-0.74 17.463 0.74 1.551 5.259 3.774 6.297 3.328 1.038-0.442 1.408-1.33 1.851-0.595 0.447 0.743 3.622 0.416 4.309 0.213 0.687-0.206 4.045-1.502 4.603-1.43-0.508 1.037-2.507 0.774-2.507 1.296 0 0.518 2.114 2.897 1.111 2.524s-2.187-2.188-2.969-1.967c-1.672 0.781-1.893 0.595-1.931 0.888-0.855 0.705-2.637 0.114-2.599 0.633-1.149 2.341-9.495 12.576-10.606 15.313-1.114 2.737-1.042 3.477-0.298 4.513 0.74 1.037 2.37 2.219 2.37 2.737 1.332 3.923 2.442 5.181 2 5.699 0.859 1.433 1.935 3.972 2.042 4.898 0.114 0.926 1.958 4.944 3.294 5.905 1.332 0.964 4.297 4.147 5.927 4.365 1.63 0.225 2-0.294 3.038 0.225s0.962 1.258 1.778 0.667c0.817-0.591 1.519-2.623 2.408-2.806 1.599-0.37 1.599-0.816 2.118-0.781 1.519-0.484 2.042-0.667 2.336-0.484-1.187 1.597-1.408 2.158-2.263 2.158-0.851 0-2.118-0.225-2.152 0.816-0.408 3.008-1.080 4.235-2.114 4.014-1.038-0.225-3.305-1.083-3.675-0.488-0.744 1.414-4.977 0.598-6.163-0.888-1.187-1.49-1.706-2.451-1.82-2.97-0.966-2.268-2.816-4.163-2.893-5.089-0.37-2.562-0.183-2.935-0.744-3.492-0.817-1.746-0.74-2.787-1.519-3.084-0.779-0.294-3.488 1.487-4.16 2.158-0.668 0.667-1.633-0.484-4.267 1.632-2.637 2.116-3.152 2.043-2.412 3.122 0.74 1.075 4.858 5.79 5.568 6.534 1.298 2.634 1.706 2.413 1.336 2.745 0.221 1.193 3.45 2.158 2.893 2.344-0.553 0.183-2.523 0.667-2.374 1.037 0.149 0.374 2.71 1.487 2.339 1.635 0.519 2.748 2.042 4.159 1.076 3.602s-4.866-2.6-5.125-3.008c-1.446-1.521-1.595-1.186-3.523-3.008-1.935-1.822-3.973-3.271-4.679-3.827-0.706-0.553-1.523-0.854-1.595-1.224-2.046-1.635-3.267-2.188-3.305-2.787-1.225-1.224-2.446-0.484-2.931-0.221-0.481 0.259-1.706-0.446-2.599-0.038-0.889 0.408-3.786 2.005-4.454 2.005-2.042 0.595-2.378 0.778-2.671 1.189-1.782 0.82-6.236 3.454-7.24 3.046-1-0.412-1.561-0.374-2.263-0.374-0.706 0-4.679-0.111-5.568-0.705-1.71-2.264-1.969-1.856-2.339-2.264-0.962-0.93-3.229 0.111-3.748-0.332-1.744-2.043-4.271-2.676-3.786-1.673 0.481 1.003 2.782 3.309 2.71 4.048-0.076 0.74 3.301 2.264 2.858 3.046-0.447 0.778-1.633 2.043-1.523 2.596-1.187-2.745-0.966-3.934-1.965-4.159-1.004-0.221-1.301 0.335-1.672 0.152-1.523 0.442-3.156 1.746-3.858 1.853-0.71 0.111-1.82-0.072-2.492 0.446-0.668 0.522-4.641 3.454-5.156 3.53-0.519 0.072-1.336-0.111-1.71 0.149-1.374 0.187-1.63-0.335-2.004-0.187-1.82 0.187-1.855-0.149-2.080 0.149-0.221 0.297-1.744 1.673-2.633 2.154-0.893 0.484-2.488 1.189-2.561 1.521-0.557 1.971-4.755 5.909-5.717 7.17-0.966 1.262-1.672 2.001-1.633 2.524-1.744 0.671-1.523 2.192-1.225 3.008s0.26 3.785-0.26 4.38c-1.149 1.113-3.045 3.084-3.71 4.010-1.523 1.155-2.45 1.006-2.973 1.597-0.519 0.595-4.935 5.802-5.545 6.099-0.614 0.294-2.172 0.667-2.565 0.316-1.668 0.682-3.286 1.205-3.507 1.521-0.221 0.313-0.759 2.020-1.24 2.154-1.599 0.686-2.488 1.651-2.397 1.967-0.481 1.43-1.557 1.41-1.614 1.559-1.244 1.982-2.248 1.609-2.248 2.093-0.557 2.375-2.412 3.602-2.412 4.197-0.37 2.97 0.966 4.045 1.45 3.454 1.446-2.489 2.45-2.565 2.782-2.154 0.927 0.149 1.561-0.671 2.076-0.484 2.603 0.072 3.194-0.187 3.16-0.778 0.553-1.262 1.668-1.635 2.187-1.262 0.519 0.37 2.969 2.222 3.045 2.634 0.702 2.672 1.187 1.037 2.114 0.888s3.007-0.366 3.118-0.778c-0.927-0.37-2.561-0.968-2.561-1.597 0.817-3.156 1.706-2.97 1.744-3.377 0.332-1.487 0.706-3.084 2.191-3.454s2.374-0.37 2.671-0.816c0.298-0.45 0.298-1.151 2.416-1.117 2.11 0.038 2.374 0.412 2.446-0.072 1.859-1.933 4.236-1.449 4.79-1.746 0.557-0.297 0.706-0.446 1.859-0.446 1.145 0 3.080 0.522 3.599 0.82s0.927 0.629 1.633 0.259c0.702-0.374 1.408-2.379 2.004-2.119 2.191 0.82 2.267 0.076 2.82 0.187 1.111-0.335 2.007-1.41 2.374-1.521 0.374-0.114-0.443 2.116-1.076 2.337-1.817 0.93-1.557 1.67-2.149 1.708-0.599 0.038-4.049-0.149-4.049 0.412 0 0.557 1.114 3.564 1.893 4.864-0.221 3.194-1.855 4.643-1.595 5.085 0.263 0.446 2.599 3.602 4.007 5.718 1.412 2.119 1.637 4.052 2.339 3.789 0.706-0.259 1.595-0.633 1.782-0.964 1.485-0.671 3.637-1.041 4.305-1.372 0.485 0-3.045 2.413-3.416 2.783-0.37 0.374-2.633 1.079-2.744 1.712-1.076 2.112-2.71 3.934-3.935 6.347s-1.446 2.863-1.080 3.526c0.374 0.671 2.713 3.9 3.271 5.459 1.446 2.268 6.011 1.262 6.976 0.93 0.966-0.335 1.668-1.151 2.191-0.743-1.595 1.818-4.416 4.677-5.717 4.494-1.298-0.187-1.633-1.414-1.744-1.113-0.111 0.297 0.485 5.604 0.149 5.977s-2.080 2.859-2.080 3.785c-0.256 2.714-0.702 3.568-0.481 4.052-0.523 1.895-1.939 4.502-2.236 5.615-0.294 1.109-3.038 6.953-4.816 8.878-1.775 1.925-2.813 2.371-3.553 2.371s-4.671 4.289-6.301 4.071c-1.63-0.225-1.206-1.403-2.843 0.225-1.63 1.635-3.152 4.014-3.931 4.125-0.782 0.114-1.782 0.038-2.042 0.557-0.26 0.522-1.782 3.53-3.492 3.492-1.706-0.038-2.301-1.487-2.82-0.964-1.855 0.297-2.671-0.187-3.378-0.038s-1.557 1.262-2.336 1.151c-1.931 0.038-3.084-0.48-3.011-0.149 0.744 2.268 1.523 3.194 1.523 3.679-2.336-1.006-3.152-1.155-3.229-1.487-0.851-0.149-1.744 0.667-1.633 1.189-0.408 1.632-2.45 4.715-2.931 4.864-0.485 0.145-2.191 0.145-2.561 0.518-0.26 2.714 0.706 3.229 0.332 3.454-0.37 0.225-4.045 0.335-4.194-0.111s-1.076-1.449-1.595-1.227c-0.149 1.746-0.851 2.451-1.225 2.676-0.37 0.221-1.817 0.602-1.969 0.957-1.798 0.111-2.725 0.145-2.504-0.187-0.927-2.249-1.225-1.391-1.446-1.803-1.412-0.522-2.801-0.465-2.767-0.724-0.481-0.389-1.946 0.37-1.595 0.762 0.168 2.97 0.836 3.431 0.687 3.675-0.908 1.895-1.652 2.024-1.801 2.116-0.149 0.095-1.481 0.926-1.614 0.652-1.225 0.034-2.004 1.338-2.58 1.243-0.572-0.091-2.336-0.015-2.317 0.187-0.801 1.357-2.435 1.734-2.618 1.921-0.187 0.187-1.488 1.895-2.118 1.746s-1.263-0.595-1.817-0.187c-0.187 2.935-1.412 3.305-1.263 3.717 1.408 1.567 1.95 1.346 2.282 0.972 1.336-0.576 1.82-0.576 1.95-0.797 1.836 0.038 2.469 0.572 2.984 0.629 1.805 0.168 2.156 0.892 2.916 0.911s1.191-0.705 1.763-0.111c0.576 0.595 1.931 2.466 1.855 3.137 0.614 1.704 1.431 5.020 0.168 6.469-1.259 1.449-1.446 0.82-1.706 0.522s-2.042-0.111-2.301 0.149c-1.282 1.811-1.595 1.662-1.763 2.032-1.614 1.761-3.565 1.151-3.435 1.525 1.465 1.186 2.21 0.945 2.671 1.262 1.114 2.131 1.32 4.102 1.82 4.010 0.168-3.175 0.24-3.938 0.427-4.121 0.946-0.225 1.187 0.831 1.614 0.831 1.744-0.404 2.378 0.652 2.45-0.091 0.592-2.322 1.706-2.562 1.874-2.787 0.168 3.309 0 3.53 0.355 3.53 0.351 0 1.965 0.355 2.263 0.057 1.24 0.091 1.763 0.572 2.45 0.553s3.358-0.278 4.084-0.515c0.721-0.244 1.912 0.072 2.244-0.149 0.336-0.225 1.801-1.338 1.782-1.003-0.427 1.685-1.244 1.521-1.278 1.963-0.042 0.45 1.091 1.060 1.611 1.189-1.446 0.206-2.263 0.13-2.431-0.057-1.485 0.057-2.691 0.412-2.263 0.56s1.244-0.168 1.912 0.259c-0.981 1.727-2.114 0.907-2.652 1.224-1.263-0.389-2.118-0.926-2.565-1.056-1.408-0.557-2.95-1.098-2.95-0.614 0.076 1.338-1.225 1.487-1.576 1.43-1.523-1.372-1.95-1.559-2.118-1.262-0.332 1.822 2.137 2.043 2.488 2.268 1.095 2.783 1.633 3.229 1.225 3.488 1.691 2.1 1.725 2.302 2.359 2.283 0.63-0.019 0.759-0.389 1.836 0.133 1.076 0.515 1.931 0.644 2.080 0.926 0.779 0.667 1.485 0.297 1.744-0.465 1.523-1.281 1.133-2.207 1.801-2.36 1.317-0.595 1.893-2.005 2.465-1.818 0.576 0.187 1.729-0.187 1.893-0.244 0.168-0.053 1.58 0.187 1.988 0.484 0.408 0.301 2.095 0.412 2.542-0.149 1.259-1.113 2.637-1.132 2.935-1.464 1.221-2.264 0.981-2.451 1.538-2.973 0.576-1.468-0.279-2.989 0-3.286s0.24-1.997 3.545-2.032c3.301-0.038 4.343 0.149 4.862-0.149 2.671-0.408 9.018 0 9.205-0.408 0.183-0.408-2.004-2.154-1.855-2.825-0.966-2.302-1.744-3.080-1.153-2.931 0.595 0.149 3.045 0.518 3.007 1.227 0.817 2.039 2.229 2.485 2.45 2.15s1.301-3.229 2.152-3.56c0.855-0.335 2.671-0.56 3.118-1.044-0.332 1.376-2.076 1.227-2.412 2.009s-1.82 3.599-1.076 4.231c0.74 0.633 3.599 0.93 3.71 1.41 0.111 0.484 2.786 1.117 2.118 1.193-0.668 0.069-2.671 0.328-3.045 0.255-0.37-0.076-1.557-1.189-2.412-0.854-0.851 0.335-0.519 2.524 1.893 4.456s4.194 2.043 4.267 1.673c0.966-0.709 2.45-0.709 3.271-0.964 0.817-0.263 2.855-0.297 3.633 0.629 0.782 0.926 0.859 2.596 1.523 2.043 1.71-0.671 4.194-1.487 4.454-0.892-0.779 2.302-3.301 1.929-4.042 2.783-0.744 0.858-0.931 1.784-1.675 1.673-0.74-0.114-2.595-1.041-2.744-0.595-1.187 0.145-1.439-0.179-1.725-0.084-1.267-0.187-2.874 1.578-3.229 1.727-1.076 0.816 0.050 3.111-0.504 4.037-2.076 0.892-3.080 1.079-2.336 1.449 0.74 0.374 2.595-0.297 3.71 0.705 1.114 1.006 3.267 2.302 3.752 1.635 2.11-1.189 3.225-0.187 3.488-0.297 1.37-3.118 2.782-3.938 3.526-3.305 0.74 0.629 2.595 2.188 3.152 1.673 0.557-0.522 0.893-1.597 1.561-1.189 1.969 0.107 1.82-0.076 2.336 0.183 0.187-2.6 2.748-4.494 4.309-4.898 2.152-0.225 2.076-0.374 2.816-0.709 0.748-0.332 2.007-0.74 2.752-0.595 0.744 0.149 1.893-1.593 1.927-1.372-0.183 2.417-0.74 2.783-0.221 3.416s1.523 2.379 2.007 1.933c1.183-0.259 2.671 1.178 2.297 0.991-0.366-0.187-1.798-0.61-1.927-0.332 1.561 3.599 2.297 4.799 2.557 6.134 1.229 2.68 1.672 3.008 1.969 3.789s0.668 1.895 1.412 1.597c1.557-0.034 1.038 0.37 1.782-0.034 1.82-0.263 2.412-0.011 2.614 0.008 0.687 1.895 1.878 3.008 3.122 4.006 1.24 1.006 1.744 3.736 2.599 4.090 0.851 0.347 5.53 0.423 6.992 0.701 1.469 0.278 5.938 1.292 7.312 0.736s2.194-1.041 2.748-0.964c1.969-0.335 2.82-1.525 3.305-1.262 1.706 0.034 2.633 0.221 2.82 0.221 1.481 0.034 2.042-0.633 2.042-1.189s1.114-3.267 0.37-3.229c-0.744 0.038-2.412 0-1.782-0.408 1.336-1.822 2.114-1.449 1.859-1.971 1.817-0.591 2.263-2.264 3.488-2.634 1.225-0.374 1.336-0.335 1.893-0.671 0.557-0.332 2.931-2.562 3.858-2.859 0.927-0.294 1.782-1.003 2.004-1.487 1.153-2.15 0.931-2.672 0.782-3.008-0.038-3.046-0.038-4.010 0.332-4.159 1.187 2.489 1.263 3.008 0.931 3.381 0.332 2.299-0.374 2.935-0.038 3.416 0.332 0.48 2.671 0.259 3.19 0.518 2.004 0.335 2.339-0.297 2.969-0.553 0.634-0.263 2.042-0.187 2.526-0.56 0.481-0.37 3.969-2.931 5.641-3.267s2.897 0.072 3.156-0.522c0.26-0.591 0.74-1.555 1.744-2.226 1.263-2.005 0.37-3.118 0.927-3.194 1.931-0.111 2.748-0.888 2.858-1.487 1.114-2.043 6.457-6.198 7.202-6.461 1.038-1.3 1.221-2.226 1.706-2.485 0.481-0.259 3.488-2.672 4.267-3.156 0.927-1.856-2.11-1.597-1.782-3.084 0.336-1.487 1.45-4.193 2.305-3.637s2.374 2.375 3.229 2.413c0.664-1.41 1.149-2.859 1.485-3.492 0.26 2.119 0.668 3.454 0.26 3.827-0.408 0.37-1.374 0.999-2.225 0.701-0.855-0.294-2.416-2.337-2.897-1.742 1.446 2.897 2.671 2.973 2.931 3.751-2.782 3.416-2.114 4.006-3.080 3.934-0.966-0.076-1.336-0.518-1.82 0.187-0.481 0.705-1.706 3.827-2.71 4.529-1 0.709-1.332 0.747-2.446 1.597-1.114 0.858-2.664 3.233-2.962 3.9-0.294 0.667-1.259 2.367-1.927 3.034-0.664 0.663-1.477 1.109-1.626 1.624-0.149 0.518-1.855 1.334-2.297 2.219-0.447 0.892 0.294 2.447-0.592 3.332-0.893 0.892-2.004 2.886-2.076 3.778-1.324 1.658-1.397 2.531-2.271 2.287-0.87-0.24-0.744-0.869-1.706-0.518-2.004 1.098-2.339 0.892-2.546 1.132-0.202 0.24-4.122 4.761-4.866 5.764-0.74 1.006-1.595 2.97-2.339 3.53-0.74 0.557-1.855-0.522-2.263-0.297-0.408 0.221-3.118 1.186-2.633 1.227 1.149 2.413-1.004 3.114-0.821 3.45 0.187 0.335 0.988 2.463 0.859 2.798-0.076 1.689-0.183 3.046 0.073 3.206-0.759-0.797-0.5-2.226-0.908-2.504-0.405-0.274-2.652-0.869-2.038-0.355 0.611 0.522 1.24 1.933 1.168 2.565-0.076 0.629-1.45 3.24-0.966 3.873 0.481 0.629 1.481 3.008 1.706 3.45-1.114 1.933-1.744 4.532-2.229 5.017-1.374 1.041-2.191 1.967-1.969 1.224 1.042-2.337 1.378-2.302 1.412-2.787-0.817-0.812-1.893 0.45-2.633-0.072s-1.675-1.003-2.267-0.926c-0.592 0.072-2.82 0.259-3.229 0.629-2.675 0.259-2.782 0.297-3.042 0.557-0.263 0.263-2.229 1.487-3.045 1.262-0.817-0.221-1.072 1.746-1.893 0.968-0.817-0.781-0.817-0.111-1.859-0.335-1.034-0.221-6.198 0.114-7.163-0.633-0.966-0.74-1.893-2.261-2.11-2.261-1.862-0.934-3.606-2.417-5.683-2.565-2.080-0.149-3.194-0.442-3.671-0.038-0.485 0.408-1.229 2.081-2.194 1.563-2.633-0.781-7.793-2.154-9.167-2.154-1.595-0.484-1.855-1.079-2.301-0.82s-1.37 1.571-2.393 1.513c-2.191-0.351-3.618 0.926-4.469 0.629-0.859-0.294-1.099-0.461-1.782-0.442-0.691 0.019-2.21 1.43-3.732 1.41s-3.061-0.072-3.526 0.206c-1.672 0.667-2.618-0.091-3.061-0.091-0.45 0-3.866 0.526-4.423 0.862-0.553 0.332-1.5 0.621-2.336 0.698-0.836 0.072-2.152 0.019-2.248 0.332 0.019 3.084-0.164 4.658-0.572 4.956-0.408 0.301-3.232 0.438-3.007 0.846 1.595 1.895 1.076 2.306 1.481 2.417 0.748 0.926 1.191 4.525 1.859 4.975 0.672 0.446 1.786-1.635 2.897-1.563 1.114 0.076 1.225-0.111 1.893-0.37s0.851-0.705 1.63-0.408c0.786 0.297 1.191 0.816 2.416 1.227 1.225 0.408 2.523 0.111 2.225 0.366-1.744 0.709-2.187 0.709-3.114 0.412-1.557-0.076-1.488 0.187-2.080 0.187s-2.969-0.076-3.416 1.262c-0.851 2.451-1.263 2.893-1.336 3.377-1.076-1.856-1.187-2.219-1.317-2.386-1.225 1.174-2.572 2.043-4.274 3.747-1.702 1.7-1.649 2.947-3.69 3.057-2.038 0.114-2.855 0.225-3.782-0.629-0.931-0.854-1.374-1.414-2.378-1.856-1.004-0.446-1.336-0.187-2.114-0.633-0.779-0.442-3.305-0.374-4.122-0.221-0.855 2.863-0.855 5.867-1.446 7.872-0.595 2.005-1.561 2.524-1.744 3.64-0.187 1.113 1.076 3.862 0.927 5.161-0.149 1.296 0.073 7.872-0.595 8.466s-2.897 1.967-3.637 2.524c-0.74 0.557-2.488 1.971-2.599 2.71-0.63 2.043-3.858 4.792-4.751 5.569-0.889 0.781-2.374 0.968-2.484 1.342-0.37 2.897-0.782 3.488-0.634 4.083s-0.779 2.634-1.595 3.084c-0.817 0.442-2.782 0.816-3.080 0.553-1.45-0.069-1.893 1.487-3.194 1.41-1.298-0.069-1.855-0.111-1.855-0.294-0.408 1.593-0.26 3.637 0.225 4.048 1.298 0.778 2.484 1.262 2.816 1.037 1.672 0.522 3.343 3.381 2.858 2.935-0.481-0.446-1.408-1.86-1.931-1.967-0.515-0.111-2.187-0.072-2.297 0.183-1.004-0.107-1.465-0.804-1.763-0.545-1.465 1.041-1.893 0.835-1.985 0.945 0.443-0.831 0.779-2.588 0.519-2.924-1.042-1.113-1.042-1.525-1.748-1.3-0.702 0.225-1.481 2.413-2.152 2.268-0.668-0.149-2.561-1.38-2.263-0.633 0.408 2.447 0.225 2.485 0.447 2.893-0.706 2.375-0.595 2.562-0.63 3.011-0.317 2.794-0.095 3.686-0.485 4.205-1.355 1.54-2.099 2.287-2.614 2.691-1.061 2.024-1.542 1.784-1.969 2.043-1.893 0.374-2.267 0.316-2.21 0.652-0.5 1.651 0.038 3.248-0.13 3.862-0.63 1.521-2.244 1.818-2.488 2.302-1.927 1.986-3.042 2.039-3.133 2.489-0.542 2.893-4.454 5.63-5.125 6.225-0.664 0.595-3.599 2.078-4.045 1.895-1.446-0.076-1.893 0.221-1.855 0.446-1.187 2.264-2.671 3.492-2.339 3.934 0.336 0.446 1.672 0.297 1.855 1.079 0.187 0.778-1.668-0.671-1.706-0.335-1.931-1.151-3.416-1.967-3.526-2.413-1.672-0.781-3.378-0.633-4.305 0-0.927 0.629-2.080 1.895-2.671 2.043-1.672 0.854-2.229 2.302-2.935 2.302-0.702 0-2.225-0.187-3.45 1.338-1.225 1.521-1.748 3.637-1.301 5.047 0.336 2.714-1 3.789-0.927 4.418 0.076 0.633 1.038 0.781 1.633 1.49 1.412 1.113 2.599 0.629 3.080 0.629 2.118-0.747 4.011-0.743 4.603-1.075 1.893-0.747 1.969-1.971 2.339-2.562 0-2.158-0.966-2.752-0.702-3.126 1.111-1.186 0.813-1.555 1.336-1.815 0.519-0.263 2.595-0.56 3.152-0.114 1.561 1.079 3.080 2.081 3.973 2.302 0.889 0.225 2.076-0.374 2.488 0.111 2.301 1.338 2.336 0.297 3.19 1.151 0.855 0.858 3.45 3.008 3.935 3.751 0.927 1.971 1.374 2.413 1.374 2.748-0.149 3.233 1.111 3.827 1.149 4.346 1.263 1.189 2.267 1.483 2.305 1.784 1.485-0.595 1.519-2.748 2.446-3.343 0.931-0.595 2.229-0.743 2.969-0.667 0.744 0.072 1.71 0.335 1.859-0.038 0.927-2.081 1.557-2.306 1.744-2.783 0.63-1.784 0.927-2.642 0.668-2.752-1.523-1.67-4.492-1.483-4.045-1.853 0.111-1.006-2.191-0.968-2.748-0.747-0.557 0.225-1.744 1.376-1.893 1.117 1.336-2.451 2.45-4.719 2.45-4.346 1.336 0.111 1.706-0.076 1.817 0.518 0.523 1.075 1.82 0.854 2.191 0.964 0.557-2.413 1.076-3.934 1.412-4.121 0.294-0.778-3.416-2.413-2.416-2.485 1.004-0.076 1.412-0.263 2.007 0 0.966-1.673 1.446-1.971 1.446-2.268 0.336-1.113 1.672-1.372 1.301-1.929 0.481-2.489 0-3.267 0.481-3.343 1.485 1.003 1.187 1.075 1.633 1.3-0.744 2.634-1.817 4.532-1.076 4.269 0.557 3.156 0.855 2.821 1.114 2.524 1.557 0.225 1.595-1.521 2.152-2.524s1.557-2.226 2.374-2.043c1.782 0.259 1.595-0.705 2.152-0.778 1.34-0.709 2.935-2.375 3.752-2.375 2.152 0.553 2.412 0.667 2.599 0.926 1.595-0.705 0.851-1.41 1.817-1.818-0.221-2.787-0.447-4.494 0.668-5.013 0.595-3.305 1.82-3.976 2.71-4.273 0.889-0.294 1.446-0.038 1.893-0.48 1.633 0.221 1.038 1.818 1.71 2.337 1.893-0.888 2.744-1.933 3.45-1.933 1.076 0.968 2.191 1.189 2.45 0.858 1.672-0.557 3.118 0.374 3.713 0.225s1.668-0.297 1.965-0.633c1.855-0.335 2.191-1.003 2.675-1.003 1.336-1.41 1.927-2.192 4.339-2.341 2.416-0.149 4.606-0.114 5.976 0.111 1.378 0.225 4.751 2.417 5.53 2.97 1.595 1.86 2.45 1.449 2.267 1.006 0.221-1.342 1.038-1.856 1.408-1.971-0.889-0.484-0.553-0.072-1.744 0-1.485-1.262-1.153-1.483-1.706-1.483 0.107-1.487 1.595-1.525 1.336-1.971-1.859-1.003-3.080-1.372-2.225-1.597 0.851-0.221 1.962-1.224 2.374-1.003 1.618 0.16 2.21 0.381 2.023 0.659 0.576 2.604 0.447 2.36 0.927 2.585 2.023 0.297 3.454-0.072 3.637 0.389-0.332 1.876-1.034 2.283-1.034 2.619 0.313 1.578 0.183 2.226 0.866 2.543 0.691 0.316 1.263-0.465 1.931 0.095 0.672 0.557 2.175-0.057 2.007 0.499 0.538 1.525 2.988 0.854 3.897 0.537s1.336-0.404 1.839-0.183c1.076-0.389 2.427-2.436 2.408-1.856-0.126 3.027 0.946 2.821 1.633 3.393 1.561 0.618 1.786 0.785 2.21 0.45-0.13 2.337 0.798 2.726 1.076 3.473-0.053 2.653 1.763 3.156 2.156 3.579 0.385 0.431 1.259 0.412 1.668 0.877 1.504-1.86 1.691-2.158 1.393-2.493-0.763-2.169-1.278-3.153-0.893-3.008 1.32-1.776 1.32-1.056 1.599-1.281 1.374 1.673 3.080 1.563 2.542 2.119-0.485 2.318-1.355 2.169-1.95 2.634-0.202 1.544 0.966 1.357 1.374 1.86s0.927 1.502 1.58 1.075c0.649-0.427 1.259-1.578 1.985-1.727s2.748 0.614 2.507 0.091c-0.244-0.515-1.397-1.982-1.042-3.027 0.351-1.037 0.744-2.577 0.946-3.061 0.206-0.48 0.63-2.47 1.153-2.878 0.519-0.408 1.465-1.544 2.542-1.929 1.076-0.393 1.782-0.522 1.668-0.968-0.779-1.54-1.038-2.039-1.164-2.169-0.374-1.693-1.32-3.324-1.542-3.008-0.557-0.038-0.931-0.839-1.969-0.839-1.042 0-3.416 0.614-3.026 0.335 1.45-1.006 2.21-0.667 1.985-1.132-0.221-0.465-2.446-2.733-1.836-2.489 0.614 0.24 2.118 1.338 2.614 1.445 1.859 0.263 2.305 0.019 2.233 0.355 0.332 0.747 2.523 0.877 2.504 1.281 0.298 2.268 0.187 4.662 0.355 4.868 0.168 0.202 1.294 1.060 1.985 0.705 1.023-1.727 0.481-2.695 0.836-3.065 1.259-1.151 0.946-1.78 1.225-2.097 0.221-0.801-2.618-0.412-2.897-0.93s-1-2.005-0.946-3.080c0.057-1.079 1.206-3.904 1.908-3.454 2.099 0.427 3.549 0.682 2.988-0.038-0.553-0.724-1.759-1.746-1.759-2.451s1.221-4.818 0.813-5.154c-0.408-0.335-3.526-0.187-4.454-0.076s-2.378 0.335-1.744 0.038c0.63-0.297 2.152-1.784 3.191-1.41 1.042 0.37 2.935 0.557 3.603 0.111s1.374-1.521 1.595-2.375c1.225-1.933 1.336-1.933 1.523-2.341 0.183-0.408 0.149-2.71-0.149-3.339-0.523-3.789-1.374-3.64-1.374-4.311-0.706-2.935-1.298-3.9-0.706-3.488 0.592 0.404 1.374 1.521 2.267 2.71 0.889 1.186 0.779 1.483 0.966 2.413 0.996 2.893 0.927 3.454 1.519 3.9 0.592 0.442 2.488 0.518 3.084 0.111 0.592-0.408 1.37-1.632 2.187-1.929 2.042-0.522 2.042-0.598 2.416-1.151 0.37-0.56 0.107-2.493 1.817-3.084 1.71-0.595 5.534-1.818 7.869-1.708s3.339 0.446 3.599 0.038c0.263-0.412 0.966-2.638 2.416-2.081 1.446 0.557 2.599 0.705 3.229 0.446s4.454-1.67 5.007-2.119c0.561-0.442 1.301-1.262 2.229-1.147 0.927 0.111 4.343 1.296 5.644 1.597 1.298 0.297 1.263-0.595 2.076 0 0.821 0.595 7.858 3.050 11.934 6.606 4.072 3.553 9.411 8.135 9.896 8.989 0.664 2.676-0.45 5.832 0.218 5.497 0.672-0.335 1.038-1.895 1.599-2.264 0.927-1.856 0.889-3.156-0.073-3.454-1.817-0.698-2.378-1.22-2.339-1.734 1.301-2.1 0.504-2.379 1.229-3.252 0.721-0.869 1.664-2.219 4.042-1.887 2.374 0.335 2.931-0.221 4.080 0.671 1.153 0.888 1.153 0.259 2.599 0.778 1.45 0.522 4.603 0.82 4.977 0.446 1.557-0.374 4.858-0.038 5.717 0.82 0.851 0.854 0.927 1.186 1.965 1.186s2.561 0.37 2.748 0.854c2.114 1.189 2.45 0.259 3.603 0 1.145-0.259 4.003 0.076 3.969-0.591 0.111-3.122 2.374-4.536 1.817-4.536-0.553 0-2.038 0.263-2.191-0.926-1.672-1.967-1.706-2.001-2.114-2.039-1.153-0.335-1.336-0.82-1.931-0.781-0.592 0.038-4.603 1.449-4.007 0.964 1.965-2.005 3.194-2.935 2.561-2.859-0.634 0.072-2.114 1.262-2.782 0.743 0.481-2.268 1.893-4.94 2.561-4.494 2.374 1.525 2.412 1.3 2.004 0.705 0.668-1.372 1.782-0.629 1.744 0.076 1.191 0.111 2.187-0.183 2.301 0.446 1.45 1.818 2.523 1.559 3.305 1.037 0.779-0.518 3.599-1.78 5.717-1.483 2.114 0.297 3.378 0.408 3.229 0.221 0.366-1.075 1.114-0.259 1.668-0.518 0.557-0.259 1.114-1.003 2.523-1.003 1.416 0 7.056 1.117 7.763 1.483 0.702 0.374 1.034 1.635 1.63 1.376 0.817-1.784 2.225-3.377 2.305-3.823 0.74-1.3 3.488-1.895 5.27-2.417 1.782-0.518 2.858-0.111 2.744-0.667-0.813-2.341-1.336-4.864-0.664-4.121 0.664 0.743 0.553 2.897 1.259 2.787 2.229-0.374 3.412-0.038 3.637-0.374 1.817-2.005 2.336-2.005 2.080-2.6-0.263-0.595-1.45-0.781-1.561-1.521-1.225-1.635-3.858-3.343-4.381-4.681-0.519-1.334-4.007-3.976-2.561-3.377 1.45 0.595 2.858 2.116 3.488 2.116 1.82 0.93 3.9 3.713 4.416 3.377 1.118-3.153 2.973-4.601 2.305-3.675-0.817 2.897-0.966 3.194-1.301 3.862 0.966 1.67 3.084 2.451 3.343 2.897 2.225 1.414 2.82 1.338 3.339 2.379 0.523 1.037 2.080 1.372 2.599 1.856 0.523 0.48 2.969-1.079 2.671-1.746-0.294-0.671-1.149-3.64-1.927-3.64-0.782 0-1.935-0.522-1.82-0.778 1.263-0.335 2.893-0.522 3.305-0.187 0.405 0.335 1.408-0.709 1.965-0.408 1.897 1.037 1.225 1.521 1.149 2.264-0.63 1.78-1.782 2.116-1.408 3.122 0.37 0.999 0.966 2.409 1.969 1.666 1-0.74 2.263-0.964 2.374-1.853 0.111-0.896-0.443-3.381 0.187-3.419 1.298-0.743 1.038-1.296 2.004-1.334s1.076 0.37 1.82 0.187c0.74-0.187 1.149-0.598 2.080-0.522 0.927 0.072 2.927 0.484 3.965 1.334 1.004 1.338 1.45-1.186 2.194-0.663-0.038 3.114 1.114 3.709 1.519 3.080 0.412-0.633 2.484-4.491 2.229-3.229-0.26 1.262-0.779 3.522-1.817 4.121-1.042 0.595-2.641-1.227-3.232-0.335s-2.225 2.154-1.855 2.897c0.37 0.743 2.893 0.781 4.862 2.893 1.969 2.119 2.897 3.679 3.488 3.008 0.592-0.663 2.007-2.409 1.153-3.080 1.149-1.338 1.446-1.525 2.374-2.154 0.927-0.633 7.236-1.856 9.728-2.527 2.484-0.667 3.152-0.85 3.076-1.113 2.526 0.297 8.652 0.709 11.4-0.259 2.744-0.964 4.824-2.897 6.381-2.451 1.561 0.446 12.159 1.616 14.605 2.657 2.442 1.033 4.595 2.219 5.927 2.219s2.294-0.301 2.965 0.221c0.664 0.518 2.221 2.661 3.553 2.661 1.336 0 1.336-0.74 2.374 0 1.034 0.743 3.629 2.886 5.557 2.295 1.927-0.587 2.885-3.034 3.629-3.77 0.74-0.743 1.851-0.595 2.149-1.258 0.294-0.667 0.145-2.962 1.855-3.701 1.702-0.74 14.594-2.89 16.296-3.774 1.702-0.892 2.225-1.109 2.889-1.334 0.668-0.221 1.336 0.294 2.519-0.888 1.191-1.186 0.966-2.588 3.042-3.701 2.072-1.109 2.664-1.403 2.813-1.776 1.778-0.812 6.518 0.964 9.037 1.334 2.523 0.366 4.82 0.442 4.893-0.149 0.073-0.595-2.74-5.55-0.519-9.176 2.221-3.629 3.336-5.329 7.484-6.439s5.999-0.667 6.892-1.483c0.885-0.812 1.927-2.009 2.744-2.344s4.973-1.487 5.457-1.933c1.893-1.037 2.412-1.895 2.969-2.005 0.557-0.107 1.859-1.262 2.374-2.375 0.519-1.113 1.412-7.689 0.668-9.728-0.74-2.043-1.782-3.008-1.782-4.456-0.63-1.67-2.336-0.93-1.893-1.67 0.447-0.747 1.225-2.455 1.82-2.455 2.080 0.633 4.496-0.74 4.938-1.67 0.038-2.821 0.149-2.931-0.187-3.416s-0.225-1.372-1.931-1.41c-1.706-0.038-7.476 1.125-11.327 1.494s-9.633 0.816-12.151 1.033c-2.519 0.225-2.389 0.145-2.95 0.667-0.553 0.522 0.447 1.372-2.858 1.517-3.301 0.152-3.897 0.412-4.305 0.633-1.336-0.149-2.374-1.372-3.263-1.186-0.893 0.187-2.488-0.484-2.786 0-2.229-0.335-4.045 0.072-4.194-0.709-0.706-2.299-1.336-2.821-1.931-3.599-0.592-0.781-1.153-2.562-1.336-1.971-0.183 0.598 1.374 2.417 0.63 2.79-0.74 0.366-1.149 1.075-1.63 0.964-1.301 0.404-2.046 0.442-2.416-0.114-1-1.079-1.042 0.595-2.004 0.301-0.966-0.301-5.492-2.829-5.568-2.642-1.275 0.808-2.145 0.343-1.996 0.088 1.393-1.635 2.107-1.239 2.107-1.239 0.855 0.038 1.71-1.224 2.786-1.147z"></path>
</symbol>
<symbol id="_bracketDetail" viewBox="0 0 2880 1024">
	<title>bracketDetail</title>
	<path class="path1" d="M0 0c802.025 0 1242.549 146.006 1434.661 1022.042 225.883-876.036 666.505-1022.042 1468.578-1022.042h-2903.239z"></path>
</symbol>
<symbol id="_search" viewBox="0 0 1024 1024">
	<title>search</title>
	<path class="path1" d="M661.333 597.333h-33.92l-11.733-11.733c41.813-48.427 66.987-111.36 66.987-180.267 0-153.173-124.16-277.333-277.333-277.333s-277.333 124.16-277.333 277.333 124.16 277.333 277.333 277.333c68.907 0 131.84-25.173 180.267-66.773l11.733 11.733v33.707l213.333 212.907 63.573-63.573-212.907-213.333zM405.333 597.333c-106.027 0-192-85.973-192-192s85.973-192 192-192 192 85.973 192 192-85.973 192-192 192z"></path>
</symbol>
<symbol id="_file-download" viewBox="0 0 1024 1024">
	<title>file-download</title>
	<path class="path1" d="M810.667 384h-170.667v-256h-256v256h-170.667l298.667 298.667 298.667-298.667zM213.333 768v85.333h597.333v-85.333h-597.333z"></path>
</symbol>
<symbol id="_keyboard-arrow-down" viewBox="0 0 1024 1024">
	<title>keyboard-arrow-down</title>
	<path class="path1" d="M316.373 350.293l195.627 195.627 195.627-195.627 60.373 60.373-256 256-256-256z"></path>
</symbol>
<symbol id="_keyboard-arrow-right" viewBox="0 0 1024 1024">
	<title>keyboard-arrow-right</title>
	<path class="path1" d="M366.293 702.293l195.627-195.627-195.627-195.627 60.373-60.373 256 256-256 256z"></path>
</symbol>
<symbol id="_close" viewBox="0 0 1024 1024">
	<title>close</title>
	<path class="path1" d="M810.667 273.707l-60.373-60.373-238.293 238.293-238.293-238.293-60.373 60.373 238.293 238.293-238.293 238.293 60.373 60.373 238.293-238.293 238.293 238.293 60.373-60.373-238.293-238.293z"></path>
</symbol>
<symbol id="_event-note" viewBox="0 0 1024 1024">
	<title>event-note</title>
	<path class="path1" d="M725.333 426.667h-426.667v85.333h426.667v-85.333zM810.667 128h-42.667v-85.333h-85.333v85.333h-341.333v-85.333h-85.333v85.333h-42.667c-47.147 0-84.907 38.187-84.907 85.333l-0.427 597.333c0 47.147 38.187 85.333 85.333 85.333h597.333c47.147 0 85.333-38.187 85.333-85.333v-597.333c0-47.147-38.187-85.333-85.333-85.333zM810.667 810.667h-597.333v-469.333h597.333v469.333zM597.333 597.333h-298.667v85.333h298.667v-85.333z"></path>
</symbol>
</defs>
</svg>
