<?xml version="1.0" encoding="utf-8"?>
<!-- Generated by IcoMoon.io -->
<!DOCTYPE svg PUBLIC "-//W3C//DTD SVG 1.1//EN" "http://www.w3.org/Graphics/SVG/1.1/DTD/svg11.dtd">
<svg version="1.1" xmlns="http://www.w3.org/2000/svg" xmlns:xlink="http://www.w3.org/1999/xlink" width="32" height="58" viewBox="0 0 32 58">
<path d="M27.008 48.802c0.061 0.004 0.141-0.12 0.2-0.109s0.204-0.067 0.195-0.036c0.061 0.033 0.143-0.027 0.088-0.090s-0.176-0.046-0.198-0.065c-0.021-0.019-0.082-0.042-0.109-0.031-0.101-0.019-0.223-0.051-0.238-0.034-0.086-0.004-0.103-0.023-0.118-0.017s-0.25-0.023-0.257 0.008c-0.057 0.149-0.313 0.244-0.3 0.221s0.118-0.082 0.132-0.107c0.015-0.025-0.034-0.196 0.072-0.221s0.263-0.006 0.29-0.023c0.135-0.051 0.097-0.015 0.189-0.042s0.191-0.033 0.183-0.061-0.28-0.103-0.179-0.099c0.101 0.004 0.153 0.021 0.206 0.004s0.057-0.006 0.137-0.002 0.171 0.057 0.233 0.057c0.063 0 0.107-0.007 0.135 0.010 0.092 0.009 0.248-0.128 0.32-0.166s0.261-0.162 0.324-0.248c0.063-0.086 0.103-0.149 0.059-0.141s-0.134 0.032-0.166 0.032c-0.031 0-0.107-0.013-0.114 0.019-0.034-0.084 0.101-0.076 0.147-0.097s0.094-0.227 0.103-0.285c0.021-0.176 0.067-0.499-0.076-0.457s-0.217 0.219-0.277 0.187c-0.061-0.032-0.189-0.046-0.227-0.002s-0.111 0.122-0.114 0.143c-0.082-0.080-0.261-0.158-0.24-0.174 0.088-0.063 0.139-0.042 0.183-0.061s0.067-0.084 0.122-0.069c0.055 0.015 0.193 0.048 0.275 0.011s0.105-0.086 0.086-0.105c0.038-0.128 0.078-0.214 0.105-0.214 0.067-0.055 0.034-0.086 0.084-0.088s0.177-0.011 0.149-0.038c0.027-0.183-0.019-0.221-0.019-0.221s0.076 0.004 0.103 0.046c0.057 0.143 0.053 0.248 0.097 0.242s0.162-0.015 0.151 0.008c-0.017 0.147-0.067 0.164-0.023 0.187s0.334-0.040 0.368-0.059c0.034-0.019 0.137-0.097 0.177-0.103s0.296-0.242 0.32-0.307c0.023-0.065 0.065-0.164 0.046-0.156-0.090 0.051-0.164 0.061-0.143 0.036-0.109 0.008-0.233-0.086-0.191-0.101s0.166-0.013 0.166-0.030c0-0.017 0.008-0.115 0.076-0.183s0.147-0.131 0.099-0.126c-0.048 0.004-0.082 0.034-0.095 0.008-0.124 0-0.317 0.011-0.334-0.011-0.072-0.015-0.114 0.038-0.225 0.006s-0.177-0.048-0.179-0.036c-0.067-0.025-0.143-0.067-0.172-0.065 0.008-0.021 0.111-0.015 0.139 0 0.095-0.004 0.103-0.017 0.124-0.009s0.092 0.040 0.145 0.017c0.053-0.023 0.168-0.089 0.17-0.071s0.074 0.063 0.114 0.059c0.088 0.011 0.141-0.078 0.179-0.048-0.042-0.139-0.076-0.172-0.088-0.168-0.088-0.032-0.103-0.053-0.124-0.057s-0.109-0.051-0.124-0.097c0.040-0.057 0.082-0.027 0.12-0.011 0.084 0.048 0.128 0.029 0.16 0.076s0.086-0.006 0.12 0.042c0.034 0.049 0.061 0.225 0.088 0.23 0.132 0.137 0.109 0.212 0.131 0.173s0.057-0.105 0.114-0.145 0.147-0.135 0.139-0.17c-0.009-0.036-0.078-0.082-0.092-0.101 0.101 0.055 0.084 0.097 0.122 0.080s0.107-0.063 0.109-0.099c0.059-0.133 0.128-0.307 0.3-0.37s0.29-0.109 0.298-0.176c0.046-0.21 0.029-0.394 0.071-0.444s0.080-0.117 0.080-0.184c0-0.067-0.004-0.466 0.046-0.553s0.172-0.205 0.172-0.239c0-0.034 0.017-0.101 0.055-0.151s0.088-0.147 0.092-0.239c0.004-0.092-0.004-0.31 0.029-0.365s0.118-0.155 0.143-0.201c0.025-0.046-0.113-0.423-0.109-0.516s0.025-0.348-0.017-0.57-0.122-0.457-0.155-0.528c-0.034-0.071-0.78-0.662-0.852-0.742s-0.399-0.415-0.588-0.457c-0.189-0.042-0.558-0.080-0.663-0.113s-0.432-0.151-0.466-0.138c-0.034 0.013 0.038 0.054-0.151 0.054s-0.191-0.056-0.207-0.028c-0.080-0.002-0.202-0.090-0.217-0.061-0.059 0.051-0.082-0.004-0.107 0.004s-0.074 0.065-0.094 0.055c-0.021-0.011-0.11-0.042-0.141-0.027s-0.206 0.057-0.259 0.036c-0.053-0.021-0.084 0.019-0.101 0.002s-0.048-0.078-0.088-0.076c-0.080 0.042-0.139 0.063-0.155 0.052-0.080-0.017-0.139 0.006-0.162-0.004-0.088-0.013-0.28 0.097-0.301 0.151s-0.017 0.198-0.059 0.28c-0.042 0.082-0.114 0.177-0.12 0.215-0.059 0.147-0.2 0.257-0.223 0.296s-0.025 0.217-0.015 0.255c-0.036-0.004-0.132-0.166-0.195-0.194s-0.156-0.011-0.183 0.002c-0.105 0.015-0.158-0.027-0.187-0.036-0.091-0.057-0.204-0.337-0.221-0.353s-0.065-0.002-0.095-0.038c-0.030-0.036-0.055-0.090-0.17-0.094s-0.118-0.025-0.166-0.023c-0.048 0.002-0.17 0.042-0.204 0.067 0.044-0.084 0.074-0.114 0.074-0.143 0.029-0.090 0.13-0.082 0.16-0.118 0.071-0.156 0.281-0.492 0.432-0.63s0.222-0.168 0.227-0.188c0.004-0.021 0-0.013 0.101-0.109s0.134-0.143 0.176-0.134c0.042 0.008 0.105 0.029 0.122-0.008s-0.029-0.189-0.004-0.23c0.029-0.18 0.008-0.709-0.075-0.86s-0.155-0.23-0.155-0.302-0.122-0.289-0.155-0.344c-0.034-0.055 0.004-0.13-0.042-0.176s-0.095-0.076-0.087-0.106c-0.050-0.101-0.111-0.109-0.107-0.139-0.065-0.193-0.115-0.255-0.149-0.255-0.048-0.025-0.057-0.074-0.086-0.069-0.061 0.004-0.090-0.023-0.103-0.008-0.053-0.025-0.105-0.051-0.097-0.080-0.027-0.057-0.17-0.059-0.183-0.086-0.027-0.109-0.275-0.37-0.28-0.347-0.099 0.015-0.135 0.008-0.143-0.006s-0.198-0.223-0.258-0.263c-0.061-0.040-0.091-0.071-0.101-0.065-0.078-0.105-0.187-0.192-0.208-0.238s-0.082-0.107-0.088-0.149c-0.006-0.042-0.084-0.16-0.107-0.156s-0.351 0.046-0.393 0.068c-0.042 0.021-0.059 0.025-0.105 0.021s-0.175-0.017-0.193 0c-0.019 0.017-0.105 0.105-0.156 0.101s-0.225-0.069-0.3-0.145c-0.076-0.076-0.061-0.069-0.11-0.057s-0.248 0.095-0.254 0.107c-0.006 0.013 0.061-0.162 0.156-0.198s0.166-0.051 0.227-0.002c0.061 0.048 0.088 0.122 0.164 0.105s0.217-0.088 0.267-0.067c0.050 0.021 0.12 0.048 0.156 0.032s0.042-0.042 0.092-0.044c0.051-0.002 0.065 0.011 0.116-0.011s0.195-0.113 0.231-0.12c0.074-0.030 0.086-0.042 0.12-0.017s0.046-0.038 0.111 0.032 0.082 0.113 0.112 0.168c0.029 0.055 0.088 0.071 0.229 0.246s0.219 0.24 0.261 0.257c0.042 0.017 0.072 0.004 0.118 0.036s0.051-0.021 0.179-0.065 0.223-0.084 0.286-0.055c0.063 0.029 0.29 0.191 0.33 0.24 0 0.128-0.13 0.282-0.084 0.248s0.147-0.155 0.147-0.187c0-0.031-0.040-0.261-0.336-0.675s-0.307-0.399-0.34-0.429c-0.034-0.029-0.542-0.816-0.542-0.858s-0.244-0.763-0.166-0.919c0.078-0.156 0.12-0.284 0.208-0.32s0.275-0.021 0.288-0.061c0.013-0.040-0.021-0.076-0.095-0.118s-0.326-0.181-0.374-0.183-0.24-0.061-0.276-0.181c-0.035-0.12-0.040-0.17-0.021-0.187-0.113-0.083-0.182-0.159-0.208-0.159-0.113-0.023-0.127-0.033-0.123-0.057-0.045-0.095-0.127-0.165-0.116-0.19-0.054-0.155-0.033-0.187-0.046-0.193-0.032-0.103-0.029-0.16-0.042-0.173-0.067-0.137-0.088-0.122-0.103-0.164-0.053-0.192-0.112-0.303-0.141-0.305s-0.082-0.011-0.134-0.076c-0.025-0.136 0.011-0.145-0.006-0.181s-0.118-0.069-0.139-0.122c-0.057-0.101-0.149-0.185-0.2-0.179s-0.078 0.021-0.101 0.002-0.061-0.055-0.088-0.069c-0.074-0.118-0.187-0.217-0.206-0.198-0.134 0.019-0.134 0.010-0.13-0.013-0.027-0.061-0.065-0.086-0.076-0.101-0.059-0.033-0.145-0.023-0.168-0.052s-0.095-0.086-0.13-0.080c-0.036 0.006-0.134 0.008-0.166-0.008s-0.124-0.101-0.147-0.101c-0.023 0-0.088 0.046-0.109 0.032s-0.206-0.070-0.246-0.116c-0.040-0.046-0.135-0.124-0.156-0.124s-0.069 0.008-0.097-0.002c-0.027-0.010-0.132-0.063-0.142-0.086-0.045 0.046-0.080 0.118-0.081 0.137-0.056 0.107-0.143 0.246-0.181 0.25s-0.149-0.017-0.111-0.023c0.038-0.007 0.080-0.044 0.12-0.080s0.141-0.151 0.107-0.172-0.168 0-0.13-0.036c0.038-0.036 0.040-0.089 0.082-0.105 0.048-0.095-0.065-0.212-0.063-0.246 0.025-0.12 0.105-0.12 0.061-0.147s-0.225-0.154-0.269-0.204c-0.065-0.109-0.048-0.118-0.074-0.139s-0.12-0.097-0.137-0.143c-0.017-0.046-0.019-0.231-0.036-0.269-0.029-0.114-0.036-0.143-0.053-0.179s-0.071-0.074-0.071-0.139c-0.017-0.16-0.051-0.217-0.042-0.242-0.042-0.107-0.014-0.162-0.017-0.192 0.004-0.113 0.067-0.151 0.048-0.193s-0.193-0.25-0.223-0.28c-0.088-0.002-0.103 0.042-0.118 0.044-0.034-0.076 0.034-0.13 0.057-0.135-0.008-0.128 0.004-0.143-0.023-0.175s-0.097-0.054-0.097-0.097c-0.046-0.16-0.191-0.351-0.139-0.376s0.090 0.017 0.114 0.033c-0.030-0.059-0.164-0.202-0.193-0.265-0.099-0.099-0.353-0.135-0.254-0.139s0.233 0.027 0.237 0.008c0.044-0.128 0.082-0.168 0.053-0.2s-0.074-0.063-0.080-0.113c-0.034-0.139-0.198-0.323-0.135-0.486s0.097-0.18 0.059-0.23c-0.038-0.051-0.115-0.098-0.126-0.096-0.057-0.082-0.069-0.097-0.069-0.12s-0.12-0.198-0.072-0.208c0.048-0.011 0.088-0.048 0.092-0.071 0.057-0.124 0.059-0.215 0.042-0.229-0.034-0.155-0.025-0.154-0.025-0.217s0.017-0.185 0.002-0.185c-0.015 0-0.099-0.032-0.099-0.071-0.027-0.166-0.122-0.206-0.099-0.245 0.042-0.122-0.040-0.18-0.024-0.193-0.063-0.104-0.17-0.258-0.197-0.258-0.074-0.034-0.057-0.072-0.097-0.072-0.069 0.030-0.122 0.088-0.139 0.090s-0.128-0.084-0.095-0.097c0.006-0.158 0.019-0.259 0.006-0.238s-0.048 0.141-0.080 0.141c-0.031 0-0.128-0.055-0.177-0.141s-0.135-0.246-0.106-0.263c0.029-0.017 0.174 0.008 0.109-0.025s-0.341-0.118-0.414-0.265c-0.074-0.147-0.095-0.165-0.118-0.158-0.070-0.037-0.101-0.057-0.111-0.054 0.034-0.037 0.068 0.019 0.092-0.017-0.092-0.159-0.151-0.26-0.176-0.331-0.078-0.143-0.105-0.124-0.105-0.185s-0.004-0.166-0.029-0.192c-0.025-0.025-0.158 0.051-0.187-0.067s0.021-0.177-0.011-0.189c-0.031-0.013-0.128 0.046-0.166-0.008s-0.168-0.17-0.275-0.097-0.094 0.048-0.143 0.025c-0.048-0.023-0.225-0.084-0.32-0.149s-0.097-0.042-0.099-0.069c-0.027-0.076-0.149-0.13-0.172-0.164-0.082-0.027-0.084-0.017-0.101-0.040-0.069-0.046-0.088-0.038-0.109-0.063s-0.118-0.067-0.149-0.042c-0.067 0.034-0.116-0.008-0.135 0.008s-0.074 0.065-0.101 0.036c0.034-0.164 0.063-0.158 0.029-0.183s-0.088-0.072-0.097-0.097c-0.008-0.025-0.021-0.133-0.183-0.135s-0.164 0.019-0.183 0.013c-0.019-0.006-0.095-0.025-0.118-0.013-0.069-0.015-0.187-0.061-0.231-0.027s-0.090 0.156-0.118 0.158c-0.027 0.002-0.103 0.021-0.101 0.071-0.046 0.109-0.069 0.086-0.088 0.112 0.004 0.114-0.067 0.219-0.091 0.24-0.092 0.023-0.177 0.013-0.21 0.038s-0.128 0.126-0.174 0.133-0.099-0.006-0.126 0.002c-0.027 0.008-0.051 0.036-0.149 0.015s-0.185-0.095-0.206-0.145-0.122-0.107-0.156-0.099c-0.034 0.008-0.114 0.038-0.124 0.032-0.109-0.017-0.132 0.008-0.206 0.008-0.088 0.023-0.135 0.057-0.141 0.034-0.038-0.057-0.075-0.063-0.097-0.095s-0.050-0.112-0.082-0.097c-0.032 0.015-0.078 0.097-0.147 0.092s-0.086-0.048-0.103-0.038c-0.114 0.002-0.341-0.017-0.362-0.034s-0.135-0.059-0.179-0.080-0.124-0.053-0.176-0.040c-0.053 0.013-0.2 0.032-0.236 0.055s-0.13 0.139-0.112 0.097c0.019-0.042 0.099-0.133 0.092-0.156-0.111-0.046-0.103-0.006-0.147-0.059-0.061-0.126-0.080-0.204-0.107-0.242s-0.132-0.132-0.16-0.164c-0.097-0.067-0.214-0.030-0.206-0.074-0.053-0.139-0.107-0.16-0.063-0.16s0.080 0.025 0.143 0.044c0.063 0.019 0.088 0.008 0.111 0.044s0.111 0.156 0.147 0.173c0.074 0.046 0.151 0.236 0.246 0.229s0.158-0.074 0.193-0.055c0.070-0.021 0.065-0.042 0.093-0.027 0.084 0.006 0.078-0.008 0.109 0.011s0.092 0.12 0.135 0.12c0.042 0 0.103-0.011 0.124 0.008s0.159 0.128 0.24 0.126c0.080-0.002 0.084 0 0.116 0.025 0.066 0.054 0.092 0.058 0.094 0.032 0.061-0.112 0.104-0.094 0.139-0.119s0.058-0.047 0.093-0.058 0.15-0.111 0.214-0.116c0.063-0.005 0.137-0.015 0.177-0.038 0.112-0.007 0.187 0.001 0.21-0.047s0.029-0.174 0.033-0.214c0.003-0.040 0.033-0.095 0.078-0.115s0.050-0.021 0.103-0.063c0.053-0.042 0.069-0.086 0.101-0.090 0.078-0.101 0.151-0.166 0.185-0.183 0.107-0.086 0.235-0.305 0.368-0.29s0.145 0.006 0.261 0.088c0.116 0.082 0.107 0.101 0.198 0.078s0.158-0.114 0.307-0.173c0.149-0.059 0.181-0.090 0.231-0.122s0.198-0.21 0.24-0.223c0.078-0.053 0.145-0.13 0.114-0.133s-0.143-0.046-0.189-0.099c-0.046-0.052-0.048-0.128-0.074-0.128-0.088-0.042-0.114-0.076-0.141-0.076s-0.246-0.006-0.317-0.063-0.072-0.059-0.087-0.058c-0.071-0.111-0.075-0.037-0.105-0.045s-0.14-0.085-0.157-0.069c-0.017 0.016-0.097 0.074-0.108 0.074 0.070-0.143 0.185-0.123 0.253-0.184s0.106-0.315 0.096-0.384c-0.095-0.069-0.179-0.017-0.208-0.036s-0.051-0.074-0.086-0.074c-0.036 0-0.181-0.006-0.206 0.023-0.091 0.097-0.16 0.101-0.166 0.122-0.063 0.057-0.198 0.069-0.221 0.097s-0.17 0.16-0.217 0.16-0.065-0.017-0.097 0.004c-0.032 0.021-0.217 0.118-0.254 0.166s-0.132 0.063-0.17 0.057c-0.109 0.015-0.212 0.006-0.242 0.021-0.067 0.025-0.063-0.008-0.092-0.017s-0.044-0.076-0.094-0.095c-0.051-0.019-0.105-0.057-0.126-0.048-0.006-0.023 0.050-0.059 0.114-0.021s0.189 0.173 0.229 0.145 0.072-0.061 0.124-0.059c0.053 0.002 0.072-0.008 0.103-0.019s0.259-0.219 0.269-0.246c0.053-0.074 0.044-0.080 0.071-0.109s0.047-0.076 0.084-0.086c0.082-0.051 0.090-0.107 0.122-0.107 0.101-0.025 0.135-0.080 0.162-0.053 0.147 0.055 0.166 0.057 0.236 0.036s0.086-0.090 0.21-0.097 0.168-0.011 0.202 0.015c0.099-0.029 0.271-0.13 0.307-0.095 0.088 0.046 0.078 0.025 0.126 0.052s0.072 0.084 0.101 0.048c0.044-0.153 0.036-0.202 0.107-0.246s0.269-0.168 0.303-0.221c0.034-0.052 0.040-0.115 0.092-0.132 0.084-0.042 0.109-0.051 0.172-0.074s0.111-0.105 0.128-0.173c0.017-0.067 0.088-0.114 0.109-0.151-0.023-0.12-0.053-0.13-0.059-0.154s0.002-0.21 0.048-0.235c0.046-0.025 0.132-0.044 0.174-0.137-0.021-0.090-0.25-0.072-0.267-0.099s-0.107-0.101-0.078-0.105c0.090-0.034 0.109-0.053 0.137-0.051s0.092-0.002 0.112 0.055c0.084 0.048 0.109-0.071 0.132-0.116 0-0.162 0.053-0.177 0.088-0.221 0.109-0.084 0.133-0.080 0.168-0.101s0.074-0.097 0.111-0.107c0.097-0.055 0.179-0.223 0.2-0.225 0.078-0.122 0.124-0.126 0.126-0.137s0.145-0.183 0.153-0.252c0.050-0.128 0.067-0.236 0.067-0.326s0.013-0.141-0.008-0.175c-0.009-0.109 0.040-0.139 0.059-0.173 0.067-0.122 0.074-0.109 0.078-0.139 0.069-0.174 0.061-0.164 0.074-0.185s0.131-0.16 0.133-0.2c0.063-0.105 0.101-0.231 0.153-0.317s0.088-0.145 0.084-0.168c-0.065-0.044-0.094-0.019-0.126-0.006s-0.179 0.048-0.122 0c0.057-0.048 0.147-0.086 0.149-0.126-0.036-0.090-0.017-0.185-0.029-0.193 0.015-0.097 0.154-0.535 0.23-0.665s0.105-0.239 0.109-0.289c0.071-0.071 0.134-0.189 0.248-0.268s0.252-0.243 0.264-0.302c0.063-0.151 0.151-0.227 0.151-0.26 0.059-0.101 0.201-0.289 0.181-0.314-0.067-0.092-0.030-0.13-0.055-0.147-0.071-0.147-0.075-0.159-0.075-0.193s0.017-0.214-0.017-0.268c-0.034-0.055-0.092-0.193-0.067-0.256-0.013-0.147-0.155-0.163-0.206-0.268s-0.172-0.39-0.21-0.361c-0.038 0.030-0.046 0.071-0.105 0.050s-0.118 0-0.126-0.038c-0.046-0.117-0.117-0.071-0.168-0.097s-0.113-0.025-0.151-0.025c-0.038 0-0.138-0.002-0.153 0.009s-0.074 0.097-0.105 0.118c-0.032 0.021-0.101 0.099-0.145 0.078s-0.067-0.040-0.097-0.036c-0.076-0.015-0.118-0.036-0.139-0.023-0.063 0.006-0.158-0.103-0.191-0.101-0.084 0.082-0.069 0.114-0.105 0.126-0.109 0.002-0.101-0.021-0.145-0.002-0.124 0.061-0.221 0.027-0.253 0.051-0.069 0.023-0.21-0.021-0.233-0.011-0.092 0.019-0.099 0.011-0.109 0.011s-0.059 0.004-0.116-0.030c-0.103-0.051-0.292-0.034-0.321-0.051s-0.067-0.055-0.097-0.046-0.086 0.025-0.128 0.008c-0.101-0.004-0.149 0.057-0.166 0.029-0.080-0.061-0.141-0.078-0.156-0.097-0.057 0-0.124 0.008-0.175 0.006s-0.071-0.099-0.105-0.086c-0.034 0.013-0.126 0.048-0.17 0.048-0.099 0.044-0.132 0.095-0.221 0.124s-0.080 0.032-0.112 0.063c-0.031 0.032-0.12 0.086-0.176 0.069s-0.576-0.187-0.683-0.25c-0.107-0.063-0.234-0.145-0.242-0.164s-0.147-0.027-0.212-0.006c-0.065 0.021-0.372 0.080-0.408 0.109-0.103 0.034-0.225 0.017-0.208 0.044s0.074 0.111-0.008 0.179c-0.082 0.067-0.204 0.112-0.265 0.108s-0.2-0.051-0.166-0.013c0.034 0.038 0.156 0.131 0.114 0.192s-0.074 0.019-0.103 0.011c-0.030-0.008-0.099 0.059-0.105 0.034 0.036-0.181 0.067-0.252-0.021-0.233s-0.17 0.013-0.191 0.057c-0.021 0.044-0.048 0.073-0.101 0.101s-0.238 0.164-0.309 0.221c-0.072 0.057-0.347 0.209-0.528 0.159s-0.332-0.201-0.332-0.178 0.124 0.069 0.074 0.116c-0.050 0.046-0.227 0.027-0.24 0.078s0.053-0.027 0.103 0.057c0.050 0.084-0.027 0.189-0.124 0.236s-0.107 0.086-0.118 0.126c-0.088 0.055-0.132 0.017-0.132 0.055s-0.021 0.132-0.042 0.162c-0.021 0.029-0.076 0.097-0.111 0.080s-0.101-0.103-0.118-0.095c-0.046 0.053-0.053 0.021-0.112 0.029s-0.244 0.122-0.271 0.080c-0.115-0.038-0.2 0.006-0.24-0.021s-0.109-0.088-0.13-0.073c-0.074 0.021 0.034-0.103 0.103-0.128s0.086-0.027 0.124 0 0.042 0.061 0.109 0.042c0.067-0.019 0.225-0.030 0.263-0.004 0.099-0.011 0.292-0.194 0.238-0.212s-0.208-0.027-0.208-0.051c0.151-0.032 0.202 0.002 0.235-0.036 0.088-0.135 0.149-0.219 0.219-0.204s0.168 0.053 0.151 0.027-0.109-0.086-0.065-0.164c0.044-0.078 0.264-0.344 0.335-0.42s0.119-0.123 0.098-0.137c-0.021-0.015-0.183-0.048-0.253 0.006s-0.219 0.116-0.292 0.122c-0.074 0.006-0.107 0.002-0.107-0.027-0.040-0.078-0.229-0.088-0.271-0.055s-0.294 0.242-0.33 0.284c-0.036 0.042-0.227 0.257-0.273 0.305s-0.149 0.118-0.153 0.099c-0.004-0.019 0.105-0.095 0.105-0.139 0.021-0.122 0.193-0.307 0.244-0.37 0.116-0.076 0.152-0.078 0.166-0.107 0.086-0.162 0.097-0.12 0.147-0.145s0.076-0.074 0.12-0.084c0.044-0.011 0.143-0.023 0.175 0.002 0.090 0.019 0.387-0.295 0.41-0.295 0.118-0.010 0.221-0.061 0.246-0.015-0.057 0.126-0.042 0.221-0.050 0.236 0.078 0.044 0.132 0.086 0.168 0.057s0.176-0.215 0.202-0.292c0.025-0.078 0.031-0.122 0.054-0.143s0.147-0.128 0.265-0.286c0.118-0.158 0.229-0.324 0.233-0.381-0.050-0.103-0.090-0.074-0.118-0.029s-0.059 0.136-0.074 0.149c-0.015 0.013-0.078 0.044-0.116 0.076s-0.132 0.013-0.204 0.051c-0.072 0.038-0.128 0.055-0.114 0.019s0.088-0.051 0.088-0.084c0-0.033-0.053-0.156-0.126-0.156s-0.286 0.234-0.322 0.227c-0.036-0.006-0.214-0.164-0.24-0.162s-0.131-0.055-0.12-0.033c-0.005 0.1-0.091 0.078-0.103 0.048-0.074-0.082-0.097-0.074-0.098-0.088-0.067-0.082-0.203-0.098-0.225-0.079-0.097 0.052-0.115 0.042-0.126 0.047-0.060-0.011-0.082-0.036-0.115-0.056s-0.177-0.105-0.181-0.129c0.059-0.069 0.102-0.024 0.115-0.010s0.070 0.007 0.097 0.039c0.027 0.032 0.088 0.094 0.097 0.073 0.047-0.040 0.147-0.020 0.163-0.039 0.060-0.029 0.147-0.020 0.201 0.007 0.085 0.049 0.125 0.008 0.142-0.013 0.074 0.090 0.097 0.143 0.117 0.117s0.121-0.115 0.184-0.115c0.063 0 0.094 0 0.136 0.025 0.065 0.025-0.035-0.114 0.052-0.184s0.067-0.065 0.074-0.101c0.006-0.036-0.027-0.156-0.044-0.153s-0.076 0.042-0.092 0.017c-0.12-0.059-0.173-0.106-0.183-0.155 0.016-0.081 0.096-0.042 0.108-0.022 0.064 0.010 0.122-0.042 0.135-0.002 0.083-0.089 0.074-0.106 0.115-0.135s0.159-0.105 0.232-0.111 0.101 0 0.124-0.025c0.023-0.025 0.029-0.084 0.092-0.111s0.097-0.027 0.097-0.053-0.004-0.143 0.029-0.187c0.034-0.044 0.165-0.197 0.212-0.197s0.025 0.013 0.201-0.126c0.176-0.138 0.264-0.201 0.289-0.201s0.13-0.151 0.206-0.184c0.075-0.034 0.227-0.193 0.269-0.201s0.135-0.148 0.158-0.184c0.034-0.099 0.050-0.137 0.072-0.162s0.103-0.103 0.107-0.126c0.051-0.107 0.090-0.105 0.103-0.135s0.059-0.151 0.139-0.185c0.080-0.034 0.278-0.099 0.305-0.128s0.025-0.040 0.094-0.044c0.069-0.004 0.078-0.008 0.124-0.029s0.214-0.208 0.244-0.253c0.030-0.044 0.059-0.078 0.095-0.105s0.061-0.065 0.084-0.088 0.095-0.166 0.088-0.185c0.013-0.133 0.004-0.162 0.029-0.198 0.069-0.177 0.143-0.202 0.137-0.233 0.021-0.175 0.023-0.236-0.034-0.202s-0.21 0.038-0.236-0.017c-0.025-0.055-0.044-0.326-0.006-0.349s0.065-0.038 0.111-0.082c0.046-0.044 0.055-0.116 0.061-0.141 0.063-0.114 0.054-0.164 0.040-0.183 0.011-0.059 0.101-0.086 0.109-0.118s-0.038-0.21-0.006-0.229c0.013-0.097-0.235-0.103-0.29-0.071s-0.143 0.069-0.168 0.044c-0.061-0.126-0.092-0.177-0.116-0.158s-0.073 0.023-0.103 0.046c-0.084 0.006-0.090-0.019-0.137-0.013s-0.105 0.063-0.13 0.067c-0.099-0.006-0.191 0.004-0.2-0.019s-0.051-0.179-0.109-0.164c-0.059 0.015-0.172 0.105-0.132 0.191s0.136 0.086 0.139 0.116c0.002 0.030 0.101 0.049 0.097 0.093s-0.088 0.149-0.107 0.139c-0.019-0.011-0.042-0.030-0.103-0.036s-0.080 0.002-0.095-0.027c-0.12-0.053-0.217-0.065-0.252-0.027s-0.057 0.076-0.086 0.080c-0.030 0.004-0.156-0.048-0.137-0.074 0.015-0.103-0.115-0.069-0.162-0.055s-0.126 0.036-0.162 0.011c-0.036-0.025-0.080-0.059-0.099-0.032-0.042 0.088-0.053 0.052-0.101 0.086s-0.158 0.086-0.175 0.114-0.067 0.082-0.101 0.107c-0.061 0.042-0.058 0.086-0.083 0.094-0.124-0.049-0.265 0.010-0.301-0.002s-0.13-0.039-0.141-0.018c-0.034 0.054-0.126-0.055-0.155-0.030-0.089 0.006-0.211 0.035-0.233-0.006s-0.014-0.233-0.050-0.195c-0.037 0.038-0.107 0.193-0.129 0.199-0.066 0.060-0.064 0.157-0.087 0.138s-0.109-0.072-0.124-0.069c-0.067-0.013-0.092 0.008-0.103-0.006-0.074-0.002-0.078 0.090-0.099 0.095-0.107 0.021-0.183-0.052-0.194-0.029-0.004 0.151-0.071 0.090-0.080 0.111 0.053 0.158 0.034 0.196 0.015 0.189-0.063-0.101-0.097-0.114-0.105-0.097-0.050-0.111-0.101-0.13-0.147-0.128s-0.105 0.038-0.126 0.025c-0.021-0.013-0.107-0.002-0.118 0.015s-0.053 0.164-0.086 0.179c-0.034 0.015-0.151 0.105-0.153 0.137-0.046 0.128-0.074 0.135-0.074 0.156-0.046 0.088-0.124 0.219-0.135 0.181 0.051-0.177 0.040-0.183 0.061-0.221 0.038-0.114-0.017-0.114 0.040-0.158s0.16-0.164 0.145-0.168c-0.072-0.065-0.057-0.093-0.057-0.145-0.053-0.082-0.105-0.019-0.105-0.046-0.038-0.076-0.099-0.111-0.132-0.141-0.118-0.046-0.097-0.014-0.114-0.029-0.097-0.038-0.137 0.017-0.16-0.008-0.126 0.006-0.185 0.126-0.151 0.175 0.021 0.115-0.025 0.223-0.025 0.236-0.069-0.034-0.124-0.044-0.149 0.004s-0.063 0.139-0.048 0.173c-0.010 0.057-0.139 0.109-0.145 0.124-0.046 0.061-0.099 0.065-0.103 0.097-0.034 0.099-0.158 0.135-0.143 0.103s0.153-0.295 0.212-0.379 0.124-0.179 0.124-0.202c0.046-0.084 0.019-0.137-0.027-0.17s-0.078-0.030-0.107-0.055c-0.044-0.059-0.107-0.027-0.116-0.048-0.021-0.153-0.084-0.177-0.092-0.208-0.006 0.124-0.12 0.116-0.12 0.149 0.036 0.145 0.090 0.16 0.065 0.214s-0.107 0.231-0.12 0.187c-0.017-0.116 0.042-0.166 0.034-0.204s-0.078-0.084-0.078-0.137c0-0.052 0.017-0.133-0.019-0.179s-0.141-0.145-0.2-0.162c-0.059-0.017-0.088 0.006-0.124-0.023-0.090 0.013-0.092 0.057-0.13 0.038s-0.179-0.132-0.2-0.109c-0.021 0.023-0.025 0.259-0.074 0.355s-0.13 0.244-0.166 0.259c-0.099 0.055-0.21 0.107-0.212 0.147s-0.044 0.198-0.023 0.238c0.021 0.040 0.16 0.051 0.16 0.071 0.069 0.067 0.105 0.063 0.13 0.090 0.118 0.071 0.263 0.158 0.24 0.177-0.116 0.011-0.189-0.063-0.214-0.055-0.078 0.011-0.17 0.004-0.149 0.034 0.008 0.052-0.118 0.057-0.078 0.088s0.086 0.080 0.126 0.078c0.040-0.002 0.118 0.008 0.147 0.027-0.006 0.067-0.097 0.048-0.082 0.076s0.141 0.065 0.107 0.080c-0.069 0.086-0.084 0.067-0.103 0.080-0.055-0.013-0.086-0.042-0.112-0.040-0.063-0.027-0.084-0.069-0.099-0.055-0.053-0.027-0.080-0.097-0.115-0.107-0.032 0.177-0.091 0.322-0.084 0.343-0.027 0.128 0.046 0.198 0.032 0.21 0.084 0.074 0.086 0.090 0.074 0.116 0.031 0.17 0.048 0.173 0.057 0.207s0.053 0.114 0.123 0.145 0.256 0.052 0.273 0.038c0.018-0.014 0.094 0.038 0.122 0.027s0.098 0.007 0.127-0.008c0.029-0.016 0.094-0.004 0.138 0.026-0.084 0.038-0.308 0.018-0.285 0.046s0.179 0.166 0.143 0.166c-0.036 0-0.084 0.019-0.12-0.011s-0.095-0.057-0.097-0.088c-0.057-0.053-0.095-0.006-0.116-0.019s-0.137 0.011-0.143-0.017c-0.006-0.027-0.12-0.143-0.143-0.13s-0.118 0.084-0.137 0.080c-0.090 0.027-0.006 0.126-0.025 0.164s-0.044-0.118-0.097-0.12c-0.053-0.002-0.092 0.019-0.103 0.002-0.047-0.004-0.086-0.003-0.1 0.001-0.090 0.040-0.182 0.072-0.195 0.101-0.072 0.074-0.091 0.097-0.094 0.073-0.048-0.111-0.104-0.1-0.126-0.121-0.090-0.069-0.106-0.075-0.107-0.092-0.080 0.057-0.062 0.064-0.081 0.084-0.003 0.058 0.059 0.074 0.085 0.106 0.067 0.108 0.043 0.165 0.063 0.173 0.083 0.030 0.041 0.109 0.071 0.133s0.091 0.007 0.107 0.033c0.041 0.086 0.184 0.048 0.184 0.064-0.1 0.061-0.142 0.049-0.146 0.076 0.1 0.041 0.143 0.049 0.177 0.028-0.055 0.148-0.193 0.132-0.17 0.152 0.104 0.029 0.145 0.044 0.143 0.074-0.012 0.159-0.072 0.2-0.069 0.22-0.026 0.143-0.052 0.151-0.059 0.166-0.117 0.021-0.128 0.045-0.139 0.021-0.079 0.045-0.089 0.138-0.107 0.116s-0.018-0.124-0.090-0.211c-0.072-0.086-0.168-0.184-0.182-0.172s-0.073 0.087-0.073 0.12c0.006 0.129 0.042 0.19 0.062 0.197s0.096 0.024 0.092 0.057c0.056 0.152 0.079 0.163 0.096 0.156 0.121 0.028 0.141 0.060 0.135 0.085 0.075 0.12 0.072 0.137 0.098 0.156 0.067 0.095 0.054 0.104 0.069 0.117s0.135 0.021 0.169 0.056c0.035 0.035 0.085 0.071 0.128 0.088s0.131 0.028 0.141 0.041c0.035 0.099-0.048 0.18-0.070 0.189-0.023 0.053 0.238 0.274 0.275 0.316s0.122 0.023 0.137 0.089c0.015 0.065 0.13 0.29 0.109 0.317-0.042 0.021-0.2-0.313-0.219-0.32s-0.074 0.006-0.093-0.017c-0.019-0.023-0.275-0.286-0.336-0.307s-0.13 0.080-0.223 0.048-0.206-0.080-0.214-0.115c-0.066 0.009-0.079-0.002-0.094-0.015s-0.115-0.027-0.104 0c0.010 0.027 0.073 0.080 0.076 0.098s0.098 0.040 0.12 0.036c0.022-0.004 0.081 0.028 0.099 0.051s0.046 0.158 0.069 0.175c0.023 0.017 0.229 0.040 0.246 0.078 0.040 0.109 0.124 0.173 0.088 0.173s-0.387-0.126-0.406-0.16c-0.019-0.034-0.051-0.118-0.084-0.151s-0.105-0.036-0.13-0.065c-0.025-0.029-0.105-0.092-0.135-0.084s-0.061 0.135-0.055 0.145c-0.044 0.139-0.017 0.255-0.054 0.255s-0.229-0.088-0.265-0.090c-0.097-0.065-0.134-0.242-0.134-0.28-0.097-0.072-0.162-0.158-0.213-0.149s-0.134 0.214-0.128 0.236c0.002 0.149-0.002 0.246 0.021 0.246s0.143 0.038 0.192 0.095c0.048 0.057 0.036 0.221 0.021 0.238-0.021 0.156-0.076 0.097-0.101 0.109 0.023 0.132 0.076 0.164 0.048 0.191s-0.2-0.145-0.238-0.208c-0.021-0.204-0.162-0.313-0.145-0.364 0.027-0.145-0.092-0.086-0.132-0.109s-0.055-0.048-0.103-0.025c-0.048 0.023-0.034 0.048-0.090 0.044s-0.143-0.008-0.126 0.036c0.019 0.147 0.015 0.16 0.038 0.21s0.038 0.215 0.029 0.265c-0.008 0.183 0.027 0.206 0.002 0.212 0.002 0.103 0.084 0.103 0.103 0.133 0.109 0.065 0.252 0.023 0.286 0.078 0.053 0.11 0.114 0.168 0.106 0.205-0.108 0.035-0.306-0.055-0.336-0.045-0.086 0.090-0.131 0.095-0.122 0.115 0.023 0.075-0.064 0.212-0.077 0.302 0.074 0.052 0.084 0.036 0.12 0.061s0.179 0.227 0.187 0.257c0.051 0.16 0.168 0.172 0.175 0.214-0.041 0.076 0.080 0.16 0.097 0.153s0.096-0.054 0.114-0.052c0.091-0.001 0.134-0.015 0.156-0.003s0.036 0.034 0.097 0.034 0.196 0.035 0.172 0.098c-0.101 0.061-0.145 0.048-0.162 0.055-0.090 0.023-0.16-0.027-0.183 0-0.097 0.051-0.090 0-0.118 0-0.032 0.076 0.015 0.206-0.029 0.164s-0.13-0.135-0.151-0.139c-0.076-0.029-0.105-0.086-0.143-0.101-0.078-0.036-0.074-0.072-0.107-0.090-0.101-0.046-0.162-0.089-0.185-0.124-0.067-0.063-0.147-0.038-0.134 0.004-0.065 0.109-0.048 0.297-0.076 0.341s-0.036 0.398-0.011 0.469 0.048 0.101 0.084 0.097c0.036-0.004 0.114-0.010 0.103 0.030s-0.103 0.097-0.078 0.143c0.025 0.046 0.063 0.139 0.084 0.183s-0.053 0.164 0.025 0.255c0.078 0.090 0.151 0.080 0.248 0.008s0.17-0.17 0.231-0.2c0.061-0.029 0.132-0.097 0.185-0.135 0.095 0.048 0.145 0.084 0.116 0.116s-0.214 0.051-0.195 0.078c0.019 0.027 0.191 0.065 0.225 0.093s0.111 0.029 0.151-0.013c0.040-0.042 0.231-0.275 0.273-0.322s0.122-0.116 0.137-0.071-0.065 0.116-0.065 0.141c-0.055 0.116-0.255 0.322-0.307 0.33s-0.107-0.015-0.141 0.017-0.145 0.086-0.172 0.086c-0.027 0-0.067 0.046-0.12 0.034s-0.107-0.046-0.103-0.021c0.034 0.065-0.042 0.084-0.080 0.132-0.067 0.139-0.097 0.29-0.038 0.274s0.067-0.059 0.115-0.046c0.109-0.017 0.139-0.042 0.162-0.027 0.082 0.095 0.141 0.011 0.164 0.042 0.134-0.015 0.164 0.006 0.202-0.006 0.092 0.046 0.233 0.24 0.326 0.292s0.246 0.057 0.227 0.061c-0.019 0.004-0.126 0.17-0.147 0.139s-0.212-0.206-0.252-0.269-0.078-0.126-0.114-0.124c-0.036 0.002-0.172 0.084-0.258 0.097s-0.168 0.046-0.187 0.072c0.002 0.147 0.063 0.158 0.065 0.187-0.038 0.124-0.223 0.248-0.227 0.284-0.002 0.101 0.029 0.206 0.094 0.217s0.242-0.006 0.284 0.034c0.103 0.095 0.139 0.086 0.147 0.109 0.092 0.128 0.172 0.17 0.204 0.16s0.261-0.107 0.32-0.089c0.059 0.019 0.164 0.078 0.103 0.065s-0.152 0.013-0.263 0.029-0.208 0.036-0.219 0.063c-0.046 0.057-0.16-0.008-0.2-0.055s-0.109-0.135-0.141-0.139c-0.032-0.004-0.078 0.019-0.116-0.004-0.101-0.025-0.109 0.017-0.151 0.013s-0.17-0.006-0.183 0.013c-0.048 0.139-0.263 0.296-0.273 0.343 0.036 0.158 0.032 0.25 0.040 0.227 0.076-0.111 0.088-0.143 0.090-0.115 0.057 0.137 0.070 0.143 0.073 0.15 0.038-0.035 0.070-0.078 0.114-0.066s0.159 0.058 0.138 0.086c-0.038 0.083 0 0.195 0.032 0.209s0.175 0.102 0.215 0.085c0.040-0.017 0.065-0.052 0.118-0.057s0.067-0.021 0.107-0.036c0.040-0.015 0.107-0.069 0.12-0.036 0.017 0.084-0.13 0.103-0.225 0.133s-0.147 0.084-0.213 0.069c-0.065-0.015-0.221-0.080-0.25-0.118s-0.038-0.145-0.118-0.175c-0.080-0.029-0.334-0.008-0.359 0.036s-0.093 0.246-0.078 0.271c0.105 0.040 0.162 0.019 0.202 0.033s0.137-0.019 0.252 0.038 0.28 0.088 0.318 0.057c0.038-0.032 0.027-0.055 0.103-0.029s0.101 0.038 0.126 0.017c0.092-0.011 0.095 0.013 0.156-0.008s0.181-0.095 0.147-0.061c-0.034 0.034-0.166 0.158-0.305 0.158s-0.208 0.002-0.221 0.015c-0.013 0.013-0.191 0.029-0.334 0.017s-0.282-0.040-0.292-0.052c-0.011-0.013-0.086-0.145-0.128-0.135-0.042 0.101-0.078 0.114-0.078 0.133-0.023 0.155-0.053 0.179-0.065 0.193s0.116 0.067 0.102 0.104c-0.014 0.037-0.085 0.054-0.102 0.041-0.075-0.029-0.109 0.014-0.125 0.014-0.034 0.071 0.060 0.136 0.082 0.118 0.083-0.038 0.125-0.038 0.15-0.048 0.127-0.018 0.137-0.025 0.178-0.046s0.055-0.022 0.12-0.022c0.065 0 0.22 0.030 0.207 0.057s-0.109 0.015-0.145 0.044c-0.036 0.030-0.162 0.137-0.103 0.137s0.181 0.059 0.212 0.015 0.086-0.183 0.135-0.16c-0.051 0.173-0.023 0.246-0.107 0.269s-0.158-0.038-0.204-0.009c-0.046 0.030-0.048 0.051-0.101 0.055-0.084 0.078-0.090 0.105-0.149 0.059s-0.097-0.051-0.105-0.017c0.069 0.16 0.309 0.282 0.362 0.29-0.093 0.023-0.196 0.017-0.2 0.057-0.063 0.086-0.122 0.006-0.109 0.080s0.074 0.181 0.032 0.191c-0.042 0.011-0.12 0.030-0.12-0.010-0.076-0.090-0.12-0.006-0.134-0.046s-0.141-0.192-0.183-0.221c-0.042-0.030-0.061 0.084-0.126 0.084s-0.286 0.063-0.378 0.040c-0.092-0.023-0.214-0.011-0.244 0.008-0.078 0.052-0.151 0.048-0.151 0.071-0.008 0.078-0.132 0.181-0.116 0.254s0.179 0.242 0.284 0.2c0.105-0.042 0.101-0.080 0.143-0.065 0.097 0.002 0.179-0.029 0.21 0.002s0.059 0.099 0.099 0.097c0.040-0.002 0.183-0.025 0.185-0.010 0.057 0.015 0.145-0.080 0.177-0.044 0.109 0.080 0.206 0.084 0.238 0.057 0.076 0.006 0.078 0.032 0.122 0.023s0.231-0.185 0.233-0.215c0.059-0.044 0.156-0.067 0.202-0.036s0.136 0.13 0.179 0.145c0.080 0.038 0.067 0.040 0.126 0.034s0.084-0.036 0.149-0.032c0.065 0.004 0.095-0.042 0.135-0.015s0.168 0.055 0.145 0.067c-0.023 0.013-0.265 0.013-0.271 0.025s-0.059 0.034-0.164 0.034c-0.105 0-0.097-0.023-0.153-0.029-0.111-0.069-0.162-0.141-0.208-0.139s-0.305 0.236-0.343 0.246-0.114 0.015-0.128 0.040c0.114 0.13 0.174 0.191 0.172 0.231-0.050 0.008-0.116-0.044-0.177-0.059-0.105-0.074-0.141-0.126-0.166-0.124-0.090 0.013-0.139 0.008-0.185 0.008-0.145 0.019-0.153 0.021-0.164 0.042s-0.009 0.16 0.004 0.174c0.082 0.082 0.212 0.316 0.284 0.383s0.132 0.065 0.174 0.097c0.042 0.032 0.137 0 0.168 0.036s0.191 0.088 0.206 0.067c0.015-0.021 0.023-0.13 0.091-0.162-0.044 0.175-0.025 0.229-0.015 0.255 0.092-0.011 0.080 0.010 0.139 0.032s0.128-0.019 0.13 0.023c0.095 0.063 0.332-0.065 0.362-0.107 0.122-0.107 0.155-0.153 0.164-0.185 0.061-0.095 0.107-0.135 0.12-0.164 0.063-0.097 0.103-0.164 0.082-0.189-0.082-0.046-0.172-0.038-0.13-0.063s0.067-0.046 0.132-0.013c0.065 0.034 0.090 0.027 0.126 0.004s0.153-0.227 0.177-0.212c0.118-0.027 0.252-0.17 0.248-0.2 0.044-0.080 0.116-0.154 0.158-0.185 0.084-0.048 0.122-0.027 0.137-0.042 0.097-0.069 0.118-0.074 0.107-0.101 0.006-0.103 0.065-0.175 0.065-0.211 0.065-0.088 0.124-0.141 0.134-0.16s0.191-0.208 0.225-0.25c0.025-0.135-0.044-0.12-0.067-0.141s-0.069-0.074-0.118-0.069c-0.048 0.004-0.225 0.046-0.278 0.030s-0.099-0.021-0.179-0.034c-0.080-0.013-0.084-0.013-0.107-0.046-0.009-0.048 0.044-0.065 0.090-0.046s0.076 0.017 0.143 0.017c0.067 0 0.311-0.008 0.355 0.013s0.107 0.080 0.141 0.078c0.097 0.011 0.132 0.042 0.149 0.021s0.126-0.088 0.126-0.118c0.032 0.046-0.078 0.112-0.078 0.141-0.059 0.082-0.225 0.292-0.257 0.343s-0.307 0.406-0.315 0.456c0.021 0.149 0.168 0.137 0.204 0.151s0.103 0.078 0.162 0.057c0.059-0.021 0.069-0.076 0.152-0.082s0.21-0.002 0.259-0.036 0.040-0.042 0.112-0.046c0.071-0.004 0.065 0.019 0.124 0.019-0.103 0.030-0.13 0.019-0.166 0.053s-0.12 0.067-0.16 0.069c-0.088 0.002-0.179 0.015-0.177 0.036-0.059 0.069-0.103 0.107-0.177 0.082s-0.137-0.061-0.16-0.061-0.112-0.008-0.166 0.057c-0.086 0.067-0.099 0.055-0.153 0.086s-0.193 0.074-0.147 0.103 0.094 0.084 0.080 0.103c-0.015 0.019-0.238 0.185-0.244 0.204s-0.034 0.162-0.055 0.187c0.044 0.086 0.114 0.128 0.074 0.12s-0.118 0.038-0.124 0.023c-0.002 0.173 0.034 0.234 0.103 0.198s0.137-0.16 0.183-0.16c0.046 0 0.103 0.040 0.135 0.013s0.128-0.092 0.132-0.065c0.004 0.027-0.027 0.097-0.080 0.101s-0.097 0.006-0.112 0.023c-0.014 0.017-0.149 0.147-0.176 0.156s-0.093 0.074-0.141 0.063c-0.048-0.010-0.105-0.063-0.139-0.063s-0.166 0.158-0.162 0.187c0.004 0.029 0.137-0.122 0.135-0.086 0.074 0.126 0.029 0.292 0.086 0.303s0.082 0.023 0.112-0.017c0.13-0.084 0.16 0 0.231-0.013s0.116-0.032 0.179 0.006c0.063 0.038 0.12 0.114 0.162 0.095s0.206-0.246 0.219-0.314c0.090-0.080 0.107-0.097 0.137-0.126s0.139-0.248 0.162-0.286c0.023-0.038 0.008-0.057 0.084-0.080 0.015 0.048-0.050 0.099-0.069 0.145s-0.065 0.191-0.095 0.227c-0.084 0.109-0.088 0.135-0.109 0.147-0.040 0.055-0.042 0.12-0.063 0.124-0.063 0.044-0.156 0.202-0.181 0.208-0.099-0.004-0.168 0.048-0.2 0.019s-0.065-0.103-0.082-0.090c-0.055 0.025-0.080 0.002-0.124 0.004s-0.095 0.063-0.116 0.038c-0.021-0.025-0.067-0.061-0.086-0.057s-0.055 0.032-0.109 0.023c-0.055-0.008-0.088-0.006-0.147 0.019-0.107-0.004-0.16 0-0.16 0.017-0.027 0.065-0.080 0.109-0.076 0.141 0.030 0.116-0.101 0.156-0.126 0.219s-0.065 0.252-0.042 0.267c0.023 0.015 0.143-0.065 0.147-0.044 0.095-0.019 0.139-0.067 0.164-0.030s-0.078 0.089-0.095 0.105c-0.099 0.019-0.147 0.089-0.162 0.080s-0.099-0.065-0.13-0.036-0.105 0.093-0.105 0.141c0 0.048-0.050 0.208-0.027 0.229 0.019 0.069-0.032 0.242-0.019 0.261s0.095-0.084 0.12-0.071c0.025 0.013 0.094 0.021 0.12-0.004s0.118-0.105 0.132-0.071c0.025 0.086 0.088 0.143 0.059 0.147s-0.086-0.029-0.107-0.011c-0.082 0.055-0.092 0.034-0.118 0.059s-0.17 0.008-0.145 0.038c0.025 0.029 0.137 0.12 0.12 0.143s-0.257 0.404-0.221 0.429c0.036 0.025 0.269-0.286 0.324-0.267 0.006 0.181-0.051 0.284-0.103 0.343s-0.040 0.107-0.057 0.158c0.065 0.069 0.065 0.090 0.086 0.115 0 0.086 0.065 0.105 0.050 0.149-0.074 0.025-0.168-0.101-0.223-0.069s-0.244 0.353-0.214 0.415 0.134 0.029 0.137 0.002c0.067-0.088 0.246-0.174 0.213-0.13-0.061 0.107-0.067 0.252-0.088 0.261s-0.088 0.017-0.101 0.030c-0.013 0.013-0.34 0.583-0.343 0.656 0.050 0.076 0.309-0.21 0.383-0.221-0.013 0.145-0.088 0.16-0.124 0.231-0.076 0.208-0.244 0.623-0.183 0.698s0.092 0.105 0.118 0.097c0.025-0.008 0.137-0.078 0.118-0.036 0 0.126-0.076 0.189-0.042 0.183s0.313-0.2 0.402-0.292c0.088-0.092 0.25-0.358 0.237-0.295s-0.107 0.349-0.261 0.45c-0.153 0.101-0.257 0.185-0.265 0.208-0.076 0.086-0.138 0.292-0.184 0.342s-0.172 0.105-0.164 0.143c0.008 0.038 0.025 0.197-0.021 0.398s-0.034 0.218-0.088 0.264c-0.067 0.117 0.025 0.272 0.004 0.331s-0.013 0.654-0.054 0.687c-0.042 0.033-0.109 0.033-0.139 0.080s-0.168 0.155-0.168 0.209c0 0.055 0.008 0.369-0.013 0.436 0.034 0.151 0.168 0.26 0.319 0.18s0.243-0.063 0.31-0.084c0.067-0.021 0.315-0.122 0.386-0.272s0.071-0.201 0.038-0.264c-0.034-0.063-0.098-0.139-0.094-0.171-0.013-0.042-0.078 0.008-0.105-0.002s-0.164-0.084-0.107-0.088c0.057-0.004 0.13-0.025 0.174-0.080s0.004-0.147 0.040-0.189c0.036-0.042 0.088-0.055 0.109-0.107 0.019-0.122 0.055-0.274 0.067-0.29 0.050-0.105 0.008-0.337 0.048-0.351 0.097 0.074 0.109 0.088 0.109 0.032s-0.065-0.124-0.074-0.193c-0.008-0.069-0.019-0.143-0.024-0.175 0.025-0.12 0.040-0.143 0.054-0.177s0.021-0.141 0.032-0.166c0.032-0.109-0.006-0.149 0.042-0.195s0.114-0.141 0.151-0.187c0.038-0.046 0.029-0.116 0.074-0.103s0.057 0.004 0.092-0.019c0.105-0.052 0.143-0.033 0.158-0.063s0.027-0.292-0.042-0.368c-0.069-0.076-0.145-0.168-0.172-0.204-0.057-0.069-0.143-0.082-0.13-0.095 0.032-0.090-0.023-0.153-0.025-0.21s-0.013-0.322-0.038-0.353c-0.025-0.032-0.099-0.122-0.071-0.173 0.019-0.164-0.002-0.223 0.015-0.259 0.078 0.021 0.187 0.103 0.225 0.076 0.057-0.089 0.057-0.154 0.086-0.162s0.082-0.008 0.090-0.032c0.008-0.023-0.019-0.276 0.053-0.28 0.105 0.004 0.113-0.138 0.181-0.168s0.086 0.010 0.091-0.038c0.004-0.048 0.042-0.143 0.099-0.191s0.149-0.2 0.193-0.175 0.088 0.036 0.172-0.057c0.084-0.092 0.114-0.166 0.099-0.193 0.025-0.105 0.036-0.151 0.059-0.17 0.072-0.071 0.114-0.183 0.153-0.168 0.103 0.040 0.158-0.002 0.187 0 0.086-0.042 0.338-0.244 0.328-0.21s-0.219 0.269-0.28 0.282c-0.061 0.013-0.166 0.051-0.271 0.196s-0.072 0.17-0.078 0.198c-0.143 0.17-0.229 0.231-0.263 0.242s-0.204 0.044-0.221 0.095c-0.017 0.162-0.164 0.301-0.202 0.355s-0.051 0.117-0.092 0.163c-0.042 0.046-0.008 0.105-0.096 0.209s-0.122 0.147-0.122 0.185c-0.005 0.137-0.002 0.139 0.016 0.17 0.019 0.116-0.050 0.366-0.040 0.385 0.042 0.164 0.181 0.212 0.174 0.244-0.002 0.12 0.065 0.099 0.076 0.107 0.057 0.051 0.067 0.007 0.103 0.028 0.063 0.080 0.088 0.065 0.113 0.083 0.056-0.069 0.016-0.155-0.001-0.202s-0.098-0.214-0.050-0.255c0.048-0.040 0.141-0.101 0.141-0.143s-0.019-0.181-0.002-0.229c0.025-0.158 0.032-0.198 0.046-0.177 0.044 0.139-0.008 0.217 0.046 0.292s0.254 0.314 0.301 0.314c0.046 0 0.107 0.013 0.107-0.015s-0.057-0.294-0.099-0.351c-0.042-0.057-0.101-0.095-0.103-0.137-0.029-0.109-0.065-0.145-0.038-0.187s0.057-0.17 0.057-0.137 0.021 0.297 0.065 0.345c0.044 0.048 0.141 0.168 0.168 0.244s0.048 0.267 0.048 0.326c0.023 0.103 0.074 0.099 0.090 0.118s0.141 0.053 0.166 0.006c0.088-0.183 0.109-0.217 0.109-0.244 0.019-0.139 0.025-0.21 0.053-0.248s0.118-0.156 0.097-0.179-0.053-0.063-0.095-0.078c-0.081-0.049-0.147-0.094-0.131-0.105 0.077-0.041 0.195 0.061 0.229 0.060 0.036-0.117-0.003-0.201 0.011-0.223-0.017-0.145-0.008-0.2-0.023-0.215 0.032-0.062 0.063-0.084 0.085-0.118s0.076-0.156 0.050-0.179c-0.025-0.023-0.195-0.112-0.162-0.193 0.053-0.152 0.004-0.263 0.015-0.295 0.124 0.112 0.153 0.154 0.134 0.211 0.015 0.206 0.019 0.202 0.061 0.179s0.112-0.113 0.114-0.145c0.059-0.147 0.101-0.24 0.135-0.292s0.038-0.099 0.092-0.143 0.099-0.164 0.107-0.114c-0.040 0.145-0.225 0.41-0.242 0.454s-0.065 0.189-0.093 0.219c-0.118 0.187-0.189 0.362-0.174 0.404 0.063 0.154 0.034 0.271 0.055 0.276 0.061 0.078 0.002 0.151 0.088 0.183s0.233-0.004 0.257-0.032c-0.092-0.082-0.090-0.13-0.132-0.189s-0.141-0.274-0.135-0.328c0.061-0.074 0.118-0.017 0.12 0.013s0.034 0.179 0.067 0.223c0.090 0.101 0.101 0.090 0.128 0.13s0.101 0.008 0.143 0.052c0.042 0.044 0.12 0.12 0.126 0.153 0.051 0.124 0.063 0.101 0.153 0.151s0.202 0.105 0.244 0.109c0.124 0.025 0.219 0.053 0.297 0.074s0.126 0.002 0.158 0.029c0.032 0.027 0.164 0.116 0.204 0.152-0.015 0.021-0.044 0.057-0.103 0.008s-0.115-0.126-0.158-0.128c-0.042-0.002-0.326-0.002-0.368-0.017s-0.099-0.027-0.16-0.042-0.084 0.013-0.151-0.002c-0.067-0.015-0.238-0.12-0.269-0.115s-0.063 0.010-0.107-0.036c-0.044-0.046-0.051-0.055-0.088-0.055-0.086 0.019-0.12 0.002-0.139 0.002s-0.099 0.078-0.151 0.103c-0.078 0.078-0.021 0.107-0.053 0.156-0.074 0.174-0.114 0.231-0.112 0.248 0.048 0.137 0.036 0.471 0.048 0.492 0.067 0.111 0.13 0.174 0.13 0.229s-0.030 0.276-0.076 0.307c-0.046 0.032-0.122 0.055-0.122 0.099 0.053 0.175 0.12 0.196 0.164 0.261s0.198 0.198 0.166 0.219c0.078 0.094 0.063 0.13 0.116 0.109s0.080-0.027 0.118-0.002c0.078 0.055 0.233 0.16 0.297 0.248s0.099 0.299 0.051 0.307c0.036 0.057 0.048 0.114 0.065 0.137 0.095 0.101 0.082 0.341 0.063 0.381-0.036 0.050-0.032 0.158-0.086 0.181s-0.338 0.094-0.383 0.195c-0.044 0.101-0.032 0.309-0.057 0.341s-0.162 0.082-0.162 0.105c-0.099 0.128-0.145 0.139-0.126 0.162s0.047 0.261 0.026 0.307c-0.021 0.046-0.076 0.138-0.076 0.193-0.042 0.172-0.252 0.336-0.268 0.398-0.071 0.155-0.243 0.278-0.243 0.307s0.002 0.244-0.072 0.358c-0.074 0.113-0.149 0.208-0.149 0.24s-0.055 0.168-0.008 0.221c0.046 0.053 0.231 0.454 0.235 0.549s-0.029 0.177-0.116 0.149-0.151-0.12-0.149-0.198c0.023-0.158 0.038-0.145 0.027-0.181-0.044-0.147-0.050-0.149-0.069-0.189s-0.023-0.139-0.090-0.139-0.092 0.070-0.141 0.071c-0.048 0.002-0.099-0.006-0.114 0.030s-0.076 0.482-0.050 0.572c0.025 0.090 0.141 0.24 0.139 0.288 0.025 0.107 0.261 0.355 0.286 0.37s0.076 0.036 0.088 0.074c0.046 0.093 0.111 0.126 0.149 0.162 0.035 0.152 0.099 0.184 0.085 0.207-0.005 0.095 0.159 0.123 0.125 0.139-0.037 0.076 0.051 0.143 0.025 0.164s-0.118 0.089-0.108 0.118c0.057 0.111 0.193 0.252 0.232 0.253s0.066 0.003 0.091 0.017c0.025 0.014 0.048 0.056 0.089 0.044-0.038-0.045-0.087-0.127-0.090-0.176s0.136-0.124 0.091-0.143c-0.044-0.019-0.171-0.115-0.167-0.134-0.038-0.185-0.040-0.202-0.054-0.24s-0.112-0.149-0.097-0.183c0.002-0.128-0.074-0.221-0.059-0.246s0.176-0.204 0.26-0.267c0.084-0.063 0.159-0.034 0.15-0.070 0.038-0.063 0.065-0.053 0.092-0.059 0.095 0.067 0.12 0.151 0.177 0.202s0.214-0.004 0.273 0.063c0.059 0.067 0.128 0.175 0.24 0.242s0.181 0.071 0.206 0.12c0.025 0.048 0.053 0.194 0.086 0.213s0.126-0.002 0.126 0.027c0.040 0.086 0.193 0.208 0.265 0.238s0.092 0.025 0.151 0.065c0.059 0.040 0.143 0.061 0.185 0.023s0.137-0.172 0.116-0.195c-0.021-0.023-0.101-0.105-0.082-0.173 0.040-0.168-0.021-0.179-0.006-0.212 0.036-0.166 0.057-0.177 0.059-0.153-0.046-0.153-0.21-0.191-0.216-0.229s-0.006-0.164-0.029-0.189c0-0.17 0.071-0.2 0.071-0.231-0.046-0.187-0.080-0.219-0.055-0.21s0.063 0.019 0.084 0.078c0.021 0.059 0.034 0.244 0.048 0.257 0.094 0.086 0.315 0.231 0.349 0.229 0.109 0.023 0.137-0.051 0.166-0.071 0.055-0.069 0.046-0.089 0.105-0.095 0.025 0.199 0.019 0.233 0.013 0.254 0.002 0.107 0.040 0.12 0.080 0.124 0.122 0.135 0.124 0.137 0.145 0.162s0.072 0.044 0.092 0.027c0.063-0.013 0.103 0.105 0.143 0.086s-0.002-0.28 0.006-0.315c0.008-0.036 0.101-0.133 0.116-0.153 0.078 0.139 0.080 0.181 0.059 0.21s-0.122 0.155-0.048 0.196c0.074 0.040 0.072 0.011 0.103-0.008 0.105 0.002 0.151 0.042 0.177 0.052s0.122-0.078 0.147-0.101c0.025-0.023 0.143-0.044 0.168-0.069s0.092-0.025 0.105-0.051c0.088-0.084 0.151-0.076 0.151-0.103s-0.13-0.128-0.109-0.164c0.034-0.095 0.042-0.147 0.065-0.149 0.032-0.042 0.059-0.23 0.067-0.198s0.014 0.099 0.048 0.145 0.088 0.155 0.126 0.149c0.038-0.006 0.132-0.089 0.156-0.126 0.107-0.074 0.141-0.105 0.158-0.078 0.133 0.038 0.225 0.025 0.261 0.040s0.103 0.061 0.105 0.025c0.061-0.097 0.124-0.174 0.124-0.208-0.072-0.114-0.116-0.193-0.103-0.221 0.032-0.162 0.002-0.206 0.029-0.255 0.027-0.17-0.019-0.227-0.002-0.221s0.076 0.059 0.078 0.113c0.002 0.055 0.014 0.114 0.067 0.15s0.257 0.078 0.32 0.015c0.057-0.12 0.042-0.147 0.057-0.156s0.135 0.116 0.168 0.122 0.221 0.015 0.248-0.004c0.027-0.019 0.088-0.019 0.122 0.004s0.084 0.074 0.122 0.052c0.103-0.019 0.118-0.019 0.16-0.033s0.004-0.042 0.122-0.023c0.118 0.019 0.16 0.076 0.191 0.084s0.107-0.103 0.153-0.105c0.090-0.008 0.198-0.082 0.223-0.065-0.059 0.099-0.076 0.162-0.101 0.181 0.114 0.055 0.158 0.101 0.185 0.101-0.132 0.013-0.246 0.114-0.32 0.122s-0.263-0.164-0.317-0.164c-0.055 0-0.286 0.053-0.33 0.086s-0.135 0.145-0.103 0.174c0.032 0.030 0.095 0.057 0.122 0.049s0.147-0.093 0.181-0.055c-0.080 0.057-0.050 0.090-0.074 0.105-0.109 0.051-0.139 0.034-0.137 0.055-0.025 0.086-0.080 0.006-0.113-0.003-0.109-0.018-0.115-0.030-0.142-0.023s-0.171 0.167-0.18 0.194c-0.025 0.154-0.153 0.391-0.153 0.419s0.048 0.217 0.027 0.263c-0.021 0.046-0.296 0.282-0.303 0.295-0.050 0.183-0.168 0.288-0.172 0.318-0.038 0.101-0.071 0.103-0.067 0.13s0.033 0.421-0.013 0.517c-0.046 0.096-0.088 0.067-0.088 0.099-0.055 0.187-0.149 0.181-0.143 0.219s0.072 0.166 0.099 0.183c0.027 0.017 0.032-0.027 0.137 0.149s0.29 0.301 0.296 0.353c0.006 0.052 0.015 0.074 0.076 0.16s0.019 0.109 0.103 0.202c0.084 0.093 0.111 0.076 0.113 0.065 0.040 0.17 0.045 0.248 0.030 0.288-0.006 0.168 0.33 0.725 0.368 0.746s0.084 0.025 0.114-0.008c0.118 0.007 0.202-0.048 0.2-0.084s-0.105-0.149-0.053-0.185c0.053-0.036 0.078-0.034 0.090-0.065-0.105-0.147-0.181-0.162-0.114-0.151s0.103-0.025 0.164 0.042c0.061 0.067 0.023 0.090 0.069 0.12-0.006 0.12-0.047 0.215-0.048 0.288s0.029 0.136-0.048 0.151c-0.078 0.015-0.128-0.006-0.107 0.019s0.086 0.073 0.074 0.117c-0.013 0.044-0.038 0.265-0.015 0.288s0.181-0.063 0.194-0.027c0.012 0.036-0.019 0.172 0.031 0.16s0.128-0.069 0.162-0.101 0.019-0.074 0.092-0.145c0.074-0.071 0.145-0.225 0.166-0.258 0.004-0.156 0.023-0.212 0.046-0.225 0.038-0.135 0.017-0.204 0.048-0.2s0.053 0.076 0.076 0.099c-0.019 0.179 0.115 0.231 0.103 0.265 0.038 0.133 0.225 0.097 0.244 0.065s0.097-0.191 0.156-0.216c0.059-0.025 0.132-0.057 0.179-0.093s0.050-0.088 0.090-0.109c0.038-0.139 0.126-0.046 0.113-0.017s-0.134 0.173-0.191 0.204c-0.057 0.032-0.103 0.032-0.099 0.057s0.158 0.208 0.158 0.257c0.053 0.097 0.092 0.069 0.103 0.090-0.025 0.143-0.095 0.196-0.084 0.213-0.021 0.078-0.092 0.168-0.126 0.17s-0.112-0.008-0.105 0.015c0.006 0.023-0.074 0.187-0.109 0.212 0.023 0.183-0.015 0.349 0.036 0.32s0.114-0.2 0.122-0.177c0.076 0.025 0.105-0.065 0.091-0.103 0.044-0.084 0.084 0.151 0.046 0.202s-0.088 0.099-0.090 0.076c-0.023 0.132 0.17 0.181 0.097 0.181s-0.105-0.033-0.134 0.002c-0.029 0.036-0.155 0.156-0.166 0.126-0.095-0.071-0.336 0.042-0.336 0.074 0.048 0.12 0.082 0.12 0.067 0.132-0.004 0.090 0.084 0.215 0.067 0.227-0.090-0.034-0.176-0.072-0.183-0.109-0.019-0.132 0.004-0.212-0.019-0.223s-0.126 0.014-0.128 0.044c-0.002 0.029-0.084 0.901-0.042 0.989s0.298 0.214 0.357 0.188c0.059-0.025 0.080-0.075 0.105-0.034s0.205 0.024 0.244 0.012c0.039-0.012 0.229-0.085 0.261-0.081-0.029 0.059-0.142 0.044-0.142 0.073s0.12 0.164 0.063 0.143-0.124-0.124-0.168-0.111c-0.095 0.044-0.107 0.034-0.109 0.050-0.048 0.040-0.149 0.006-0.147 0.036-0.065 0.133-0.538 0.712-0.601 0.867s-0.059 0.197-0.017 0.256c0.042 0.059 0.134 0.126 0.134 0.155 0.075 0.222 0.138 0.293 0.113 0.323 0.049 0.081 0.11 0.225 0.116 0.277s0.111 0.28 0.187 0.334c0.075 0.055 0.243 0.235 0.336 0.247s0.113-0.017 0.172 0.013 0.054 0.071 0.101 0.038c0.046-0.033 0.086-0.149 0.136-0.159 0.091-0.021 0.091-0.046 0.12-0.044 0.086-0.027 0.116-0.038 0.132-0.027-0.067 0.090-0.080 0.122-0.128 0.122s-0.12-0.013-0.122 0.046c-0.023 0.17-0.061 0.24-0.12 0.227s-0.187-0.061-0.208-0.028c-0.042 0.080-0.282 0.034-0.349-0.050s-0.097-0.139-0.103-0.168c-0.055-0.128-0.16-0.236-0.164-0.288-0.021-0.145-0.010-0.166-0.042-0.198-0.046-0.099-0.042-0.158-0.086-0.175s-0.198 0.084-0.236 0.122c-0.038 0.038-0.092-0.027-0.242 0.092s-0.179 0.116-0.137 0.177c0.042 0.061 0.275 0.328 0.315 0.37 0.074 0.149 0.097 0.137 0.076 0.155 0.013 0.068 0.195 0.122 0.164 0.133s-0.143 0.038-0.134 0.059c0.008 0.021 0.153 0.084 0.132 0.093 0.029 0.156 0.116 0.236 0.061 0.204s-0.276-0.147-0.29-0.17c-0.082-0.086-0.090-0.067-0.2-0.17s-0.225-0.185-0.265-0.217c-0.040-0.031-0.086-0.048-0.090-0.069-0.116-0.093-0.185-0.124-0.187-0.158-0.069-0.069-0.139-0.027-0.166-0.013s-0.097-0.025-0.147-0.002c-0.050 0.023-0.214 0.114-0.252 0.114-0.116 0.034-0.135 0.044-0.151 0.067-0.101 0.046-0.353 0.196-0.41 0.173s-0.088-0.021-0.128-0.021c-0.040 0-0.265-0.006-0.315-0.040-0.097-0.128-0.112-0.105-0.132-0.128-0.054-0.053-0.183 0.006-0.212-0.019-0.099-0.116-0.242-0.152-0.214-0.095s0.158 0.187 0.153 0.229c-0.004 0.042 0.187 0.128 0.162 0.173s-0.092 0.116-0.086 0.147c-0.067-0.155-0.055-0.223-0.111-0.236s-0.074 0.019-0.095 0.009c-0.086 0.025-0.179 0.099-0.219 0.105s-0.103-0.004-0.141 0.025c-0.038 0.030-0.263 0.196-0.292 0.2s-0.076-0.006-0.097 0.008c-0.078 0.011-0.092-0.019-0.114-0.011-0.103 0.011-0.105-0.008-0.118 0.008s-0.099 0.095-0.149 0.122c-0.051 0.027-0.141 0.067-0.145 0.086-0.032 0.112-0.269 0.335-0.324 0.406s-0.095 0.113-0.092 0.143c-0.099 0.038-0.086 0.124-0.069 0.17s0.015 0.214-0.015 0.248c-0.065 0.063-0.172 0.175-0.21 0.227-0.086 0.065-0.139 0.057-0.168 0.090s-0.28 0.329-0.314 0.345c-0.035 0.017-0.123 0.038-0.145 0.018-0.094 0.039-0.186 0.068-0.199 0.086s-0.043 0.114-0.070 0.122c-0.091 0.039-0.141 0.094-0.136 0.111-0.027 0.081-0.088 0.080-0.091 0.088-0.070 0.112-0.127 0.091-0.127 0.119-0.032 0.135-0.137 0.204-0.137 0.238-0.021 0.168 0.055 0.229 0.082 0.196 0.082-0.141 0.139-0.145 0.158-0.122 0.053 0.008 0.088-0.038 0.118-0.027 0.147 0.004 0.181-0.011 0.179-0.044 0.031-0.071 0.094-0.093 0.124-0.071s0.168 0.126 0.172 0.149c0.040 0.151 0.067 0.059 0.12 0.050s0.17-0.021 0.177-0.044c-0.053-0.021-0.145-0.055-0.145-0.090 0.046-0.179 0.097-0.168 0.099-0.191 0.019-0.084 0.040-0.175 0.124-0.196s0.134-0.021 0.151-0.046c0.017-0.025 0.017-0.065 0.137-0.063s0.134 0.023 0.139-0.004c0.105-0.109 0.24-0.082 0.271-0.099s0.040-0.025 0.105-0.025c0.065 0 0.174 0.030 0.204 0.046s0.053 0.036 0.092 0.015c0.040-0.021 0.080-0.135 0.114-0.12 0.124 0.046 0.128 0.004 0.16 0.011 0.063-0.019 0.114-0.080 0.134-0.086s-0.025 0.12-0.061 0.132c-0.103 0.053-0.088 0.095-0.122 0.097s-0.229-0.008-0.229 0.023c0 0.032 0.063 0.202 0.107 0.276-0.013 0.181-0.105 0.263-0.090 0.288s0.147 0.204 0.227 0.324c0.080 0.12 0.093 0.23 0.132 0.215s0.090-0.036 0.101-0.055c0.084-0.038 0.206-0.059 0.244-0.078 0.027 0-0.172 0.137-0.193 0.158s-0.149 0.061-0.155 0.097c-0.061 0.12-0.153 0.223-0.223 0.359s-0.082 0.162-0.061 0.2c0.021 0.038 0.154 0.221 0.185 0.309 0.082 0.128 0.34 0.071 0.395 0.053s0.094-0.065 0.124-0.042c-0.090 0.103-0.25 0.265-0.324 0.255s-0.092-0.080-0.099-0.063c-0.006 0.017 0.027 0.317 0.008 0.339s-0.118 0.162-0.118 0.214c-0.014 0.154-0.040 0.202-0.027 0.23-0.030 0.107-0.11 0.255-0.127 0.318s-0.172 0.394-0.273 0.503c-0.101 0.109-0.159 0.134-0.201 0.134s-0.265 0.243-0.357 0.231c-0.092-0.013-0.068-0.079-0.161 0.013s-0.179 0.227-0.223 0.234c-0.044 0.006-0.101 0.002-0.116 0.032s-0.101 0.2-0.198 0.198c-0.097-0.002-0.13-0.084-0.16-0.055-0.105 0.017-0.151-0.011-0.191-0.002s-0.088 0.071-0.132 0.065c-0.109 0.002-0.175-0.027-0.171-0.008 0.042 0.128 0.086 0.181 0.086 0.208-0.132-0.057-0.179-0.065-0.183-0.084-0.048-0.008-0.099 0.038-0.092 0.067-0.023 0.092-0.139 0.267-0.166 0.276s-0.124 0.008-0.145 0.029c-0.015 0.154 0.040 0.183 0.019 0.196s-0.229 0.019-0.238-0.006-0.061-0.082-0.090-0.069c-0.008 0.099-0.048 0.139-0.069 0.152s-0.103 0.034-0.112 0.054c-0.102 0.006-0.154 0.008-0.142-0.011-0.053-0.127-0.069-0.079-0.082-0.102-0.080-0.030-0.159-0.026-0.157-0.041-0.027-0.022-0.11 0.021-0.090 0.043 0.010 0.168 0.047 0.194 0.039 0.208-0.051 0.107-0.094 0.115-0.102 0.12s-0.084 0.052-0.091 0.037c-0.069 0.002-0.114 0.076-0.146 0.070s-0.132-0.001-0.131 0.011c-0.045 0.077-0.138 0.098-0.148 0.109s-0.084 0.107-0.12 0.099-0.072-0.034-0.103-0.011c-0.011 0.166-0.080 0.187-0.072 0.211 0.080 0.089 0.11 0.076 0.129 0.055 0.076-0.033 0.103-0.033 0.11-0.045 0.104 0.002 0.14 0.032 0.169 0.036 0.102 0.010 0.122 0.051 0.165 0.052s0.067-0.040 0.1-0.006c0.033 0.034 0.109 0.14 0.105 0.178 0.035 0.097 0.081 0.284 0.010 0.366s-0.082 0.046-0.097 0.030-0.116-0.006-0.13 0.008c-0.073 0.103-0.090 0.094-0.1 0.115-0.091 0.1-0.202 0.065-0.195 0.086 0.083 0.067 0.125 0.054 0.151 0.071 0.063 0.121 0.075 0.232 0.103 0.227 0.010-0.18 0.014-0.223 0.024-0.233 0.054-0.013 0.067 0.047 0.091 0.047 0.099-0.023 0.135 0.037 0.139-0.005 0.034-0.132 0.097-0.145 0.106-0.158 0.010 0.187 0 0.2 0.020 0.2s0.111 0.020 0.128 0.003c0.070 0.005 0.1 0.032 0.139 0.031s0.19-0.016 0.231-0.029c0.041-0.014 0.108 0.004 0.127-0.008s0.102-0.076 0.101-0.057c-0.024 0.095-0.070 0.086-0.072 0.111s0.062 0.060 0.091 0.067c-0.082 0.012-0.128 0.007-0.138-0.003-0.084 0.003-0.152 0.023-0.128 0.032s0.070-0.010 0.108 0.015c-0.056 0.098-0.12 0.051-0.15 0.069-0.072-0.022-0.12-0.052-0.145-0.060-0.080-0.032-0.167-0.062-0.167-0.035 0.004 0.076-0.069 0.084-0.089 0.081-0.086-0.078-0.11-0.088-0.12-0.071-0.019 0.103 0.121 0.116 0.141 0.128 0.062 0.158 0.092 0.183 0.069 0.198 0.096 0.119 0.098 0.13 0.134 0.129s0.043-0.022 0.104 0.008c0.061 0.029 0.109 0.036 0.118 0.052 0.044 0.038 0.084 0.017 0.099-0.026 0.086-0.073 0.064-0.125 0.102-0.134 0.075-0.034 0.107-0.114 0.14-0.103s0.098-0.011 0.107-0.014c0.010-0.003 0.089 0.011 0.113 0.027s0.119 0.023 0.144-0.008c0.071-0.063 0.149-0.064 0.166-0.083 0.069-0.128 0.056-0.139 0.087-0.168 0.033-0.083-0.016-0.169 0-0.186s0.014-0.113 0.201-0.115c0.187-0.002 0.246 0.008 0.275-0.008 0.151-0.023 0.511 0 0.521-0.023s-0.114-0.122-0.105-0.16c-0.055-0.13-0.099-0.174-0.065-0.166s0.172 0.029 0.17 0.069c0.046 0.115 0.126 0.141 0.139 0.122s0.074-0.183 0.122-0.202c0.048-0.019 0.151-0.032 0.177-0.059-0.019 0.078-0.118 0.069-0.137 0.114s-0.103 0.204-0.061 0.24c0.042 0.036 0.204 0.053 0.21 0.080s0.158 0.063 0.12 0.068c-0.038 0.004-0.151 0.019-0.172 0.014s-0.088-0.067-0.137-0.048c-0.048 0.019-0.029 0.143 0.107 0.252s0.238 0.116 0.242 0.095c0.055-0.040 0.139-0.040 0.185-0.055s0.162-0.017 0.206 0.036c0.044 0.052 0.049 0.147 0.086 0.116 0.097-0.038 0.238-0.084 0.252-0.051-0.044 0.13-0.187 0.109-0.229 0.158s-0.053 0.101-0.095 0.095c-0.042-0.006-0.147-0.059-0.155-0.034-0.067 0.008-0.082-0.010-0.098-0.005-0.072-0.011-0.163 0.089-0.183 0.098-0.061 0.046 0.003 0.176-0.029 0.229-0.118 0.051-0.174 0.061-0.132 0.082s0.147-0.017 0.21 0.040c0.063 0.057 0.185 0.13 0.213 0.093 0.12-0.067 0.183-0.011 0.198-0.017 0.078-0.177 0.158-0.223 0.2-0.187s0.147 0.124 0.179 0.095c0.032-0.030 0.051-0.090 0.088-0.067 0.112 0.006 0.103-0.004 0.132 0.010 0.011-0.147 0.156-0.255 0.244-0.277 0.122-0.013 0.118-0.021 0.16-0.040s0.114-0.042 0.156-0.034c0.042 0.008 0.107-0.090 0.109-0.078-0.010 0.137-0.042 0.158-0.013 0.193s0.086 0.135 0.114 0.109c0.067-0.015 0.151 0.067 0.13 0.056s-0.102-0.035-0.109-0.019c0.088 0.204 0.13 0.272 0.145 0.347 0.070 0.152 0.095 0.17 0.112 0.215s0.038 0.107 0.080 0.090c0.088-0.002 0.059 0.021 0.101-0.002 0.103-0.015 0.137-0.001 0.148 0 0.039 0.107 0.106 0.17 0.177 0.227s0.099 0.212 0.147 0.232c0.048 0.020 0.313 0.024 0.396 0.040s0.336 0.073 0.414 0.042 0.124-0.059 0.156-0.055c0.112-0.019 0.16-0.086 0.187-0.071 0.097 0.002 0.149 0.013 0.16 0.013 0.084 0.002 0.116-0.036 0.116-0.067s0.063-0.185 0.021-0.183c-0.042 0.002-0.137 0-0.101-0.023 0.076-0.103 0.12-0.082 0.105-0.112 0.103-0.033 0.128-0.128 0.198-0.149s0.076-0.019 0.107-0.038c0.032-0.019 0.166-0.145 0.219-0.162s0.101-0.057 0.114-0.084c0.065-0.122 0.053-0.151 0.044-0.17-0.002-0.173-0.002-0.227 0.019-0.236 0.067 0.141 0.072 0.17 0.053 0.192 0.019 0.13-0.021 0.166-0.002 0.193s0.151 0.015 0.181 0.029c0.114 0.019 0.132-0.017 0.168-0.031s0.116-0.011 0.143-0.032c0.027-0.021 0.225-0.166 0.32-0.185s0.164 0.004 0.179-0.030c0.015-0.033 0.042-0.088 0.099-0.126 0.072-0.114 0.021-0.177 0.053-0.181 0.109-0.006 0.156-0.050 0.162-0.084 0.063-0.116 0.366-0.351 0.408-0.366 0.059-0.074 0.069-0.126 0.097-0.141s0.198-0.151 0.242-0.179c0.053-0.105-0.12-0.090-0.101-0.175s0.082-0.237 0.131-0.206 0.134 0.135 0.183 0.137c0.038-0.080 0.065-0.162 0.084-0.198 0.015 0.12 0.038 0.196 0.015 0.217s-0.078 0.057-0.126 0.040c-0.048-0.017-0.137-0.132-0.164-0.099 0.082 0.164 0.151 0.168 0.166 0.212-0.158 0.193-0.12 0.227-0.174 0.223s-0.076-0.029-0.103 0.011c-0.027 0.040-0.097 0.217-0.153 0.257s-0.075 0.042-0.139 0.090c-0.063 0.049-0.151 0.183-0.168 0.221s-0.071 0.134-0.109 0.172c-0.038 0.038-0.084 0.063-0.092 0.092s-0.105 0.076-0.13 0.126c-0.025 0.051 0.017 0.139-0.034 0.189s-0.114 0.163-0.118 0.214c-0.075 0.094-0.079 0.143-0.129 0.13s-0.042-0.049-0.097-0.029c-0.114 0.062-0.132 0.051-0.144 0.064s-0.233 0.27-0.276 0.326c-0.042 0.057-0.090 0.168-0.132 0.2s-0.105-0.030-0.128-0.017c-0.023 0.013-0.177 0.067-0.149 0.069 0.065 0.137-0.057 0.176-0.047 0.195s0.056 0.14 0.049 0.158c-0.004 0.096-0.010 0.173 0.004 0.182-0.043-0.045-0.028-0.126-0.051-0.142s-0.15-0.049-0.115-0.020c0.035 0.030 0.070 0.109 0.066 0.145s-0.082 0.184-0.055 0.219c0.027 0.036 0.084 0.17 0.097 0.195-0.063 0.109-0.099 0.257-0.126 0.284-0.078 0.059-0.124 0.111-0.112 0.069 0.059-0.132 0.078-0.13 0.080-0.158-0.046-0.046-0.107 0.025-0.149-0.004s-0.095-0.057-0.128-0.052c-0.034 0.004-0.16 0.015-0.183 0.036-0.152 0.015-0.158 0.017-0.172 0.032s-0.126 0.084-0.172 0.071c-0.046-0.013-0.061 0.099-0.107 0.055s-0.046-0.006-0.105-0.019c-0.059-0.013-0.351 0.006-0.406-0.036s-0.107-0.128-0.12-0.128c-0.105-0.053-0.204-0.137-0.322-0.145s-0.181-0.025-0.208-0.002c-0.027 0.023-0.070 0.118-0.124 0.089-0.149-0.044-0.441-0.122-0.519-0.122-0.090-0.027-0.105-0.061-0.13-0.046s-0.078 0.089-0.136 0.086c-0.124-0.020-0.205 0.052-0.253 0.036s-0.062-0.026-0.101-0.025c-0.039 0.001-0.125 0.081-0.211 0.080s-0.173-0.004-0.2 0.012c-0.095 0.038-0.148-0.005-0.173-0.005s-0.219 0.030-0.251 0.049c-0.031 0.019-0.085 0.035-0.132 0.040s-0.122 0.001-0.127 0.019c0.001 0.175-0.009 0.264-0.032 0.281s-0.183 0.025-0.17 0.048c0.090 0.107 0.061 0.131 0.084 0.137 0.042 0.052 0.067 0.256 0.105 0.282s0.101-0.093 0.164-0.089c0.063 0.004 0.069-0.006 0.107-0.021s0.048-0.040 0.092-0.023c0.045 0.017 0.067 0.046 0.137 0.069s0.143 0.006 0.126 0.021c-0.099 0.040-0.124 0.040-0.176 0.023-0.088-0.004-0.084 0.011-0.118 0.011s-0.168-0.004-0.193 0.071c-0.048 0.139-0.072 0.164-0.076 0.191-0.061-0.105-0.067-0.126-0.075-0.135-0.069 0.066-0.146 0.116-0.242 0.212s-0.093 0.167-0.209 0.173c-0.115 0.006-0.162 0.013-0.214-0.036s-0.078-0.080-0.135-0.105c-0.057-0.025-0.076-0.011-0.12-0.036s-0.187-0.021-0.233-0.013c-0.048 0.162-0.048 0.332-0.082 0.446s-0.088 0.143-0.099 0.206c-0.011 0.063 0.061 0.219 0.053 0.292s0.004 0.446-0.034 0.48-0.164 0.111-0.206 0.143c-0.042 0.032-0.141 0.112-0.147 0.153-0.036 0.116-0.219 0.271-0.269 0.315s-0.134 0.055-0.141 0.076c-0.021 0.164-0.044 0.198-0.036 0.231s-0.044 0.149-0.090 0.175c-0.046 0.025-0.158 0.046-0.174 0.031-0.082-0.004-0.107 0.084-0.181 0.080s-0.105-0.006-0.105-0.017c-0.023 0.090-0.015 0.206 0.013 0.229 0.074 0.044 0.141 0.071 0.16 0.059 0.095 0.030 0.189 0.192 0.162 0.166s-0.080-0.105-0.109-0.111c-0.029-0.006-0.124-0.004-0.13 0.010-0.057-0.006-0.083-0.046-0.1-0.031-0.083 0.059-0.107 0.047-0.112 0.054 0.025-0.047 0.044-0.147 0.029-0.166-0.059-0.063-0.059-0.086-0.099-0.074s-0.084 0.137-0.122 0.128c-0.038-0.008-0.145-0.078-0.128-0.036 0.023 0.139 0.013 0.141 0.025 0.164-0.040 0.135-0.034 0.145-0.036 0.171-0.018 0.158-0.005 0.209-0.027 0.238-0.077 0.087-0.119 0.13-0.148 0.152-0.060 0.115-0.087 0.101-0.112 0.116-0.107 0.021-0.128 0.018-0.125 0.037-0.028 0.094 0.002 0.184-0.007 0.219-0.036 0.086-0.127 0.103-0.141 0.13-0.109 0.112-0.172 0.115-0.177 0.141-0.031 0.164-0.252 0.319-0.29 0.353s-0.204 0.118-0.229 0.107c-0.082-0.004-0.107 0.013-0.105 0.025-0.067 0.128-0.151 0.198-0.132 0.223s0.095 0.017 0.105 0.061c0.011 0.044-0.094-0.038-0.097-0.019-0.109-0.065-0.193-0.111-0.2-0.137-0.095-0.044-0.191-0.036-0.244 0s-0.118 0.107-0.151 0.116c-0.095 0.048-0.126 0.13-0.166 0.13s-0.126-0.011-0.195 0.076c-0.069 0.086-0.099 0.206-0.074 0.286 0.019 0.154-0.057 0.215-0.053 0.25s0.059 0.044 0.092 0.084c0.080 0.063 0.147 0.036 0.174 0.036 0.12-0.042 0.227-0.042 0.261-0.061 0.107-0.042 0.112-0.112 0.132-0.145 0-0.122-0.055-0.156-0.040-0.177 0.063-0.067 0.046-0.088 0.076-0.103s0.147-0.032 0.179-0.006c0.088 0.061 0.174 0.118 0.225 0.13s0.118-0.021 0.141 0.006c0.13 0.076 0.132 0.017 0.181 0.065s0.195 0.17 0.223 0.212c0.053 0.112 0.078 0.137 0.078 0.156-0.008 0.183 0.063 0.217 0.065 0.246 0.072 0.067 0.128 0.084 0.131 0.101 0.084-0.034 0.086-0.156 0.139-0.189s0.126-0.042 0.168-0.038c0.042 0.004 0.097 0.019 0.105-0.002 0.053-0.118 0.088-0.131 0.099-0.158 0.036-0.101 0.053-0.15 0.038-0.156-0.086-0.095-0.254-0.084-0.229-0.105 0.006-0.057-0.124-0.055-0.156-0.042s-0.099 0.078-0.107 0.063c0.076-0.139 0.139-0.267 0.139-0.246 0.076 0.006 0.097-0.004 0.103 0.029 0.030 0.061 0.103 0.048 0.124 0.055 0.032-0.137 0.061-0.223 0.080-0.233 0.017-0.044-0.193-0.137-0.137-0.141s0.080-0.015 0.114 0c0.055-0.095 0.082-0.112 0.082-0.128 0.019-0.063 0.095-0.078 0.074-0.109 0.027-0.141 0-0.185 0.027-0.189 0.084 0.057 0.067 0.061 0.092 0.074-0.042 0.149-0.103 0.257-0.061 0.242 0.032 0.179 0.048 0.16 0.063 0.143 0.088 0.013 0.090-0.086 0.122-0.143s0.088-0.126 0.134-0.116c0.101 0.015 0.090-0.040 0.122-0.044 0.076-0.040 0.166-0.135 0.213-0.135 0.122 0.031 0.137 0.038 0.147 0.052 0.090-0.040 0.048-0.080 0.103-0.103-0.013-0.158-0.025-0.255 0.038-0.284 0.034-0.187 0.103-0.225 0.153-0.242s0.082-0.002 0.107-0.027c0.092 0.013 0.059 0.103 0.097 0.132 0.107-0.050 0.155-0.109 0.195-0.109 0.061 0.055 0.124 0.067 0.139 0.049 0.095-0.032 0.177 0.021 0.21 0.013s0.094-0.017 0.111-0.036c0.105-0.019 0.124-0.057 0.152-0.057 0.076-0.080 0.109-0.124 0.246-0.133s0.261-0.006 0.338 0.006c0.078 0.013 0.269 0.137 0.313 0.168 0.090 0.105 0.139 0.082 0.128 0.057 0.013-0.076 0.059-0.105 0.080-0.112-0.050-0.027-0.031-0.004-0.099 0-0.084-0.071-0.065-0.084-0.097-0.084 0.006-0.084 0.090-0.086 0.076-0.112-0.105-0.057-0.174-0.078-0.126-0.090s0.111-0.069 0.134-0.057c0.092 0.009 0.125 0.022 0.115 0.037 0.033 0.147 0.025 0.134 0.053 0.146 0.115 0.017 0.196-0.004 0.206 0.022-0.019 0.106-0.059 0.129-0.059 0.148 0.018 0.089 0.010 0.126 0.049 0.144s0.072-0.026 0.109 0.005c0.038 0.032 0.123-0.003 0.114 0.028 0.030 0.086 0.169 0.048 0.221 0.030s0.076-0.023 0.104-0.010c0.061-0.022 0.137-0.138 0.136-0.105-0.007 0.171 0.054 0.16 0.092 0.192 0.088 0.035 0.101 0.044 0.125 0.025-0.007 0.132 0.045 0.154 0.061 0.197-0.003 0.15 0.1 0.179 0.122 0.203s0.071 0.023 0.094 0.050c0.085-0.105 0.096-0.122 0.079-0.141-0.043-0.123-0.072-0.179-0.051-0.17 0.075-0.101 0.075-0.060 0.091-0.073 0.078 0.095 0.174 0.089 0.144 0.12-0.027 0.131-0.077 0.123-0.11 0.149-0.011 0.087 0.055 0.077 0.078 0.105s0.053 0.085 0.089 0.061c0.037-0.024 0.071-0.089 0.112-0.098s0.156 0.035 0.142 0.005c-0.014-0.029-0.079-0.112-0.059-0.171s0.042-0.146 0.054-0.173c0.012-0.027 0.036-0.14 0.065-0.163s0.083-0.087 0.144-0.109c0.061-0.022 0.101-0.030 0.094-0.055-0.044-0.087-0.059-0.115-0.066-0.123-0.021-0.096-0.075-0.188-0.087-0.17-0.032-0.002-0.053-0.048-0.112-0.048s-0.193 0.035-0.171 0.019c0.082-0.057 0.125-0.038 0.112-0.064s-0.139-0.155-0.104-0.141c0.035 0.014 0.12 0.076 0.148 0.082 0.105 0.015 0.131 0.001 0.126 0.020 0.019 0.042 0.143 0.050 0.142 0.073 0.017 0.128 0.011 0.264 0.020 0.276s0.073 0.060 0.112 0.040c0.058-0.098 0.027-0.153 0.047-0.174 0.071-0.065 0.054-0.101 0.069-0.119 0.013-0.045-0.148-0.023-0.164-0.053s-0.057-0.114-0.054-0.174c0.003-0.061 0.068-0.221 0.108-0.196 0.119 0.024 0.201 0.039 0.169-0.002s-0.1-0.099-0.1-0.139 0.069-0.273 0.046-0.292c-0.023-0.019-0.2-0.011-0.252-0.004s-0.135 0.019-0.099 0.002c0.036-0.017 0.122-0.101 0.181-0.080s0.166 0.032 0.204 0.006 0.078-0.086 0.090-0.135c0.069-0.109 0.076-0.109 0.086-0.133s0.008-0.153-0.008-0.189c-0.030-0.215-0.078-0.206-0.078-0.244-0.040-0.166-0.074-0.221-0.040-0.198s0.078 0.086 0.128 0.153c0.050 0.067 0.044 0.084 0.055 0.137 0.056 0.164 0.053 0.196 0.086 0.221s0.141 0.029 0.175 0.006c0.034-0.023 0.078-0.092 0.124-0.109 0.116-0.030 0.116-0.034 0.137-0.065s0.006-0.141 0.103-0.175c0.097-0.034 0.313-0.103 0.446-0.097s0.189 0.025 0.204 0.002c0.015-0.023 0.055-0.149 0.137-0.118s0.147 0.040 0.183 0.025 0.252-0.095 0.284-0.12c0.032-0.025 0.074-0.071 0.126-0.065s0.246 0.073 0.32 0.090c0.074 0.017 0.072-0.034 0.118 0s0.445 0.173 0.676 0.374c0.231 0.201 0.533 0.461 0.561 0.509 0.038 0.152-0.025 0.33 0.012 0.311s0.059-0.107 0.091-0.128c0.053-0.105 0.050-0.179-0.004-0.196-0.103-0.040-0.135-0.069-0.132-0.098 0.074-0.119 0.029-0.135 0.070-0.184s0.094-0.126 0.229-0.107c0.134 0.019 0.166-0.013 0.231 0.038s0.065 0.015 0.147 0.044c0.082 0.030 0.261 0.046 0.282 0.025 0.088-0.021 0.275-0.002 0.324 0.046s0.053 0.067 0.111 0.067 0.145 0.021 0.156 0.048c0.12 0.067 0.139 0.015 0.204 0s0.227 0.004 0.225-0.033c0.006-0.177 0.134-0.257 0.103-0.257s-0.115 0.015-0.124-0.052c-0.095-0.111-0.097-0.113-0.12-0.115-0.065-0.019-0.076-0.046-0.109-0.044s-0.261 0.082-0.227 0.055c0.111-0.114 0.181-0.166 0.145-0.162s-0.12 0.071-0.158 0.042c0.027-0.128 0.107-0.28 0.145-0.255 0.134 0.086 0.137 0.074 0.114 0.040 0.038-0.078 0.101-0.036 0.099 0.004 0.067 0.006 0.124-0.010 0.13 0.025 0.082 0.103 0.143 0.088 0.187 0.059s0.204-0.101 0.324-0.084c0.12 0.017 0.191 0.023 0.183 0.013 0.021-0.061 0.063-0.015 0.094-0.029s0.063-0.057 0.143-0.057c0.080 0 0.4 0.063 0.44 0.084s0.059 0.093 0.092 0.078c0.046-0.101 0.126-0.191 0.131-0.217 0.042-0.074 0.198-0.107 0.298-0.137s0.162-0.006 0.155-0.038c-0.046-0.133-0.076-0.276-0.038-0.233s0.031 0.164 0.071 0.158c0.126-0.021 0.193-0.002 0.206-0.021 0.103-0.114 0.132-0.114 0.118-0.147s-0.082-0.044-0.088-0.086c-0.069-0.093-0.219-0.189-0.248-0.265s-0.227-0.225-0.145-0.191c0.082 0.034 0.162 0.12 0.198 0.12 0.103 0.053 0.221 0.21 0.25 0.191 0.063-0.179 0.168-0.261 0.131-0.208-0.046 0.164-0.055 0.181-0.074 0.219 0.055 0.095 0.175 0.139 0.189 0.164 0.126 0.080 0.16 0.076 0.189 0.135s0.118 0.078 0.147 0.105c0.030 0.027 0.168-0.061 0.151-0.099s-0.065-0.206-0.109-0.206c-0.044 0-0.11-0.030-0.103-0.044 0.072-0.019 0.164-0.030 0.187-0.011s0.080-0.040 0.111-0.023c0.107 0.059 0.069 0.086 0.065 0.128-0.036 0.101-0.101 0.12-0.080 0.177s0.055 0.136 0.112 0.094c0.057-0.042 0.128-0.055 0.134-0.105s-0.025-0.192 0.011-0.194c0.074-0.042 0.059-0.073 0.114-0.076s0.061 0.021 0.103 0.011c0.042-0.011 0.065-0.034 0.118-0.030s0.166 0.027 0.225 0.076c0.057 0.076 0.082-0.067 0.124-0.038-0.002 0.176 0.063 0.21 0.086 0.174s0.141-0.254 0.126-0.183c-0.015 0.071-0.044 0.199-0.103 0.233s-0.15-0.069-0.183-0.019-0.126 0.122-0.105 0.164c0.021 0.042 0.164 0.044 0.275 0.164s0.164 0.208 0.198 0.17c0.034-0.038 0.114-0.136 0.065-0.174 0.065-0.076 0.082-0.086 0.134-0.122s0.41-0.105 0.551-0.143c0.141-0.038 0.179-0.048 0.174-0.063 0.143 0.017 0.49 0.040 0.646-0.015s0.273-0.164 0.361-0.139c0.088 0.025 0.689 0.092 0.827 0.15s0.26 0.126 0.336 0.126 0.13-0.017 0.168 0.013c0.038 0.029 0.126 0.151 0.201 0.151s0.076-0.042 0.134 0c0.059 0.042 0.206 0.163 0.315 0.13s0.163-0.172 0.206-0.214c0.042-0.042 0.105-0.034 0.122-0.071s0.008-0.168 0.105-0.21c0.096-0.042 0.827-0.164 0.923-0.214s0.126-0.063 0.164-0.076c0.038-0.013 0.076 0.017 0.143-0.050s0.055-0.147 0.172-0.21c0.117-0.063 0.151-0.079 0.159-0.101 0.101-0.046 0.369 0.055 0.512 0.076s0.273 0.025 0.277-0.008c0.004-0.034-0.155-0.314-0.029-0.52s0.189-0.302 0.424-0.365 0.34-0.038 0.39-0.084c0.050-0.046 0.109-0.114 0.155-0.133s0.282-0.084 0.309-0.109c0.107-0.059 0.137-0.107 0.168-0.114s0.105-0.071 0.134-0.135c0.029-0.063 0.080-0.436 0.038-0.551s-0.101-0.17-0.101-0.252c-0.036-0.095-0.132-0.053-0.107-0.095s0.069-0.139 0.103-0.139c0.118 0.036 0.255-0.042 0.28-0.095 0.002-0.16 0.008-0.166-0.011-0.193s-0.013-0.078-0.109-0.080c-0.097-0.002-0.423 0.064-0.642 0.085s-0.546 0.046-0.688 0.059c-0.143 0.013-0.135 0.008-0.167 0.038s0.025 0.078-0.162 0.086c-0.187 0.009-0.221 0.023-0.244 0.036-0.076-0.008-0.134-0.078-0.185-0.067s-0.141-0.027-0.158 0c-0.126-0.019-0.229 0.004-0.238-0.040-0.040-0.13-0.076-0.16-0.109-0.204s-0.065-0.145-0.076-0.112c-0.010 0.034 0.078 0.137 0.036 0.158s-0.065 0.061-0.092 0.055c-0.074 0.023-0.116 0.025-0.137-0.006-0.057-0.061-0.059 0.034-0.114 0.017s-0.311-0.16-0.315-0.15c-0.072 0.046-0.121 0.019-0.113 0.005 0.079-0.093 0.119-0.070 0.119-0.070 0.048 0.002 0.097-0.069 0.158-0.065z" fill="#444444"></path>
</svg>
