<?xml version="1.0" encoding="utf-8"?>
<!-- Generated by IcoMoon.io -->
<!DOCTYPE svg PUBLIC "-//W3C//DTD SVG 1.1//EN" "http://www.w3.org/Graphics/SVG/1.1/DTD/svg11.dtd">
<svg version="1.1" xmlns="http://www.w3.org/2000/svg" xmlns:xlink="http://www.w3.org/1999/xlink" width="257" height="58" viewBox="0 0 257 58">
<path d="M0.102 52.545h2.94l1.344-6.426h5.922l-1.344 6.426h2.94l3.066-14.658h-2.94l-1.239 5.922h-5.922l1.239-5.922h-2.94l-3.066 14.658zM25.596 48.009c0.168-0.798 0.273-1.596 0.273-2.415 0-2.751-1.764-4.116-4.431-4.116-3.549 0-6.153 3.234-6.153 6.594 0 3.213 2.1 4.725 5.208 4.725 1.155 0 2.352-0.273 3.444-0.609l0.357-2.226c-1.050 0.483-2.163 0.777-3.318 0.777-1.932 0-3.003-0.735-3.003-2.73h7.623zM18.351 46.077c0.546-1.491 1.302-2.541 3.045-2.541 1.176 0 1.785 0.651 1.785 1.806 0 0.252-0.021 0.483-0.063 0.735h-4.767zM33.303 52.545h2.373c0.252-2.037 1.323-6.279 1.323-7.728 0-2.541-2.037-3.339-4.2-3.339-1.26 0-2.478 0.231-3.675 0.651l-0.399 2.247c1.113-0.525 2.31-0.84 3.549-0.84 0.987 0 2.163 0.315 2.163 1.407 0 0.315 0 0.63-0.084 0.924h-0.987c-2.646 0-6.636 0.273-6.636 3.843 0 1.995 1.386 3.087 3.339 3.087 1.554 0 2.52-0.693 3.486-1.911h0.042l-0.294 1.659zM29.418 49.605c0-1.827 2.268-2.058 3.633-2.058h0.987c-0.441 1.743-1.092 3.192-3.192 3.192-0.714 0-1.428-0.378-1.428-1.134v0zM38.406 52.545h2.814l3.339-15.75h-2.814l-3.339 15.75zM44.916 43.788h2.037l-0.798 3.654c-0.189 0.861-0.357 1.68-0.357 2.52 0 2.079 1.344 2.835 3.255 2.835 0.483 0 1.029-0.147 1.512-0.252l0.483-2.184c-0.357 0.147-0.861 0.252-1.365 0.252-0.63 0-1.071-0.399-1.071-1.050 0-0.42 0.063-0.798 0.126-1.050l1.029-4.725h2.52l0.441-2.058h-2.52l0.693-3.213-3.024 0.987-0.483 2.226h-2.037l-0.441 2.058zM52.413 52.545h2.814l1.155-5.439c0.357-1.617 1.071-3.444 3.024-3.444 0.903 0 1.533 0.609 1.533 1.512 0 0.798-0.168 1.533-0.315 2.268l-1.050 5.103h2.814l1.134-5.25c0.147-0.672 0.357-1.533 0.357-2.352 0-2.142-1.407-3.465-3.528-3.465-1.218 0-2.289 0.588-3.066 1.302h-0.042l1.344-5.985h-2.814l-3.36 15.75zM71.292 52.545h8.736l0.504-2.31h-5.796l0.861-4.116h5.145l0.462-2.31h-5.124l0.756-3.612h5.733l0.441-2.31h-8.631l-3.087 14.658zM93.321 36.795l-1.365 6.216c-0.882-1.008-1.953-1.533-3.339-1.533-3.675 0-5.439 3.591-5.439 6.825 0 2.352 1.155 4.494 3.717 4.494 1.638 0 2.688-0.672 3.528-1.848h0.042l-0.273 1.596h2.625c0.063-0.546 0.231-1.47 0.399-2.394l2.919-13.356h-2.814zM89.079 43.662c1.428 0 2.037 1.302 2.037 2.562 0 1.995-1.218 4.389-3.276 4.389-1.386 0-1.722-1.47-1.722-2.562 0-1.617 0.945-4.389 2.961-4.389v0zM107.748 41.73h-2.814l-1.155 5.439c-0.357 1.617-1.071 3.444-3.024 3.444-0.903 0-1.533-0.609-1.533-1.512 0-0.798 0.168-1.533 0.315-2.268l1.050-5.103h-2.814l-1.134 5.25c-0.147 0.672-0.357 1.533-0.357 2.352 0 2.142 1.407 3.465 3.528 3.465 1.218 0 2.289-0.588 3.066-1.302h0.042l-0.189 1.050h2.751c0.042-0.336 0.147-0.903 0.273-1.554l1.995-9.261zM118.038 41.898c-0.756-0.231-1.764-0.42-2.814-0.42-3.885 0-6.384 2.877-6.384 6.657 0 2.793 1.806 4.662 4.599 4.662 0.924 0 1.848-0.084 2.709-0.504l0.315-2.226c-0.735 0.357-1.596 0.546-2.289 0.546-1.932 0-2.394-1.407-2.394-2.814 0-2.037 1.26-4.137 3.507-4.137 0.777 0 1.512 0.189 2.058 0.546l0.693-2.31zM124.317 52.545h2.373c0.252-2.037 1.323-6.279 1.323-7.728 0-2.541-2.037-3.339-4.2-3.339-1.26 0-2.478 0.231-3.675 0.651l-0.399 2.247c1.113-0.525 2.31-0.84 3.549-0.84 0.987 0 2.163 0.315 2.163 1.407 0 0.315 0 0.63-0.084 0.924h-0.987c-2.646 0-6.636 0.273-6.636 3.843 0 1.995 1.386 3.087 3.339 3.087 1.554 0 2.52-0.693 3.486-1.911h0.042l-0.294 1.659zM120.432 49.605c0-1.827 2.268-2.058 3.633-2.058h0.987c-0.441 1.743-1.092 3.192-3.192 3.192-0.714 0-1.428-0.378-1.428-1.134v0zM130.092 43.788h2.037l-0.798 3.654c-0.189 0.861-0.357 1.68-0.357 2.52 0 2.079 1.344 2.835 3.255 2.835 0.483 0 1.029-0.147 1.512-0.252l0.483-2.184c-0.357 0.147-0.861 0.252-1.365 0.252-0.63 0-1.071-0.399-1.071-1.050 0-0.42 0.063-0.798 0.126-1.050l1.029-4.725h2.52l0.441-2.058h-2.52l0.693-3.213-3.024 0.987-0.483 2.226h-2.037l-0.441 2.058zM137.589 52.545h2.814l2.31-10.815h-2.814l-2.31 10.815zM140.34 39.756h2.814l0.588-2.688h-2.814l-0.588 2.688zM148.992 50.613c-1.617 0-2.205-1.113-2.205-2.541 0-1.953 1.113-4.41 3.339-4.41 1.659 0 2.142 1.176 2.142 2.583 0 1.848-1.092 4.368-3.276 4.368v0zM150.252 41.478c-3.633 0-6.405 2.772-6.405 6.384 0 3.045 1.848 4.935 4.914 4.935 3.822 0 6.447-2.772 6.447-6.573 0-2.982-2.037-4.746-4.956-4.746v0zM156.258 52.545h2.814l1.155-5.439c0.357-1.617 1.071-3.444 3.024-3.444 0.903 0 1.533 0.609 1.533 1.512 0 0.798-0.168 1.533-0.315 2.268l-1.050 5.103h2.814l1.134-5.25c0.147-0.672 0.357-1.533 0.357-2.352 0-2.142-1.407-3.465-3.528-3.465-1.218 0-2.289 0.588-3.066 1.302h-0.042l0.189-1.050h-2.751c-0.042 0.336-0.147 0.903-0.273 1.554l-1.995 9.261zM175.137 52.545h8.736l0.504-2.31h-5.796l0.861-4.116h5.145l0.462-2.31h-5.124l0.756-3.612h5.733l0.441-2.31h-8.631l-3.087 14.658zM186.603 52.545h2.814l1.155-5.439c0.357-1.617 1.071-3.444 3.024-3.444 0.903 0 1.533 0.609 1.533 1.512 0 0.798-0.168 1.533-0.315 2.268l-1.050 5.103h2.814l1.134-5.25c0.147-0.672 0.357-1.533 0.357-2.352 0-2.142-1.407-3.465-3.528-3.465-1.218 0-2.289 0.588-3.066 1.302h-0.042l0.189-1.050h-2.751c-0.042 0.336-0.147 0.903-0.273 1.554l-1.995 9.261zM199.098 56.472c1.386 0.525 2.856 0.735 4.326 0.735 3.948 0 5.481-2.31 6.174-5.838l1.722-8.127c0.147-0.693 0.273-1.218 0.357-1.512h-2.709l-0.315 1.575c-0.672-1.134-1.869-1.827-3.297-1.827-3.507 0-5.481 3.255-5.481 6.489 0 2.373 1.134 4.578 3.759 4.578 1.554 0 2.919-0.756 3.633-2.058h0.042c-0.672 2.457-1.113 4.536-4.095 4.536-1.218 0-2.289-0.378-3.402-0.84l-0.714 2.289zM207.771 45.93c0 2.058-0.924 4.431-3.171 4.431-1.26 0-1.785-1.113-1.785-2.415 0-1.617 0.882-4.284 2.919-4.284 1.302 0 2.037 1.008 2.037 2.268v0zM212.265 52.545h2.814l3.339-15.75h-2.814l-3.339 15.75zM224.676 52.545h2.373c0.252-2.037 1.323-6.279 1.323-7.728 0-2.541-2.037-3.339-4.2-3.339-1.26 0-2.478 0.231-3.675 0.651l-0.399 2.247c1.113-0.525 2.31-0.84 3.549-0.84 0.987 0 2.163 0.315 2.163 1.407 0 0.315 0 0.63-0.084 0.924h-0.987c-2.646 0-6.636 0.273-6.636 3.843 0 1.995 1.386 3.087 3.339 3.087 1.554 0 2.52-0.693 3.486-1.911h0.042l-0.294 1.659zM220.791 49.605c0-1.827 2.268-2.058 3.633-2.058h0.987c-0.441 1.743-1.092 3.192-3.192 3.192-0.714 0-1.428-0.378-1.428-1.134v0zM229.779 52.545h2.814l1.155-5.439c0.357-1.617 1.071-3.444 3.024-3.444 0.903 0 1.533 0.609 1.533 1.512 0 0.798-0.168 1.533-0.315 2.268l-1.050 5.103h2.814l1.134-5.25c0.147-0.672 0.357-1.533 0.357-2.352 0-2.142-1.407-3.465-3.528-3.465-1.218 0-2.289 0.588-3.066 1.302h-0.042l0.189-1.050h-2.751c-0.042 0.336-0.147 0.903-0.273 1.554l-1.995 9.261zM253.173 36.795l-1.365 6.216c-0.882-1.008-1.953-1.533-3.339-1.533-3.675 0-5.439 3.591-5.439 6.825 0 2.352 1.155 4.494 3.717 4.494 1.638 0 2.688-0.672 3.528-1.848h0.042l-0.273 1.596h2.625c0.063-0.546 0.231-1.47 0.399-2.394l2.919-13.356h-2.814zM248.931 43.662c1.428 0 2.037 1.302 2.037 2.562 0 1.995-1.218 4.389-3.276 4.389-1.386 0-1.722-1.47-1.722-2.562 0-1.617 0.945-4.389 2.961-4.389v0z" fill="rgb(0, 0, 0)"></path>
<path d="M189.045 0.614h67.019v27.086h-67.019v-27.086z" fill="rgb(0, 122, 194)"></path>
<path d="M195.598 3.229h7.287l4.474 15.118h0.062l3.065-15.118h5.506l-4.629 21.803h-7.257l-4.566-15.087h-0.064l-3.033 15.087h-5.505l4.661-21.803z" fill="rgb(255, 255, 255)"></path>
<path d="M218.146 3.229h5.85l-1.721 8.34h6.914l1.72-8.34h5.85l-4.536 21.803h-5.85l1.94-9.34h-6.913l-1.939 9.34h-5.849l4.535-21.803z" fill="rgb(255, 255, 255)"></path>
<path d="M252.147 8.164c-1.126-0.531-2.659-0.999-4.817-0.999-2.317 0-4.192 0.343-4.192 2.092 0 3.092 8.477 1.937 8.477 8.558 0 6.030-5.599 7.591-10.668 7.591-2.251 0-4.849-0.531-6.757-1.125l1.377-4.435c1.157 0.75 3.473 1.249 5.38 1.249 1.815 0 4.661-0.344 4.661-2.592 0-3.499-8.477-2.187-8.477-8.34 0-5.623 4.941-7.309 9.728-7.309 2.69 0 5.224 0.281 6.694 0.969l-1.408 4.341z" fill="rgb(255, 255, 255)"></path>
</svg>
