<svg display="none" width="0" height="0" version="1.1" xmlns="http://www.w3.org/2000/svg" xmlns:xlink="http://www.w3.org/1999/xlink">
<defs>
<symbol id="_dashboard" viewBox="0 0 1024 1024">
	<title>dashboard</title>
	<path class="path1" d="M128 554.667h341.333v-426.667h-341.333v426.667zM128 896h341.333v-256h-341.333v256zM554.667 896h341.333v-426.667h-341.333v426.667zM554.667 128v256h341.333v-256h-341.333z"></path>
</symbol>
<symbol id="_favorite" viewBox="0 0 1024 1024">
	<title>favorite</title>
	<path class="path1" d="M512 910.933l-61.867-56.107c-219.733-199.467-364.8-331.093-364.8-492.16 0-131.627 103.040-234.667 234.667-234.667 74.24 0 145.493 34.56 192 88.96 46.507-54.4 117.76-88.96 192-88.96 131.627 0 234.667 103.040 234.667 234.667 0 161.067-145.067 292.693-364.8 492.16l-61.867 56.107z"></path>
</symbol>
<symbol id="_favorite-outline" viewBox="0 0 1024 1024">
	<title>favorite-outline</title>
	<path class="path1" d="M704 128c-74.24 0-145.493 34.56-192 88.96-46.507-54.4-117.76-88.96-192-88.96-131.627 0-234.667 103.040-234.667 234.667 0 161.067 145.067 292.693 364.8 492.16l61.867 56.107 61.867-56.107c219.733-199.467 364.8-331.093 364.8-492.16 0-131.627-103.040-234.667-234.667-234.667zM516.48 791.68l-4.48 4.053-4.48-4.053c-202.88-184.107-336.853-305.707-336.853-429.013 0-85.12 64.213-149.333 149.333-149.333 65.707 0 129.707 42.453 152.107 100.693h79.573c22.613-58.24 86.613-100.693 152.32-100.693 85.12 0 149.333 64.213 149.333 149.333 0 123.307-133.973 244.907-336.853 429.013z"></path>
</symbol>
<symbol id="_perm-identity" viewBox="0 0 1024 1024">
	<title>perm-identity</title>
	<path class="path1" d="M512 251.733c49.493 0 89.6 40.107 89.6 89.6s-40.107 89.6-89.6 89.6-89.6-40.107-89.6-89.6 40.107-89.6 89.6-89.6zM512 635.733c126.933 0 260.267 62.080 260.267 89.6v46.933h-520.533v-46.933c0-27.52 133.333-89.6 260.267-89.6zM512 170.667c-94.293 0-170.667 76.373-170.667 170.667 0 94.080 76.373 170.667 170.667 170.667s170.667-76.587 170.667-170.667c0-94.293-76.373-170.667-170.667-170.667zM512 554.667c-113.707 0-341.333 56.96-341.333 170.667v128h682.667v-128c0-113.707-227.627-170.667-341.333-170.667z"></path>
</symbol>
<symbol id="_question-answer" viewBox="0 0 1024 1024">
	<title>question-answer</title>
	<path class="path1" d="M896 256h-85.333v384h-554.667v85.333c0 23.467 19.2 42.667 42.667 42.667h469.333l170.667 170.667v-640c0-23.467-19.2-42.667-42.667-42.667zM725.333 512v-384c0-23.467-19.2-42.667-42.667-42.667h-554.667c-23.467 0-42.667 19.2-42.667 42.667v597.333l170.667-170.667h426.667c23.467 0 42.667-19.2 42.667-42.667z"></path>
</symbol>
<symbol id="_room" viewBox="0 0 1024 1024">
	<title>room</title>
	<path class="path1" d="M512 85.333c-164.907 0-298.667 133.76-298.667 298.667 0 224 298.667 554.667 298.667 554.667s298.667-330.667 298.667-554.667c0-164.907-133.76-298.667-298.667-298.667zM512 490.667c-58.88 0-106.667-47.787-106.667-106.667s47.787-106.667 106.667-106.667 106.667 47.787 106.667 106.667-47.787 106.667-106.667 106.667z"></path>
</symbol>
<symbol id="_thumb-down" viewBox="0 0 1024 1024">
	<title>thumb-down</title>
	<path class="path1" d="M640 128h-384c-35.413 0-65.707 21.547-78.507 52.053l-128.64 300.8c-3.84 9.813-6.187 20.267-6.187 31.147v81.707l0.427 0.427-0.427 3.2c0 47.147 38.187 85.333 85.333 85.333h269.44l-40.747 194.987c-0.853 4.267-1.493 8.747-1.493 13.44 0 17.707 7.253 33.707 18.773 45.227l45.44 45.013 280.96-280.96c15.36-15.573 24.96-36.907 24.96-60.373v-426.667c0-47.147-38.187-85.333-85.333-85.333zM810.667 128v512h170.667v-512h-170.667z"></path>
</symbol>
<symbol id="_thumb-up" viewBox="0 0 1024 1024">
	<title>thumb-up</title>
	<path class="path1" d="M42.667 896h170.667v-512h-170.667v512zM981.333 426.667c0-47.147-38.187-85.333-85.333-85.333h-269.44l40.747-194.987c0.853-4.267 1.493-8.747 1.493-13.44 0-17.707-7.253-33.707-18.773-45.227l-45.44-45.013-280.96 280.96c-15.36 15.573-24.96 36.907-24.96 60.373v426.667c0 47.147 38.187 85.333 85.333 85.333h384c35.413 0 65.707-21.547 78.507-52.053l128.64-300.8c3.84-9.813 6.187-20.267 6.187-31.147v-81.707l-0.427-0.427 0.427-3.2z"></path>
</symbol>
<symbol id="_turned-in" viewBox="0 0 1024 1024">
	<title>turned-in</title>
	<path class="path1" d="M725.333 128h-426.667c-47.147 0-84.907 38.187-84.907 85.333l-0.427 682.667 298.667-128 298.667 128v-682.667c0-47.147-38.187-85.333-85.333-85.333z"></path>
</symbol>
<symbol id="_turned-in-not" viewBox="0 0 1024 1024">
	<title>turned-in-not</title>
	<path class="path1" d="M725.333 128h-426.667c-47.147 0-84.907 38.187-84.907 85.333l-0.427 682.667 298.667-128 298.667 128v-682.667c0-47.147-38.187-85.333-85.333-85.333zM725.333 768l-213.333-92.8-213.333 92.8v-554.667h426.667v554.667z"></path>
</symbol>
<symbol id="_alert" viewBox="0 0 1024 1024">
	<title>alert</title>
	<path class="path1" d="M512 85.333c-235.52 0-426.667 190.933-426.667 426.667s191.147 426.667 426.667 426.667 426.667-190.933 426.667-426.667-191.147-426.667-426.667-426.667zM554.667 725.333h-85.333v-85.333h85.333v85.333zM554.667 554.667h-85.333v-256h85.333v256z"></path>
</symbol>
<symbol id="_comment" viewBox="0 0 1024 1024">
	<title>comment</title>
	<path class="path1" d="M938.24 170.667c0-47.147-37.76-85.333-84.907-85.333h-682.667c-47.147 0-85.333 38.187-85.333 85.333v512c0 47.147 38.187 85.333 85.333 85.333h597.333l170.667 170.667-0.427-768zM768 597.333h-512v-85.333h512v85.333zM768 469.333h-512v-85.333h512v85.333zM768 341.333h-512v-85.333h512v85.333z"></path>
</symbol>
<symbol id="_message" viewBox="0 0 1024 1024">
	<title>message</title>
	<path class="path1" d="M853.333 85.333h-682.667c-47.147 0-84.907 38.187-84.907 85.333l-0.427 768 170.667-170.667h597.333c47.147 0 85.333-38.187 85.333-85.333v-512c0-47.147-38.187-85.333-85.333-85.333zM768 597.333h-512v-85.333h512v85.333zM768 469.333h-512v-85.333h512v85.333zM768 341.333h-512v-85.333h512v85.333z"></path>
</symbol>
<symbol id="_messenger" viewBox="0 0 1024 1024">
	<title>messenger</title>
	<path class="path1" d="M853.333 85.333h-682.667c-47.147 0-85.333 38.187-85.333 85.333v768l170.667-170.667h597.333c47.147 0 85.333-38.187 85.333-85.333v-512c0-47.147-38.187-85.333-85.333-85.333z"></path>
</symbol>
<symbol id="_thumbs-up-down" viewBox="0 0 1024 1024">
	<title>thumbs-up-down</title>
	<path class="path1" d="M512 256c0-23.467-19.2-42.667-42.667-42.667h-221.227l28.373-135.467c0.64-3.2 1.067-6.613 1.067-10.027 0-13.227-5.333-25.173-14.080-33.92l-33.92-33.92-210.773 210.773c-11.52 11.52-18.773 27.52-18.773 45.227v277.333c0 35.413 28.587 64 64 64h288c26.453 0 49.28-16 58.88-39.040l96.64-225.707c2.773-7.253 4.48-14.933 4.48-23.253v-53.333zM960 426.667h-288c-26.453 0-49.28 16-58.88 39.040l-96.64 225.707c-2.773 7.253-4.48 14.933-4.48 23.253v53.333c0 23.467 19.2 42.667 42.667 42.667h221.227l-28.373 135.467c-0.64 3.2-1.067 6.613-1.067 10.027 0 13.227 5.333 25.173 14.080 33.92l33.92 33.92 210.773-210.773c11.52-11.52 18.773-27.52 18.773-45.227v-277.333c0-35.413-28.587-64-64-64z"></path>
</symbol>
<symbol id="_expand-less" viewBox="0 0 1024 1024">
	<title>expand-less</title>
	<path class="path1" d="M512 341.333l-256 256 60.373 60.373 195.627-195.627 195.627 195.627 60.373-60.373z"></path>
</symbol>
<symbol id="_expand-more" viewBox="0 0 1024 1024">
	<title>expand-more</title>
	<path class="path1" d="M707.627 366.293l-195.627 195.627-195.627-195.627-60.373 60.373 256 256 256-256z"></path>
</symbol>
</defs>
</svg>
